%TF.GenerationSoftware,KiCad,Pcbnew,10.0.5*%
%TF.CreationDate,2026-09-02T18:05:49-05:00*%
%TF.ProjectId,f411_dev_board,66343131-5f64-4657-965f-626f6172642e,rev?*%
%TF.SameCoordinates,Original*%
%TF.FileFunction,Copper,L2,Bot*%
%TF.FilePolarity,Positive*%
%FSLAX46Y46*%
G04 Gerber Fmt 4.6, Leading zero omitted, Abs format (unit mm)*
G04 Created by KiCad (PCBNEW 10.0.5) date 2026-09-02 18:05:49*
%MOMM*%
%LPD*%
G01*
G04 APERTURE LIST*
G04 Aperture macros list*
%AMRoundRect*
0 Rectangle with rounded corners*
0 $1 Rounding radius*
0 $2 $3 $4 $5 $6 $7 $8 $9 X,Y pos of 4 corners*
0 Add a 4 corners polygon primitive as box body*
4,1,4,$2,$3,$4,$5,$6,$7,$8,$9,$2,$3,0*
0 Add four circle primitives for the rounded corners*
1,1,$1+$1,$2,$3*
1,1,$1+$1,$4,$5*
1,1,$1+$1,$6,$7*
1,1,$1+$1,$8,$9*
0 Add four rect primitives between the rounded corners*
20,1,$1+$1,$2,$3,$4,$5,0*
20,1,$1+$1,$4,$5,$6,$7,0*
20,1,$1+$1,$6,$7,$8,$9,0*
20,1,$1+$1,$8,$9,$2,$3,0*%
G04 Aperture macros list end*
%TA.AperFunction,ComponentPad*%
%ADD10O,3.500000X2.200000*%
%TD*%
%TA.AperFunction,ComponentPad*%
%ADD11R,2.500000X1.500000*%
%TD*%
%TA.AperFunction,ComponentPad*%
%ADD12O,2.500000X1.500000*%
%TD*%
%TA.AperFunction,ComponentPad*%
%ADD13R,1.700000X1.700000*%
%TD*%
%TA.AperFunction,ComponentPad*%
%ADD14C,1.700000*%
%TD*%
%TA.AperFunction,ComponentPad*%
%ADD15O,2.100000X1.000000*%
%TD*%
%TA.AperFunction,ComponentPad*%
%ADD16O,1.800000X1.000000*%
%TD*%
%TA.AperFunction,SMDPad,CuDef*%
%ADD17RoundRect,0.140000X-0.170000X0.140000X-0.170000X-0.140000X0.170000X-0.140000X0.170000X0.140000X0*%
%TD*%
%TA.AperFunction,SMDPad,CuDef*%
%ADD18RoundRect,0.135000X-0.185000X0.135000X-0.185000X-0.135000X0.185000X-0.135000X0.185000X0.135000X0*%
%TD*%
%TA.AperFunction,SMDPad,CuDef*%
%ADD19RoundRect,0.225000X-0.225000X-0.250000X0.225000X-0.250000X0.225000X0.250000X-0.225000X0.250000X0*%
%TD*%
%TA.AperFunction,SMDPad,CuDef*%
%ADD20RoundRect,0.375000X0.625000X0.375000X-0.625000X0.375000X-0.625000X-0.375000X0.625000X-0.375000X0*%
%TD*%
%TA.AperFunction,SMDPad,CuDef*%
%ADD21RoundRect,0.500000X0.500000X1.400000X-0.500000X1.400000X-0.500000X-1.400000X0.500000X-1.400000X0*%
%TD*%
%TA.AperFunction,SMDPad,CuDef*%
%ADD22RoundRect,0.140000X0.140000X0.170000X-0.140000X0.170000X-0.140000X-0.170000X0.140000X-0.170000X0*%
%TD*%
%TA.AperFunction,SMDPad,CuDef*%
%ADD23RoundRect,0.140000X-0.140000X-0.170000X0.140000X-0.170000X0.140000X0.170000X-0.140000X0.170000X0*%
%TD*%
%TA.AperFunction,SMDPad,CuDef*%
%ADD24RoundRect,0.225000X0.250000X-0.225000X0.250000X0.225000X-0.250000X0.225000X-0.250000X-0.225000X0*%
%TD*%
%TA.AperFunction,ViaPad*%
%ADD25C,0.600000*%
%TD*%
%TA.AperFunction,Conductor*%
%ADD26C,0.300000*%
%TD*%
%TA.AperFunction,Conductor*%
%ADD27C,0.500000*%
%TD*%
G04 APERTURE END LIST*
D10*
%TO.P,SW1,*%
%TO.N,*%
X154432000Y-90492000D03*
X154432000Y-82292000D03*
D11*
%TO.P,SW1,1,A_1*%
%TO.N,+3V3*%
X154432000Y-88392000D03*
D12*
%TO.P,SW1,2,B_2*%
%TO.N,/BOOT0_SW*%
X154432000Y-86392000D03*
%TO.P,SW1,3,C_3*%
%TO.N,GND*%
X154432000Y-84392000D03*
%TD*%
D13*
%TO.P,J1,1,Pin_1_1*%
%TO.N,PA0*%
X149860000Y-93980000D03*
D14*
%TO.P,J1,2,Pin_2_2*%
%TO.N,PA1*%
X152400000Y-93980000D03*
%TO.P,J1,3,Pin_3_3*%
%TO.N,PA2*%
X154940000Y-93980000D03*
%TO.P,J1,4,Pin_4_4*%
%TO.N,PA3*%
X157480000Y-93980000D03*
%TO.P,J1,5,Pin_5_5*%
%TO.N,PA4*%
X160020000Y-93980000D03*
%TO.P,J1,6,Pin_6_6*%
%TO.N,PA5*%
X162560000Y-93980000D03*
%TO.P,J1,7,Pin_7_7*%
%TO.N,PA6*%
X165100000Y-93980000D03*
%TO.P,J1,8,Pin_8_8*%
%TO.N,PA7*%
X167640000Y-93980000D03*
%TO.P,J1,9,Pin_9_9*%
%TO.N,PB0*%
X170180000Y-93980000D03*
%TO.P,J1,10,Pin_10_10*%
%TO.N,PB1*%
X172720000Y-93980000D03*
%TO.P,J1,11,Pin_11_11*%
%TO.N,PB2*%
X175260000Y-93980000D03*
%TO.P,J1,12,Pin_12_12*%
%TO.N,PB10*%
X177800000Y-93980000D03*
%TO.P,J1,13,Pin_13_13*%
%TO.N,VBUS*%
X180340000Y-93980000D03*
%TO.P,J1,14,Pin_14_14*%
%TO.N,GND*%
X182880000Y-93980000D03*
%TO.P,J1,15,Pin_15_15*%
%TO.N,+3V3*%
X185420000Y-93980000D03*
%TD*%
D15*
%TO.P,J4,SH,SHIELD_SH*%
%TO.N,unconnected-(J4-SHIELD-PadSH)*%
X189173000Y-90680000D03*
D16*
%TO.N,unconnected-(J4-SHIELD-PadSH)_2*%
X193353000Y-90680000D03*
D15*
%TO.N,unconnected-(J4-SHIELD-PadSH)_1*%
X189173000Y-82040000D03*
D16*
%TO.N,unconnected-(J4-SHIELD-PadSH)_3*%
X193353000Y-82040000D03*
%TD*%
D13*
%TO.P,J2,1,Pin_1_1*%
%TO.N,VBUS*%
X149860000Y-78740000D03*
D14*
%TO.P,J2,2,Pin_2_2*%
%TO.N,GND*%
X152400000Y-78740000D03*
%TO.P,J2,3,Pin_3_3*%
%TO.N,+3V3*%
X154940000Y-78740000D03*
%TO.P,J2,4,Pin_4_4*%
%TO.N,PB9*%
X157480000Y-78740000D03*
%TO.P,J2,5,Pin_5_5*%
%TO.N,PB8*%
X160020000Y-78740000D03*
%TO.P,J2,6,Pin_6_6*%
%TO.N,PB7*%
X162560000Y-78740000D03*
%TO.P,J2,7,Pin_7_7*%
%TO.N,PB6*%
X165100000Y-78740000D03*
%TO.P,J2,8,Pin_8_8*%
%TO.N,PB5*%
X167640000Y-78740000D03*
%TO.P,J2,9,Pin_9_9*%
%TO.N,PB4*%
X170180000Y-78740000D03*
%TO.P,J2,10,Pin_10_10*%
%TO.N,PB3*%
X172720000Y-78740000D03*
%TO.P,J2,11,Pin_11_11*%
%TO.N,PA15*%
X175260000Y-78740000D03*
%TO.P,J2,12,Pin_12_12*%
%TO.N,PA8*%
X177800000Y-78740000D03*
%TO.P,J2,13,Pin_13_13*%
%TO.N,PA9*%
X180340000Y-78740000D03*
%TO.P,J2,14,Pin_14_14*%
%TO.N,PA10*%
X182880000Y-78740000D03*
%TO.P,J2,15,Pin_15_15*%
%TO.N,PB12*%
X185420000Y-78740000D03*
%TD*%
D13*
%TO.P,J3,1,Pin_1_1*%
%TO.N,SWDIO*%
X147828000Y-90424000D03*
D14*
%TO.P,J3,2,Pin_2_2*%
%TO.N,GND*%
X147828000Y-87884000D03*
%TO.P,J3,3,Pin_3_3*%
%TO.N,SWCLK*%
X147828000Y-85344000D03*
%TO.P,J3,4,Pin_4_4*%
%TO.N,+3V3*%
X147828000Y-82804000D03*
%TD*%
D17*
%TO.P,C2,1*%
%TO.N,+3V3*%
X163446000Y-81946000D03*
%TO.P,C2,2*%
%TO.N,GND*%
X163446000Y-82906000D03*
%TD*%
D18*
%TO.P,R1,1*%
%TO.N,/CC1*%
X193294000Y-88392000D03*
%TO.P,R1,2*%
%TO.N,GND*%
X193294000Y-89412000D03*
%TD*%
D19*
%TO.P,C11,1*%
%TO.N,VBUS*%
X182359000Y-90982800D03*
%TO.P,C11,2*%
%TO.N,GND*%
X183909000Y-90982800D03*
%TD*%
D20*
%TO.P,U3,1,GND_1*%
%TO.N,GND*%
X183236000Y-84314000D03*
%TO.P,U3,2,VO_2*%
%TO.N,+3V3*%
X183236000Y-86614000D03*
D21*
X176936000Y-86614000D03*
D20*
%TO.P,U3,3,VI_3*%
%TO.N,VBUS*%
X183236000Y-88914000D03*
%TD*%
D17*
%TO.P,C4,1*%
%TO.N,+3V3*%
X172844000Y-82200000D03*
%TO.P,C4,2*%
%TO.N,GND*%
X172844000Y-83160000D03*
%TD*%
D22*
%TO.P,C3,1*%
%TO.N,+3V3*%
X171930000Y-90554000D03*
%TO.P,C3,2*%
%TO.N,GND*%
X170970000Y-90554000D03*
%TD*%
D23*
%TO.P,C1,1*%
%TO.N,+3V3*%
X164998000Y-81156000D03*
%TO.P,C1,2*%
%TO.N,GND*%
X165958000Y-81156000D03*
%TD*%
D19*
%TO.P,C12,1*%
%TO.N,+3V3*%
X181343000Y-82169000D03*
%TO.P,C12,2*%
%TO.N,GND*%
X182893000Y-82169000D03*
%TD*%
D24*
%TO.P,C5,1*%
%TO.N,+3V3*%
X173352000Y-88789000D03*
%TO.P,C5,2*%
%TO.N,GND*%
X173352000Y-87239000D03*
%TD*%
D18*
%TO.P,R2,1*%
%TO.N,/CC2*%
X193294000Y-84580000D03*
%TO.P,R2,2*%
%TO.N,GND*%
X193294000Y-85600000D03*
%TD*%
D19*
%TO.P,C9,1*%
%TO.N,VCAP1*%
X170929000Y-92329000D03*
%TO.P,C9,2*%
%TO.N,GND*%
X172479000Y-92329000D03*
%TD*%
D25*
%TO.N,GND*%
X161480646Y-89154000D03*
%TO.N,PB12*%
X179638729Y-95828461D03*
X176530000Y-94600000D03*
%TO.N,VCAP1*%
X169799000Y-91630000D03*
%TO.N,VBUS*%
X180900743Y-89507800D03*
%TO.N,PA10*%
X179901758Y-88517980D03*
%TO.N,PA9*%
X180095512Y-90361513D03*
%TO.N,PA8*%
X178394672Y-91839055D03*
%TO.N,VBUS*%
X146703827Y-77869827D03*
%TO.N,PA8*%
X186500068Y-86755999D03*
%TO.N,/CC2*%
X192532000Y-84582000D03*
%TO.N,SWDIO*%
X179124839Y-91512161D03*
X178401758Y-88470755D03*
%TO.N,PA10*%
X190728661Y-80924339D03*
%TO.N,PB12*%
X191262000Y-85260000D03*
X191262000Y-83960000D03*
%TO.N,BUILTIN_LED*%
X150980669Y-87017331D03*
X162823852Y-83651103D03*
%TO.N,+3V3*%
X176276000Y-82774000D03*
X171450000Y-89408000D03*
X160035689Y-89142000D03*
X164846000Y-82550000D03*
X176403000Y-84074000D03*
X179070000Y-86868000D03*
X171704000Y-82550000D03*
%TO.N,GND*%
X162215718Y-85277042D03*
X178054000Y-81534000D03*
X181736000Y-88646000D03*
X157226000Y-90932000D03*
X173736000Y-83312000D03*
X162052000Y-82296000D03*
X193040000Y-94742000D03*
X187452000Y-90170000D03*
%TO.N,RESET*%
X185166000Y-85471000D03*
X163322000Y-86360000D03*
X182168331Y-85481450D03*
X177800000Y-83947000D03*
%TO.N,PB10*%
X169610000Y-90835325D03*
%TO.N,SWDIO*%
X175260000Y-84074000D03*
X175436000Y-85739000D03*
%TO.N,PB6*%
X168310000Y-80342620D03*
%TO.N,BOOT0*%
X160758673Y-80392327D03*
X159115880Y-81295120D03*
%TO.N,VBUS*%
X181356000Y-91186000D03*
%TO.N,/CC1*%
X192278000Y-88392000D03*
%TD*%
%TO.N,PB12*%
D26*
X179336599Y-95526331D02*
X177456331Y-95526331D01*
X179638729Y-95828461D02*
X179336599Y-95526331D01*
%TO.N,PA8*%
X179070000Y-92514383D02*
X178394672Y-91839055D01*
X179842943Y-95180000D02*
X179070000Y-94407057D01*
X191682761Y-95180000D02*
X179842943Y-95180000D01*
X194603000Y-77509000D02*
X194603000Y-92259761D01*
X194603000Y-92259761D02*
X191682761Y-95180000D01*
X194056000Y-76962000D02*
X194603000Y-77509000D01*
X179070000Y-94407057D02*
X179070000Y-92514383D01*
X179578000Y-76962000D02*
X194056000Y-76962000D01*
X177800000Y-78740000D02*
X179578000Y-76962000D01*
%TO.N,PB12*%
X176530000Y-94600000D02*
X177456331Y-95526331D01*
%TO.N,+3V3*%
D27*
X171930000Y-89888000D02*
X171930000Y-90554000D01*
X171450000Y-89408000D02*
X171930000Y-89888000D01*
%TO.N,PB10*%
D26*
X170722154Y-91313000D02*
X175133000Y-91313000D01*
X170244479Y-90835325D02*
X170722154Y-91313000D01*
X169610000Y-90835325D02*
X170244479Y-90835325D01*
%TO.N,VCAP1*%
X170498000Y-92329000D02*
X169799000Y-91630000D01*
X170929000Y-92329000D02*
X170498000Y-92329000D01*
%TO.N,PB10*%
X175133000Y-91313000D02*
X177800000Y-93980000D01*
%TO.N,VBUS*%
D27*
X182642200Y-89507800D02*
X180900743Y-89507800D01*
X183236000Y-88914000D02*
X182642200Y-89507800D01*
%TO.N,PA10*%
D26*
X179901758Y-88461758D02*
X179901758Y-88517980D01*
X179832000Y-88392000D02*
X179901758Y-88461758D01*
X186361306Y-87814000D02*
X180410000Y-87814000D01*
X190728661Y-83446645D02*
X186361306Y-87814000D01*
X180410000Y-87814000D02*
X179832000Y-88392000D01*
X190728661Y-80924339D02*
X190728661Y-83446645D01*
%TO.N,+3V3*%
D27*
X179151758Y-86949758D02*
X179070000Y-86868000D01*
X179151758Y-89353581D02*
X179151758Y-86949758D01*
X178900000Y-89605339D02*
X179151758Y-89353581D01*
%TO.N,PA9*%
D26*
X180299225Y-90157800D02*
X180095512Y-90361513D01*
X190231239Y-85910000D02*
X185983439Y-90157800D01*
X191531239Y-85910000D02*
X190231239Y-85910000D01*
X191912000Y-85529239D02*
X191531239Y-85910000D01*
X191912000Y-84881239D02*
X191912000Y-85529239D01*
X191770000Y-84739239D02*
X191912000Y-84881239D01*
X191912000Y-81188439D02*
X191912000Y-84229239D01*
X191770000Y-84371239D02*
X191770000Y-84739239D01*
X185983439Y-90157800D02*
X180299225Y-90157800D01*
X188263561Y-77540000D02*
X191912000Y-81188439D01*
X191912000Y-84229239D02*
X191770000Y-84371239D01*
X181540000Y-77540000D02*
X188263561Y-77540000D01*
X180340000Y-78740000D02*
X181540000Y-77540000D01*
%TO.N,VBUS*%
D27*
X148989827Y-77869827D02*
X149860000Y-78740000D01*
X146703827Y-77869827D02*
X148989827Y-77869827D01*
%TO.N,PA8*%
D26*
X186500068Y-84481660D02*
X186500068Y-86755999D01*
X183362408Y-81344000D02*
X186500068Y-84481660D01*
X180404000Y-81344000D02*
X183362408Y-81344000D01*
X177800000Y-78740000D02*
X180404000Y-81344000D01*
%TO.N,/CC2*%
X192532000Y-84582000D02*
X193292000Y-84582000D01*
X193292000Y-84582000D02*
X193294000Y-84584000D01*
%TO.N,SWDIO*%
X178300000Y-88572513D02*
X178300000Y-90687322D01*
X178401758Y-88470755D02*
X178300000Y-88572513D01*
X178300000Y-90687322D02*
X179124839Y-91512161D01*
%TO.N,+3V3*%
D27*
X178900000Y-90226661D02*
X178900000Y-89605339D01*
X183376000Y-91936000D02*
X180609339Y-91936000D01*
X180609339Y-91936000D02*
X178900000Y-90226661D01*
X185420000Y-93980000D02*
X183376000Y-91936000D01*
X179070000Y-86868000D02*
X181637339Y-86868000D01*
%TO.N,PB12*%
D26*
X191262000Y-85260000D02*
X191262000Y-83960000D01*
%TO.N,+3V3*%
D27*
X164998000Y-80065000D02*
X164973000Y-80040000D01*
X164998000Y-81156000D02*
X164998000Y-80065000D01*
X164973000Y-80040000D02*
X166946719Y-80040000D01*
X179083000Y-86868000D02*
X181343000Y-84608000D01*
X179070000Y-86868000D02*
X179083000Y-86868000D01*
X181343000Y-84608000D02*
X181343000Y-82169000D01*
%TO.N,BUILTIN_LED*%
D26*
X150980669Y-83042721D02*
X153181390Y-80842000D01*
X150980669Y-87017331D02*
X150980669Y-83042721D01*
X156193472Y-80842000D02*
X159002575Y-83651103D01*
X159002575Y-83651103D02*
X162823852Y-83651103D01*
X153181390Y-80842000D02*
X156193472Y-80842000D01*
%TO.N,+3V3*%
D27*
X176936000Y-86614000D02*
X176936000Y-84607000D01*
X172844000Y-82200000D02*
X172054000Y-82200000D01*
X176936000Y-84607000D02*
X176403000Y-84074000D01*
X172054000Y-82200000D02*
X171704000Y-82550000D01*
X177190000Y-86868000D02*
X176936000Y-86614000D01*
X179070000Y-86868000D02*
X177190000Y-86868000D01*
X162171661Y-80040000D02*
X164973000Y-80040000D01*
X171450000Y-89408000D02*
X172733000Y-89408000D01*
X182982000Y-86868000D02*
X183236000Y-86614000D01*
X172733000Y-89408000D02*
X173352000Y-88789000D01*
X164208000Y-81946000D02*
X164479000Y-81675000D01*
X166946719Y-80040000D02*
X169106719Y-82200000D01*
X154940000Y-78740000D02*
X158245120Y-82045120D01*
X164479000Y-81675000D02*
X164846000Y-82042000D01*
X160166541Y-82045120D02*
X162171661Y-80040000D01*
X164846000Y-82042000D02*
X164846000Y-82550000D01*
X158245120Y-82045120D02*
X160166541Y-82045120D01*
X159285689Y-88392000D02*
X160035689Y-89142000D01*
X154432000Y-88392000D02*
X159285689Y-88392000D01*
X176276000Y-82774000D02*
X175702000Y-82200000D01*
X174761000Y-88789000D02*
X176936000Y-86614000D01*
X169106719Y-82200000D02*
X172844000Y-82200000D01*
X163446000Y-81946000D02*
X164208000Y-81946000D01*
X175702000Y-82200000D02*
X172844000Y-82200000D01*
X164479000Y-81675000D02*
X164998000Y-81156000D01*
X181637339Y-86868000D02*
X182982000Y-86868000D01*
X173352000Y-88789000D02*
X174761000Y-88789000D01*
%TO.N,RESET*%
D26*
X163322000Y-86360000D02*
X171704000Y-86360000D01*
X174640000Y-83424000D02*
X177277000Y-83424000D01*
X171704000Y-86360000D02*
X174640000Y-83424000D01*
X177277000Y-83424000D02*
X177800000Y-83947000D01*
X182178781Y-85471000D02*
X182168331Y-85481450D01*
X185166000Y-85471000D02*
X182178781Y-85471000D01*
%TO.N,SWDIO*%
X175436000Y-84250000D02*
X175260000Y-84074000D01*
X175436000Y-85739000D02*
X175436000Y-84250000D01*
%TO.N,PB6*%
X168840000Y-79812620D02*
X168840000Y-78242943D01*
X168067057Y-77470000D02*
X166370000Y-77470000D01*
X168310000Y-80342620D02*
X168840000Y-79812620D01*
X168840000Y-78242943D02*
X168067057Y-77470000D01*
X166370000Y-77470000D02*
X165100000Y-78740000D01*
%TO.N,BOOT0*%
X159855880Y-81295120D02*
X160758673Y-80392327D01*
X159115880Y-81295120D02*
X159855880Y-81295120D01*
%TO.N,VBUS*%
D27*
X182105000Y-91186000D02*
X182359000Y-90932000D01*
X181356000Y-91186000D02*
X182105000Y-91186000D01*
%TO.N,/CC1*%
D26*
X192278000Y-88392000D02*
X193294000Y-88392000D01*
%TD*%
%TA.AperFunction,Conductor*%
%TO.N,GND*%
G36*
X179190842Y-76505521D02*
G01*
X179201695Y-76508707D01*
X179260476Y-76546477D01*
X179289505Y-76610031D01*
X179279566Y-76679190D01*
X179279565Y-76679192D01*
X179276380Y-76686167D01*
X179251264Y-76722342D01*
X178312206Y-77661398D01*
X178283950Y-77682550D01*
X178268967Y-77690731D01*
X178203355Y-77705744D01*
X178198612Y-77705507D01*
X178190058Y-77705079D01*
X178157932Y-77699165D01*
X178057698Y-77666597D01*
X177926271Y-77645781D01*
X177910407Y-77643268D01*
X177886614Y-77639500D01*
X177886611Y-77639500D01*
X177713389Y-77639500D01*
X177713388Y-77639500D01*
X177673726Y-77645781D01*
X177673725Y-77645780D01*
X177542304Y-77666596D01*
X177377549Y-77720129D01*
X177223210Y-77798768D01*
X177143256Y-77856859D01*
X177143255Y-77856859D01*
X177103122Y-77886017D01*
X177103116Y-77886022D01*
X177083072Y-77900586D01*
X177083070Y-77900588D01*
X177083069Y-77900588D01*
X176960588Y-78023069D01*
X176960588Y-78023070D01*
X176960586Y-78023072D01*
X176946693Y-78042194D01*
X176941163Y-78049804D01*
X176941163Y-78049805D01*
X176858768Y-78163210D01*
X176780101Y-78317604D01*
X176779629Y-78318547D01*
X176778548Y-78322411D01*
X176762981Y-78370324D01*
X176762980Y-78370327D01*
X176726596Y-78482301D01*
X176699500Y-78653383D01*
X176699500Y-78826614D01*
X176719380Y-78952131D01*
X176726578Y-78997580D01*
X176726598Y-78997701D01*
X176780127Y-79162445D01*
X176858768Y-79316788D01*
X176960586Y-79456928D01*
X177083072Y-79579414D01*
X177223212Y-79681232D01*
X177377555Y-79759873D01*
X177542299Y-79813402D01*
X177713389Y-79840500D01*
X177713390Y-79840500D01*
X177886610Y-79840500D01*
X177886611Y-79840500D01*
X178057701Y-79813402D01*
X178156648Y-79781250D01*
X178191426Y-79775233D01*
X178208485Y-79774746D01*
X178273764Y-79791158D01*
X178285314Y-79797790D01*
X178311249Y-79817642D01*
X180158087Y-81664480D01*
X180225671Y-81703500D01*
X180225672Y-81703501D01*
X180247305Y-81715991D01*
X180247319Y-81715999D01*
X180249412Y-81717207D01*
X180249414Y-81717207D01*
X180249415Y-81717208D01*
X180279676Y-81725316D01*
X180351273Y-81744500D01*
X180456727Y-81744500D01*
X180500761Y-81744500D01*
X180535697Y-81749523D01*
X180550695Y-81753927D01*
X180608847Y-81790986D01*
X180608869Y-81791011D01*
X180637609Y-81849821D01*
X180638906Y-81856659D01*
X180632059Y-81926193D01*
X180588707Y-81980986D01*
X180522613Y-82003643D01*
X180506782Y-82003339D01*
X180446565Y-81998321D01*
X180443459Y-81998080D01*
X180443369Y-81998073D01*
X180443337Y-81998071D01*
X180440667Y-81997878D01*
X180440666Y-81997878D01*
X180350767Y-82004718D01*
X180282648Y-82020240D01*
X180282645Y-82020240D01*
X180282645Y-82020241D01*
X180224381Y-82039863D01*
X180224378Y-82039864D01*
X180224375Y-82039866D01*
X180132385Y-82104217D01*
X180083469Y-82154104D01*
X180083462Y-82154113D01*
X180032043Y-82224228D01*
X179425849Y-83360845D01*
X179215883Y-83754533D01*
X179175712Y-83829853D01*
X179126795Y-83879742D01*
X179066300Y-83895500D01*
X178451268Y-83895500D01*
X178384229Y-83875815D01*
X178338474Y-83823011D01*
X178331495Y-83803599D01*
X178312984Y-83734515D01*
X178288516Y-83692136D01*
X178240511Y-83608988D01*
X178240506Y-83608982D01*
X178240493Y-83608968D01*
X178138030Y-83506505D01*
X178138014Y-83506490D01*
X178138006Y-83506485D01*
X178084243Y-83475445D01*
X178055808Y-83445624D01*
X178001007Y-83430939D01*
X178001007Y-83430940D01*
X177920991Y-83409500D01*
X177872475Y-83396500D01*
X177872474Y-83396500D01*
X177872384Y-83396476D01*
X177853793Y-83392547D01*
X177824907Y-83384065D01*
X177772162Y-83352769D01*
X177522915Y-83103522D01*
X177522913Y-83103520D01*
X177454955Y-83064284D01*
X177454955Y-83064283D01*
X177454953Y-83064283D01*
X177431590Y-83050793D01*
X177389539Y-83039526D01*
X177380657Y-83037146D01*
X177380656Y-83037145D01*
X177329730Y-83023500D01*
X177329727Y-83023500D01*
X177329726Y-83023500D01*
X176958496Y-83023500D01*
X176923557Y-83018476D01*
X176910239Y-83014565D01*
X176851462Y-82976789D01*
X176822441Y-82913240D01*
X176821230Y-82904819D01*
X176824194Y-82855078D01*
X176826500Y-82846475D01*
X176826500Y-82701525D01*
X176788984Y-82561515D01*
X176779989Y-82545936D01*
X176773041Y-82533902D01*
X176716513Y-82435991D01*
X176716508Y-82435984D01*
X176716503Y-82435979D01*
X176676005Y-82395481D01*
X176614017Y-82333493D01*
X176614015Y-82333491D01*
X176514253Y-82275893D01*
X176484618Y-82258783D01*
X176471328Y-82251420D01*
X176451050Y-82237870D01*
X176432270Y-82222456D01*
X176009316Y-81799502D01*
X176009314Y-81799500D01*
X175941054Y-81760090D01*
X175941054Y-81760089D01*
X175941052Y-81760089D01*
X175930379Y-81753927D01*
X175895187Y-81733608D01*
X175887745Y-81731614D01*
X175782823Y-81703500D01*
X175782820Y-81703500D01*
X175767892Y-81699500D01*
X175767891Y-81699500D01*
X175767890Y-81699500D01*
X173211074Y-81699500D01*
X173182127Y-81696074D01*
X173173750Y-81694063D01*
X173151744Y-81688779D01*
X173140437Y-81685105D01*
X173140348Y-81685374D01*
X173136168Y-81683980D01*
X173061939Y-81672224D01*
X173044735Y-81669500D01*
X173044734Y-81669500D01*
X172619571Y-81669500D01*
X172610418Y-81674497D01*
X172603467Y-81675802D01*
X172551824Y-81683981D01*
X172543105Y-81686778D01*
X172534190Y-81689274D01*
X172505873Y-81696073D01*
X172476923Y-81699500D01*
X169383224Y-81699500D01*
X169348288Y-81694477D01*
X169323046Y-81687065D01*
X169270301Y-81655769D01*
X168616172Y-81001639D01*
X168595023Y-80973389D01*
X168588368Y-80961201D01*
X168573517Y-80892931D01*
X168597931Y-80827470D01*
X168603034Y-80820653D01*
X168640296Y-80787585D01*
X168648015Y-80783129D01*
X168750509Y-80680635D01*
X168822984Y-80555105D01*
X168860500Y-80415095D01*
X168860500Y-80415089D01*
X168860525Y-80414996D01*
X168864449Y-80396424D01*
X168872935Y-80367524D01*
X168904227Y-80314785D01*
X168997886Y-80221127D01*
X169160480Y-80058533D01*
X169213207Y-79967208D01*
X169240500Y-79865347D01*
X169240500Y-79759893D01*
X169240500Y-79674033D01*
X169245521Y-79639106D01*
X169247652Y-79631848D01*
X169248707Y-79628251D01*
X169286477Y-79569472D01*
X169350031Y-79540443D01*
X169419186Y-79550381D01*
X169426172Y-79553571D01*
X169459170Y-79576481D01*
X169459368Y-79576250D01*
X169461678Y-79578223D01*
X169462342Y-79578684D01*
X169463072Y-79579414D01*
X169603212Y-79681232D01*
X169757555Y-79759873D01*
X169922299Y-79813402D01*
X170093389Y-79840500D01*
X170093390Y-79840500D01*
X170266610Y-79840500D01*
X170266611Y-79840500D01*
X170437701Y-79813402D01*
X170602445Y-79759873D01*
X170756788Y-79681232D01*
X170896928Y-79579414D01*
X171019414Y-79456928D01*
X171121232Y-79316788D01*
X171199873Y-79162445D01*
X171253402Y-78997701D01*
X171280500Y-78826611D01*
X171280500Y-78653389D01*
X171280499Y-78653383D01*
X171619500Y-78653383D01*
X171619500Y-78826614D01*
X171639380Y-78952131D01*
X171646578Y-78997580D01*
X171646598Y-78997701D01*
X171700127Y-79162445D01*
X171778768Y-79316788D01*
X171880586Y-79456928D01*
X172003072Y-79579414D01*
X172143212Y-79681232D01*
X172297555Y-79759873D01*
X172462299Y-79813402D01*
X172633389Y-79840500D01*
X172633390Y-79840500D01*
X172806610Y-79840500D01*
X172806611Y-79840500D01*
X172977701Y-79813402D01*
X173142445Y-79759873D01*
X173296788Y-79681232D01*
X173436928Y-79579414D01*
X173559414Y-79456928D01*
X173661232Y-79316788D01*
X173739873Y-79162445D01*
X173793402Y-78997701D01*
X173820500Y-78826611D01*
X173820500Y-78653389D01*
X173820499Y-78653383D01*
X174159500Y-78653383D01*
X174159500Y-78826614D01*
X174179380Y-78952131D01*
X174186578Y-78997580D01*
X174186598Y-78997701D01*
X174240127Y-79162445D01*
X174318768Y-79316788D01*
X174420586Y-79456928D01*
X174543072Y-79579414D01*
X174683212Y-79681232D01*
X174837555Y-79759873D01*
X175002299Y-79813402D01*
X175173389Y-79840500D01*
X175173390Y-79840500D01*
X175346610Y-79840500D01*
X175346611Y-79840500D01*
X175517701Y-79813402D01*
X175682445Y-79759873D01*
X175836788Y-79681232D01*
X175976928Y-79579414D01*
X176099414Y-79456928D01*
X176201232Y-79316788D01*
X176279873Y-79162445D01*
X176333402Y-78997701D01*
X176360500Y-78826611D01*
X176360500Y-78653389D01*
X176333402Y-78482299D01*
X176279873Y-78317555D01*
X176201232Y-78163212D01*
X176099414Y-78023072D01*
X175976928Y-77900586D01*
X175836788Y-77798768D01*
X175824011Y-77792258D01*
X175682449Y-77720128D01*
X175526532Y-77669467D01*
X175522010Y-77667614D01*
X175512820Y-77665444D01*
X175508057Y-77665070D01*
X175481198Y-77660816D01*
X175386271Y-77645781D01*
X175370407Y-77643268D01*
X175346614Y-77639500D01*
X175346611Y-77639500D01*
X175173389Y-77639500D01*
X175173388Y-77639500D01*
X175133726Y-77645781D01*
X175133725Y-77645780D01*
X175002304Y-77666596D01*
X174837549Y-77720129D01*
X174683210Y-77798768D01*
X174603256Y-77856859D01*
X174603255Y-77856859D01*
X174563122Y-77886017D01*
X174563116Y-77886022D01*
X174543072Y-77900586D01*
X174543070Y-77900588D01*
X174543069Y-77900588D01*
X174420588Y-78023069D01*
X174420588Y-78023070D01*
X174420586Y-78023072D01*
X174406693Y-78042194D01*
X174401163Y-78049804D01*
X174401163Y-78049805D01*
X174318768Y-78163210D01*
X174240101Y-78317604D01*
X174239629Y-78318547D01*
X174238548Y-78322411D01*
X174222981Y-78370324D01*
X174222980Y-78370327D01*
X174186596Y-78482301D01*
X174159500Y-78653383D01*
X173820499Y-78653383D01*
X173793402Y-78482299D01*
X173739873Y-78317555D01*
X173661232Y-78163212D01*
X173559414Y-78023072D01*
X173436928Y-77900586D01*
X173296788Y-77798768D01*
X173284011Y-77792258D01*
X173142449Y-77720128D01*
X172986532Y-77669467D01*
X172982010Y-77667614D01*
X172972820Y-77665444D01*
X172968057Y-77665070D01*
X172941198Y-77660816D01*
X172846271Y-77645781D01*
X172830407Y-77643268D01*
X172806614Y-77639500D01*
X172806611Y-77639500D01*
X172633389Y-77639500D01*
X172633388Y-77639500D01*
X172593726Y-77645781D01*
X172593725Y-77645780D01*
X172462304Y-77666596D01*
X172297549Y-77720129D01*
X172143210Y-77798768D01*
X172063256Y-77856859D01*
X172063255Y-77856859D01*
X172023122Y-77886017D01*
X172023116Y-77886022D01*
X172003072Y-77900586D01*
X172003070Y-77900588D01*
X172003069Y-77900588D01*
X171880588Y-78023069D01*
X171880588Y-78023070D01*
X171880586Y-78023072D01*
X171866693Y-78042194D01*
X171861163Y-78049804D01*
X171861163Y-78049805D01*
X171778768Y-78163210D01*
X171700101Y-78317604D01*
X171699629Y-78318547D01*
X171698548Y-78322411D01*
X171682981Y-78370324D01*
X171682980Y-78370327D01*
X171646596Y-78482301D01*
X171619500Y-78653383D01*
X171280499Y-78653383D01*
X171253402Y-78482299D01*
X171199873Y-78317555D01*
X171121232Y-78163212D01*
X171019414Y-78023072D01*
X170896928Y-77900586D01*
X170756788Y-77798768D01*
X170744011Y-77792258D01*
X170602449Y-77720128D01*
X170446532Y-77669467D01*
X170442010Y-77667614D01*
X170432820Y-77665444D01*
X170428057Y-77665070D01*
X170401198Y-77660816D01*
X170306271Y-77645781D01*
X170290407Y-77643268D01*
X170266614Y-77639500D01*
X170266611Y-77639500D01*
X170093389Y-77639500D01*
X170093388Y-77639500D01*
X170053726Y-77645781D01*
X170053725Y-77645780D01*
X169922304Y-77666596D01*
X169757549Y-77720129D01*
X169603210Y-77798768D01*
X169463074Y-77900584D01*
X169362572Y-78001086D01*
X169334315Y-78022238D01*
X169321916Y-78029008D01*
X169253643Y-78043858D01*
X169188772Y-78019880D01*
X169175320Y-78009934D01*
X169161359Y-77997909D01*
X168312972Y-77149522D01*
X168312970Y-77149520D01*
X168302176Y-77143288D01*
X168267307Y-77123155D01*
X168267307Y-77123156D01*
X168221646Y-77096793D01*
X168170714Y-77083146D01*
X168170713Y-77083145D01*
X168119787Y-77069500D01*
X168119784Y-77069500D01*
X166422727Y-77069500D01*
X166317273Y-77069500D01*
X166317271Y-77069500D01*
X166215411Y-77096792D01*
X166215408Y-77096793D01*
X166124097Y-77149513D01*
X166124083Y-77149522D01*
X166124078Y-77149526D01*
X165612206Y-77661398D01*
X165583950Y-77682550D01*
X165568967Y-77690731D01*
X165503355Y-77705744D01*
X165498612Y-77705507D01*
X165490058Y-77705079D01*
X165457932Y-77699165D01*
X165357698Y-77666597D01*
X165226271Y-77645781D01*
X165210407Y-77643268D01*
X165186614Y-77639500D01*
X165186611Y-77639500D01*
X165013389Y-77639500D01*
X165013388Y-77639500D01*
X164973726Y-77645781D01*
X164973725Y-77645780D01*
X164842304Y-77666596D01*
X164677549Y-77720129D01*
X164523210Y-77798768D01*
X164443256Y-77856859D01*
X164443255Y-77856859D01*
X164403122Y-77886017D01*
X164403116Y-77886022D01*
X164383072Y-77900586D01*
X164383070Y-77900588D01*
X164383069Y-77900588D01*
X164260588Y-78023069D01*
X164260588Y-78023070D01*
X164260586Y-78023072D01*
X164246693Y-78042194D01*
X164241163Y-78049804D01*
X164241163Y-78049805D01*
X164158768Y-78163210D01*
X164080101Y-78317604D01*
X164079629Y-78318547D01*
X164078548Y-78322411D01*
X164062981Y-78370324D01*
X164062980Y-78370327D01*
X164026596Y-78482301D01*
X163999500Y-78653383D01*
X163999500Y-78826614D01*
X164019380Y-78952131D01*
X164026578Y-78997580D01*
X164026598Y-78997701D01*
X164080127Y-79162445D01*
X164158768Y-79316788D01*
X164162650Y-79322131D01*
X164167059Y-79328201D01*
X164183524Y-79359408D01*
X164187874Y-79371599D01*
X164191864Y-79441354D01*
X164157508Y-79502194D01*
X164100899Y-79533634D01*
X164091900Y-79535863D01*
X164062087Y-79539500D01*
X163600616Y-79539500D01*
X163565678Y-79534476D01*
X163553252Y-79530827D01*
X163494475Y-79493051D01*
X163465452Y-79429494D01*
X163473297Y-79365207D01*
X163476785Y-79356617D01*
X163491358Y-79330378D01*
X163492781Y-79328419D01*
X163501232Y-79316788D01*
X163579873Y-79162445D01*
X163633402Y-78997701D01*
X163660500Y-78826611D01*
X163660500Y-78653389D01*
X163633402Y-78482299D01*
X163579873Y-78317555D01*
X163501232Y-78163212D01*
X163399414Y-78023072D01*
X163276928Y-77900586D01*
X163136788Y-77798768D01*
X163124011Y-77792258D01*
X162982449Y-77720128D01*
X162826532Y-77669467D01*
X162822010Y-77667614D01*
X162812820Y-77665444D01*
X162808057Y-77665070D01*
X162781198Y-77660816D01*
X162686271Y-77645781D01*
X162670407Y-77643268D01*
X162646614Y-77639500D01*
X162646611Y-77639500D01*
X162473389Y-77639500D01*
X162473388Y-77639500D01*
X162433726Y-77645781D01*
X162433725Y-77645780D01*
X162302304Y-77666596D01*
X162137549Y-77720129D01*
X161983210Y-77798768D01*
X161903256Y-77856859D01*
X161903255Y-77856859D01*
X161863122Y-77886017D01*
X161863116Y-77886022D01*
X161843072Y-77900586D01*
X161843070Y-77900588D01*
X161843069Y-77900588D01*
X161720588Y-78023069D01*
X161720588Y-78023070D01*
X161720586Y-78023072D01*
X161706693Y-78042194D01*
X161701163Y-78049804D01*
X161701163Y-78049805D01*
X161618768Y-78163210D01*
X161540101Y-78317604D01*
X161539629Y-78318547D01*
X161538548Y-78322411D01*
X161522981Y-78370324D01*
X161522980Y-78370327D01*
X161486596Y-78482301D01*
X161459500Y-78653383D01*
X161459500Y-78826614D01*
X161479380Y-78952131D01*
X161486578Y-78997580D01*
X161486598Y-78997701D01*
X161540127Y-79162445D01*
X161618768Y-79316788D01*
X161720586Y-79456928D01*
X161720588Y-79456930D01*
X161783463Y-79519805D01*
X161804615Y-79548061D01*
X161812107Y-79561782D01*
X161826959Y-79630042D01*
X161826830Y-79631848D01*
X161807462Y-79690051D01*
X161803281Y-79696557D01*
X161786645Y-79717200D01*
X161417692Y-80086152D01*
X161389439Y-80107303D01*
X161377257Y-80113955D01*
X161308984Y-80128807D01*
X161243521Y-80104391D01*
X161243518Y-80104389D01*
X161236712Y-80099294D01*
X161203627Y-80062012D01*
X161201618Y-80058531D01*
X161201618Y-80058532D01*
X161199182Y-80054312D01*
X161096688Y-79951818D01*
X161096686Y-79951817D01*
X161096684Y-79951815D01*
X161096546Y-79951677D01*
X161096241Y-79951450D01*
X161093475Y-79949962D01*
X161042915Y-79920771D01*
X161014481Y-79890951D01*
X160951591Y-79874100D01*
X160951590Y-79874099D01*
X160850965Y-79847137D01*
X160831148Y-79841827D01*
X160831147Y-79841827D01*
X160775210Y-79841827D01*
X160740275Y-79836804D01*
X160729421Y-79833617D01*
X160670643Y-79795843D01*
X160641618Y-79732287D01*
X160651560Y-79663134D01*
X160652850Y-79660308D01*
X160692755Y-79611506D01*
X160736928Y-79579414D01*
X160859414Y-79456928D01*
X160961232Y-79316788D01*
X161039873Y-79162445D01*
X161093402Y-78997701D01*
X161120500Y-78826611D01*
X161120500Y-78653389D01*
X161093402Y-78482299D01*
X161039873Y-78317555D01*
X160961232Y-78163212D01*
X160859414Y-78023072D01*
X160736928Y-77900586D01*
X160596788Y-77798768D01*
X160584011Y-77792258D01*
X160442449Y-77720128D01*
X160286532Y-77669467D01*
X160282010Y-77667614D01*
X160272820Y-77665444D01*
X160268057Y-77665070D01*
X160241198Y-77660816D01*
X160146271Y-77645781D01*
X160130407Y-77643268D01*
X160106614Y-77639500D01*
X160106611Y-77639500D01*
X159933389Y-77639500D01*
X159933388Y-77639500D01*
X159893726Y-77645781D01*
X159893725Y-77645780D01*
X159762304Y-77666596D01*
X159597549Y-77720129D01*
X159443210Y-77798768D01*
X159363256Y-77856859D01*
X159363255Y-77856859D01*
X159323122Y-77886017D01*
X159323116Y-77886022D01*
X159303072Y-77900586D01*
X159303070Y-77900588D01*
X159303069Y-77900588D01*
X159180588Y-78023069D01*
X159180588Y-78023070D01*
X159180586Y-78023072D01*
X159166693Y-78042194D01*
X159161163Y-78049804D01*
X159161163Y-78049805D01*
X159078768Y-78163210D01*
X159000101Y-78317604D01*
X158999629Y-78318547D01*
X158998548Y-78322411D01*
X158982981Y-78370324D01*
X158982980Y-78370327D01*
X158946596Y-78482301D01*
X158919500Y-78653383D01*
X158919500Y-78826614D01*
X158939380Y-78952131D01*
X158946578Y-78997580D01*
X158946598Y-78997701D01*
X159000127Y-79162445D01*
X159078768Y-79316788D01*
X159180586Y-79456928D01*
X159303072Y-79579414D01*
X159443212Y-79681232D01*
X159597555Y-79759873D01*
X159762299Y-79813402D01*
X159933389Y-79840500D01*
X159933390Y-79840500D01*
X160106609Y-79840500D01*
X160106610Y-79840500D01*
X160106611Y-79840500D01*
X160217492Y-79822937D01*
X160252762Y-79822433D01*
X160263992Y-79823884D01*
X160327952Y-79851996D01*
X160366562Y-79910228D01*
X160367561Y-79980090D01*
X160367560Y-79980095D01*
X160366729Y-79983082D01*
X160334949Y-80037526D01*
X160318164Y-80054311D01*
X160318158Y-80054318D01*
X160245690Y-80179836D01*
X160245662Y-80179905D01*
X160245421Y-80180838D01*
X160208145Y-80319955D01*
X160204220Y-80338533D01*
X160195738Y-80367419D01*
X160164442Y-80420164D01*
X159738913Y-80845693D01*
X159710662Y-80866842D01*
X159687574Y-80879450D01*
X159628144Y-80894620D01*
X159563096Y-80894620D01*
X159528160Y-80889597D01*
X159502676Y-80882114D01*
X159458522Y-80857254D01*
X159458248Y-80857648D01*
X159456206Y-80856223D01*
X159456052Y-80856409D01*
X159454032Y-80854726D01*
X159454004Y-80854710D01*
X159453894Y-80854610D01*
X159453886Y-80854605D01*
X159400123Y-80823565D01*
X159371688Y-80793744D01*
X159316887Y-80779059D01*
X159316887Y-80779060D01*
X159223044Y-80753915D01*
X159188355Y-80744620D01*
X159188354Y-80744620D01*
X159043405Y-80744620D01*
X158914874Y-80779059D01*
X158914873Y-80779060D01*
X158907218Y-80781111D01*
X158903390Y-80782137D01*
X158777871Y-80854605D01*
X158777864Y-80854610D01*
X158777848Y-80854625D01*
X158675385Y-80957088D01*
X158675370Y-80957104D01*
X158675365Y-80957112D01*
X158602897Y-81082629D01*
X158602869Y-81082698D01*
X158602628Y-81083631D01*
X158565380Y-81222645D01*
X158565380Y-81340374D01*
X158560356Y-81375312D01*
X158557169Y-81386165D01*
X158519394Y-81444942D01*
X158455837Y-81473965D01*
X158386687Y-81464024D01*
X158379709Y-81460837D01*
X158343537Y-81435723D01*
X156828881Y-79921067D01*
X156807731Y-79892815D01*
X156804400Y-79886715D01*
X156789547Y-79818442D01*
X156813962Y-79752977D01*
X156869895Y-79711105D01*
X156937851Y-79705755D01*
X156943656Y-79706931D01*
X156975330Y-79717977D01*
X156996545Y-79728786D01*
X157057550Y-79759871D01*
X157057552Y-79759871D01*
X157057555Y-79759873D01*
X157222299Y-79813402D01*
X157393389Y-79840500D01*
X157393390Y-79840500D01*
X157566610Y-79840500D01*
X157566611Y-79840500D01*
X157737701Y-79813402D01*
X157902445Y-79759873D01*
X158056788Y-79681232D01*
X158196928Y-79579414D01*
X158319414Y-79456928D01*
X158421232Y-79316788D01*
X158499873Y-79162445D01*
X158553402Y-78997701D01*
X158580500Y-78826611D01*
X158580500Y-78653389D01*
X158553402Y-78482299D01*
X158499873Y-78317555D01*
X158421232Y-78163212D01*
X158319414Y-78023072D01*
X158196928Y-77900586D01*
X158056788Y-77798768D01*
X158044011Y-77792258D01*
X157902449Y-77720128D01*
X157746532Y-77669467D01*
X157742010Y-77667614D01*
X157732820Y-77665444D01*
X157728057Y-77665070D01*
X157701198Y-77660816D01*
X157606271Y-77645781D01*
X157590407Y-77643268D01*
X157566614Y-77639500D01*
X157566611Y-77639500D01*
X157393389Y-77639500D01*
X157393388Y-77639500D01*
X157353726Y-77645781D01*
X157353725Y-77645780D01*
X157222304Y-77666596D01*
X157057549Y-77720129D01*
X156903210Y-77798768D01*
X156823256Y-77856859D01*
X156823255Y-77856859D01*
X156783122Y-77886017D01*
X156783116Y-77886022D01*
X156763072Y-77900586D01*
X156763070Y-77900588D01*
X156763069Y-77900588D01*
X156640588Y-78023069D01*
X156640588Y-78023070D01*
X156640586Y-78023072D01*
X156626693Y-78042194D01*
X156621163Y-78049804D01*
X156621163Y-78049805D01*
X156538768Y-78163210D01*
X156460101Y-78317604D01*
X156459629Y-78318547D01*
X156458548Y-78322411D01*
X156442981Y-78370324D01*
X156442980Y-78370327D01*
X156406596Y-78482301D01*
X156379500Y-78653383D01*
X156379500Y-78826614D01*
X156399380Y-78952131D01*
X156406578Y-78997580D01*
X156406598Y-78997701D01*
X156450514Y-79132861D01*
X156452867Y-79140101D01*
X156460127Y-79162446D01*
X156501610Y-79243862D01*
X156512997Y-79277284D01*
X156514279Y-79284115D01*
X156507298Y-79353635D01*
X156463840Y-79408344D01*
X156397702Y-79430874D01*
X156331421Y-79414953D01*
X156326264Y-79412040D01*
X156299569Y-79391755D01*
X156053282Y-79145468D01*
X156032133Y-79117218D01*
X156023949Y-79102230D01*
X156008937Y-79036610D01*
X156009644Y-79022472D01*
X156012917Y-78999722D01*
X156013402Y-78997701D01*
X156020620Y-78952131D01*
X156040500Y-78826611D01*
X156040500Y-78653389D01*
X156013402Y-78482299D01*
X155959873Y-78317555D01*
X155881232Y-78163212D01*
X155779414Y-78023072D01*
X155656928Y-77900586D01*
X155516788Y-77798768D01*
X155504011Y-77792258D01*
X155362449Y-77720128D01*
X155206532Y-77669467D01*
X155202010Y-77667614D01*
X155192820Y-77665444D01*
X155188057Y-77665070D01*
X155161198Y-77660816D01*
X155066271Y-77645781D01*
X155050407Y-77643268D01*
X155026614Y-77639500D01*
X155026611Y-77639500D01*
X154853389Y-77639500D01*
X154853388Y-77639500D01*
X154813726Y-77645781D01*
X154813725Y-77645780D01*
X154682304Y-77666596D01*
X154517549Y-77720129D01*
X154363210Y-77798768D01*
X154283256Y-77856859D01*
X154283255Y-77856859D01*
X154243122Y-77886017D01*
X154243116Y-77886022D01*
X154223072Y-77900586D01*
X154223070Y-77900588D01*
X154223069Y-77900588D01*
X154100588Y-78023069D01*
X154100588Y-78023070D01*
X154100586Y-78023072D01*
X154086693Y-78042194D01*
X154081163Y-78049804D01*
X154081163Y-78049805D01*
X153998768Y-78163210D01*
X153920101Y-78317604D01*
X153919629Y-78318547D01*
X153918548Y-78322411D01*
X153902981Y-78370324D01*
X153902980Y-78370327D01*
X153866596Y-78482301D01*
X153839500Y-78653383D01*
X153839500Y-78826614D01*
X153859380Y-78952131D01*
X153866578Y-78997580D01*
X153866598Y-78997701D01*
X153920127Y-79162445D01*
X153998768Y-79316788D01*
X154100586Y-79456928D01*
X154223072Y-79579414D01*
X154363212Y-79681232D01*
X154517555Y-79759873D01*
X154682299Y-79813402D01*
X154853389Y-79840500D01*
X154853390Y-79840500D01*
X155026610Y-79840500D01*
X155026611Y-79840500D01*
X155197684Y-79813405D01*
X155197687Y-79813404D01*
X155197701Y-79813402D01*
X155197713Y-79813398D01*
X155197978Y-79813335D01*
X155198926Y-79813208D01*
X155202518Y-79812640D01*
X155202532Y-79812729D01*
X155223407Y-79809952D01*
X155241749Y-79809427D01*
X155307025Y-79825841D01*
X155318571Y-79832470D01*
X155344511Y-79852325D01*
X155709397Y-80217211D01*
X155730546Y-80245461D01*
X155735967Y-80255388D01*
X155750821Y-80323661D01*
X155726407Y-80389126D01*
X155670475Y-80430999D01*
X155670471Y-80431001D01*
X155663283Y-80433682D01*
X155619949Y-80441500D01*
X153128663Y-80441500D01*
X153026807Y-80468791D01*
X153026798Y-80468795D01*
X153019527Y-80472992D01*
X153019528Y-80472993D01*
X152977587Y-80497208D01*
X152977583Y-80497210D01*
X152965076Y-80504429D01*
X152965077Y-80504430D01*
X152935477Y-80521518D01*
X152935475Y-80521520D01*
X150660195Y-82796799D01*
X150660187Y-82796809D01*
X150660177Y-82796825D01*
X150619792Y-82866773D01*
X150610275Y-82877625D01*
X150604273Y-82900031D01*
X150595394Y-82933174D01*
X150594292Y-82937286D01*
X150594291Y-82937290D01*
X150580169Y-82989994D01*
X150580169Y-86570115D01*
X150575145Y-86605053D01*
X150567662Y-86630535D01*
X150542804Y-86674688D01*
X150543197Y-86674962D01*
X150541777Y-86676996D01*
X150541963Y-86677151D01*
X150540283Y-86679166D01*
X150540265Y-86679199D01*
X150540164Y-86679308D01*
X150540163Y-86679310D01*
X150540154Y-86679323D01*
X150467686Y-86804840D01*
X150467658Y-86804909D01*
X150467417Y-86805842D01*
X150430615Y-86943190D01*
X150430169Y-86944856D01*
X150430169Y-87089806D01*
X150431296Y-87094013D01*
X150452559Y-87173368D01*
X150467685Y-87229817D01*
X150467687Y-87229822D01*
X150538304Y-87352133D01*
X150539792Y-87354899D01*
X150540022Y-87355208D01*
X150642654Y-87457840D01*
X150643343Y-87458336D01*
X150645847Y-87459684D01*
X150764738Y-87528326D01*
X150767756Y-87530200D01*
X150768183Y-87530314D01*
X150768184Y-87530315D01*
X150908194Y-87567831D01*
X150908197Y-87567831D01*
X151053141Y-87567831D01*
X151053144Y-87567831D01*
X151193154Y-87530315D01*
X151318684Y-87457840D01*
X151421178Y-87355346D01*
X151493653Y-87229816D01*
X151531169Y-87089806D01*
X151531169Y-86944856D01*
X151493653Y-86804846D01*
X151493650Y-86804840D01*
X151491147Y-86800505D01*
X151491144Y-86800500D01*
X151423802Y-86683861D01*
X151421180Y-86679319D01*
X151421175Y-86679313D01*
X151418140Y-86674962D01*
X151418556Y-86674671D01*
X151410510Y-86662847D01*
X151396335Y-86636887D01*
X151381169Y-86577463D01*
X151381169Y-83277804D01*
X151386192Y-83242869D01*
X151393604Y-83217626D01*
X151424898Y-83164882D01*
X152213996Y-82375784D01*
X152242253Y-82354633D01*
X152242836Y-82354315D01*
X152244324Y-82353502D01*
X152253618Y-82348428D01*
X152321891Y-82333579D01*
X152387355Y-82358000D01*
X152427257Y-82408991D01*
X152430865Y-82417528D01*
X152439120Y-82446402D01*
X152464751Y-82608229D01*
X152464751Y-82608233D01*
X152464753Y-82608238D01*
X152464759Y-82608259D01*
X152478728Y-82651251D01*
X152525604Y-82795521D01*
X152530324Y-82810046D01*
X152530445Y-82810417D01*
X152530446Y-82810418D01*
X152626951Y-82999820D01*
X152751890Y-83171786D01*
X152751892Y-83171788D01*
X152902216Y-83322112D01*
X153074180Y-83447050D01*
X153074376Y-83447149D01*
X153163629Y-83492625D01*
X153192478Y-83512963D01*
X153202567Y-83522492D01*
X153237788Y-83582834D01*
X153234794Y-83652638D01*
X153232540Y-83659252D01*
X153202850Y-83706934D01*
X153155256Y-83754527D01*
X153155248Y-83754536D01*
X153155245Y-83754541D01*
X153045818Y-83918308D01*
X153045808Y-83918325D01*
X153045803Y-83918334D01*
X152970430Y-84100305D01*
X152970421Y-84100344D01*
X152942244Y-84241998D01*
X152942245Y-84241999D01*
X152942246Y-84242000D01*
X153908000Y-84242000D01*
X153975039Y-84261685D01*
X154020794Y-84314489D01*
X154032000Y-84366000D01*
X154032000Y-84418000D01*
X154012315Y-84485039D01*
X153959511Y-84530794D01*
X153908000Y-84542000D01*
X152942245Y-84542000D01*
X152970421Y-84683654D01*
X152970430Y-84683693D01*
X153045803Y-84865664D01*
X153045808Y-84865673D01*
X153045818Y-84865690D01*
X153155249Y-85029464D01*
X153155250Y-85029465D01*
X153155255Y-85029471D01*
X153294527Y-85168743D01*
X153294533Y-85168748D01*
X153294534Y-85168749D01*
X153446664Y-85270400D01*
X153455564Y-85276938D01*
X153478531Y-85295440D01*
X153518388Y-85352826D01*
X153520893Y-85422651D01*
X153485250Y-85482746D01*
X153485247Y-85482748D01*
X153475572Y-85491758D01*
X153459956Y-85504116D01*
X153294215Y-85614861D01*
X153294214Y-85614862D01*
X153294208Y-85614867D01*
X153154867Y-85754208D01*
X153154862Y-85754214D01*
X153154861Y-85754215D01*
X153045375Y-85918072D01*
X153045365Y-85918089D01*
X153045360Y-85918098D01*
X152969958Y-86100137D01*
X152969945Y-86100176D01*
X152931500Y-86293451D01*
X152931500Y-86446174D01*
X152926237Y-86464094D01*
X152969945Y-86683822D01*
X152969946Y-86683826D01*
X152969947Y-86683829D01*
X152969950Y-86683839D01*
X152969953Y-86683847D01*
X152969958Y-86683861D01*
X153045360Y-86865900D01*
X153045365Y-86865909D01*
X153045375Y-86865926D01*
X153154861Y-87029783D01*
X153154862Y-87029784D01*
X153154867Y-87029790D01*
X153290207Y-87165130D01*
X153305012Y-87183007D01*
X153313679Y-87195732D01*
X153335149Y-87262222D01*
X153317263Y-87329764D01*
X153265735Y-87376897D01*
X153264206Y-87377645D01*
X153261721Y-87378861D01*
X153207183Y-87391500D01*
X153157319Y-87391500D01*
X153084285Y-87406027D01*
X153084262Y-87406032D01*
X153084258Y-87406033D01*
X153001399Y-87461399D01*
X152946033Y-87544258D01*
X152946032Y-87544266D01*
X152946028Y-87544281D01*
X152931500Y-87617318D01*
X152931500Y-87617321D01*
X152931500Y-89166678D01*
X152931500Y-89166680D01*
X152931499Y-89166680D01*
X152946028Y-89239717D01*
X152946033Y-89239739D01*
X152955500Y-89253908D01*
X152970730Y-89285744D01*
X152974354Y-89297317D01*
X152975402Y-89300663D01*
X152976653Y-89370492D01*
X152975832Y-89373487D01*
X152947149Y-89425039D01*
X152943414Y-89429065D01*
X152925395Y-89445049D01*
X152902206Y-89461896D01*
X152825679Y-89538424D01*
X152751890Y-89612213D01*
X152638037Y-89768921D01*
X152626949Y-89784182D01*
X152530445Y-89973580D01*
X152464752Y-90175759D01*
X152431500Y-90385707D01*
X152431500Y-90598291D01*
X152463767Y-90802020D01*
X152463768Y-90802020D01*
X152464754Y-90808244D01*
X152529914Y-91008785D01*
X152530441Y-91010407D01*
X152530444Y-91010415D01*
X152605561Y-91157840D01*
X152626951Y-91199820D01*
X152751890Y-91371786D01*
X152751892Y-91371788D01*
X152902216Y-91522112D01*
X153074183Y-91647052D01*
X153074471Y-91647197D01*
X153263588Y-91743557D01*
X153465757Y-91809246D01*
X153675713Y-91842500D01*
X153675714Y-91842500D01*
X155188286Y-91842500D01*
X155188287Y-91842500D01*
X155398243Y-91809246D01*
X155600412Y-91743557D01*
X155789816Y-91647051D01*
X155892938Y-91572129D01*
X155961786Y-91522109D01*
X155961788Y-91522106D01*
X155961792Y-91522104D01*
X155961794Y-91522101D01*
X155961847Y-91522063D01*
X155962605Y-91521290D01*
X156111290Y-91372605D01*
X156112065Y-91371845D01*
X156112124Y-91371765D01*
X156113629Y-91369694D01*
X156237048Y-91199820D01*
X156237047Y-91199820D01*
X156237051Y-91199816D01*
X156237053Y-91199810D01*
X156257445Y-91171744D01*
X156265730Y-91143529D01*
X156333557Y-91010412D01*
X156399246Y-90808243D01*
X156432500Y-90598287D01*
X156432500Y-90385713D01*
X156399246Y-90175757D01*
X156333557Y-89973588D01*
X156237197Y-89784471D01*
X156237052Y-89784183D01*
X156112112Y-89612217D01*
X156112111Y-89612216D01*
X156112109Y-89612213D01*
X155961788Y-89461892D01*
X155961787Y-89461891D01*
X155943237Y-89448414D01*
X155917928Y-89423819D01*
X155908383Y-89411441D01*
X155883032Y-89346336D01*
X155882766Y-89343236D01*
X155891834Y-89284970D01*
X155893948Y-89279891D01*
X155905317Y-89258670D01*
X155908499Y-89253908D01*
X155917966Y-89239740D01*
X155932500Y-89166674D01*
X155932500Y-89034329D01*
X155937523Y-88999393D01*
X155938867Y-88994818D01*
X155941927Y-88984394D01*
X155979672Y-88925644D01*
X155981041Y-88924457D01*
X156035920Y-88896977D01*
X156037493Y-88896635D01*
X156037541Y-88896624D01*
X156043479Y-88895333D01*
X156069832Y-88892500D01*
X159009183Y-88892500D01*
X159044115Y-88897521D01*
X159069359Y-88904934D01*
X159122105Y-88936230D01*
X159484145Y-89298270D01*
X159499559Y-89317050D01*
X159513109Y-89337328D01*
X159520472Y-89350618D01*
X159545171Y-89393398D01*
X159595180Y-89480015D01*
X159595182Y-89480017D01*
X159697674Y-89582509D01*
X159698363Y-89583005D01*
X159700867Y-89584353D01*
X159819758Y-89652995D01*
X159822776Y-89654869D01*
X159823203Y-89654983D01*
X159823204Y-89654984D01*
X159963214Y-89692500D01*
X159963217Y-89692500D01*
X160108161Y-89692500D01*
X160108164Y-89692500D01*
X160248174Y-89654984D01*
X160373704Y-89582509D01*
X160476198Y-89480015D01*
X160546549Y-89358164D01*
X160548672Y-89354487D01*
X160548673Y-89354485D01*
X160586189Y-89214475D01*
X160586189Y-89069525D01*
X160548673Y-88929515D01*
X160548208Y-88928710D01*
X160538667Y-88912185D01*
X160506224Y-88855991D01*
X160476200Y-88803988D01*
X160476195Y-88803982D01*
X160373706Y-88701493D01*
X160373704Y-88701491D01*
X160315603Y-88667946D01*
X160244307Y-88626783D01*
X160231017Y-88619420D01*
X160210739Y-88605870D01*
X160191959Y-88590456D01*
X159593005Y-87991502D01*
X159593003Y-87991500D01*
X159523706Y-87951491D01*
X159508274Y-87942581D01*
X159478877Y-87925608D01*
X159401591Y-87904900D01*
X159351581Y-87891500D01*
X159351580Y-87891500D01*
X156074330Y-87891500D01*
X156039389Y-87886475D01*
X156024390Y-87882070D01*
X155965644Y-87844327D01*
X155964457Y-87842958D01*
X155936977Y-87788083D01*
X155935332Y-87780521D01*
X155932500Y-87754168D01*
X155932500Y-87617139D01*
X155932064Y-87615134D01*
X155917972Y-87544289D01*
X155917967Y-87544266D01*
X155917966Y-87544260D01*
X155908647Y-87530313D01*
X155908647Y-87530312D01*
X155877636Y-87483901D01*
X155862601Y-87461399D01*
X155823202Y-87435074D01*
X155789891Y-87412816D01*
X155785826Y-87409480D01*
X155779739Y-87406033D01*
X155779735Y-87406032D01*
X155779709Y-87406026D01*
X155706680Y-87391500D01*
X155706677Y-87391500D01*
X155706674Y-87391500D01*
X155663222Y-87391500D01*
X155628287Y-87386477D01*
X155617433Y-87383290D01*
X155558655Y-87345516D01*
X155529630Y-87281960D01*
X155539570Y-87212811D01*
X155541591Y-87208385D01*
X155566703Y-87172216D01*
X155569778Y-87169140D01*
X155569782Y-87169139D01*
X155709139Y-87029782D01*
X155750050Y-86968554D01*
X172627000Y-86968554D01*
X172627000Y-86968571D01*
X172627000Y-87089000D01*
X173202000Y-87089000D01*
X173502000Y-87089000D01*
X174076999Y-87089000D01*
X174076999Y-86968559D01*
X174076839Y-86966630D01*
X174076613Y-86964978D01*
X174070918Y-86911993D01*
X174070915Y-86911985D01*
X174023186Y-86784018D01*
X174023184Y-86784015D01*
X173941329Y-86674670D01*
X173839080Y-86598127D01*
X173835722Y-86595217D01*
X173831984Y-86592815D01*
X173831983Y-86592814D01*
X173704010Y-86545083D01*
X173704009Y-86545082D01*
X173704006Y-86545082D01*
X173647444Y-86539000D01*
X173647428Y-86539000D01*
X173502000Y-86539000D01*
X173502000Y-87089000D01*
X173202000Y-87089000D01*
X173202000Y-86539000D01*
X173056568Y-86539000D01*
X173056566Y-86539000D01*
X173056564Y-86539000D01*
X173055859Y-86539050D01*
X173054415Y-86539231D01*
X172999992Y-86545080D01*
X172897940Y-86583144D01*
X172872018Y-86592813D01*
X172872017Y-86592813D01*
X172872016Y-86592814D01*
X172762669Y-86674670D01*
X172686126Y-86776919D01*
X172683218Y-86780274D01*
X172680814Y-86784016D01*
X172633084Y-86911985D01*
X172633082Y-86911992D01*
X172627000Y-86968554D01*
X155750050Y-86968554D01*
X155818632Y-86865914D01*
X155894051Y-86683835D01*
X155931431Y-86495917D01*
X155931433Y-86495917D01*
X155931433Y-86495905D01*
X155932500Y-86490543D01*
X155932500Y-86293456D01*
X155932500Y-86293453D01*
X155897996Y-86119998D01*
X155894052Y-86100170D01*
X155894051Y-86100169D01*
X155893812Y-86098964D01*
X155891730Y-86094563D01*
X155884462Y-86077015D01*
X155877799Y-86060930D01*
X155835786Y-85959500D01*
X155818635Y-85918092D01*
X155818628Y-85918079D01*
X155709139Y-85754218D01*
X155709136Y-85754214D01*
X155709131Y-85754208D01*
X155569790Y-85614867D01*
X155569784Y-85614862D01*
X155569783Y-85614861D01*
X155416828Y-85512659D01*
X155407906Y-85506103D01*
X155385446Y-85488001D01*
X155345602Y-85430606D01*
X155343113Y-85360781D01*
X155378764Y-85300700D01*
X155388704Y-85291446D01*
X155404292Y-85279114D01*
X155405675Y-85278189D01*
X155405684Y-85278185D01*
X155569462Y-85168751D01*
X155569466Y-85168748D01*
X155708748Y-85029466D01*
X155708751Y-85029462D01*
X155818185Y-84865684D01*
X155818192Y-84865671D01*
X155893569Y-84683692D01*
X155893572Y-84683680D01*
X155921754Y-84542000D01*
X154956000Y-84542000D01*
X154888961Y-84522315D01*
X154843206Y-84469511D01*
X154832000Y-84418000D01*
X154832000Y-84366000D01*
X154851685Y-84298961D01*
X154904489Y-84253206D01*
X154956000Y-84242000D01*
X155921754Y-84242000D01*
X155921754Y-84241996D01*
X155896458Y-84114830D01*
X155893572Y-84100319D01*
X155893569Y-84100307D01*
X155855609Y-84008662D01*
X155818195Y-83918334D01*
X155818190Y-83918325D01*
X155818185Y-83918315D01*
X155708751Y-83754537D01*
X155708748Y-83754533D01*
X155708744Y-83754528D01*
X155665707Y-83711492D01*
X155644554Y-83683235D01*
X155637903Y-83671054D01*
X155623052Y-83602780D01*
X155647468Y-83537320D01*
X155651663Y-83531717D01*
X155694628Y-83495551D01*
X155789816Y-83447051D01*
X155801423Y-83438618D01*
X155824937Y-83421535D01*
X155902137Y-83365446D01*
X155961786Y-83322109D01*
X155961787Y-83322107D01*
X155961847Y-83322064D01*
X155962609Y-83321286D01*
X156111303Y-83172592D01*
X156112061Y-83171849D01*
X156112098Y-83171797D01*
X156112104Y-83171792D01*
X156112106Y-83171788D01*
X156112109Y-83171786D01*
X156234146Y-83003815D01*
X156237051Y-82999816D01*
X156333557Y-82810412D01*
X156399246Y-82608243D01*
X156432500Y-82398287D01*
X156432500Y-82185713D01*
X156399246Y-81975757D01*
X156390325Y-81948302D01*
X156384306Y-81913522D01*
X156384001Y-81902843D01*
X156401763Y-81835269D01*
X156453239Y-81788025D01*
X156522086Y-81776111D01*
X156577210Y-81796449D01*
X156580486Y-81798655D01*
X156598907Y-81813828D01*
X158676700Y-83891620D01*
X158676721Y-83891642D01*
X158677764Y-83892685D01*
X158682094Y-83897015D01*
X158682095Y-83897016D01*
X158756662Y-83971583D01*
X158820891Y-84008665D01*
X158820901Y-84008672D01*
X158827926Y-84012727D01*
X158827927Y-84012728D01*
X158839230Y-84019253D01*
X158839241Y-84019265D01*
X158839243Y-84019261D01*
X158847988Y-84024310D01*
X158949848Y-84051604D01*
X158949850Y-84051604D01*
X159062898Y-84051604D01*
X159064802Y-84051604D01*
X159064865Y-84051603D01*
X162376636Y-84051603D01*
X162411568Y-84056624D01*
X162436812Y-84064037D01*
X162476446Y-84087553D01*
X162477732Y-84085770D01*
X162485834Y-84091609D01*
X162485837Y-84091612D01*
X162485838Y-84091613D01*
X162485840Y-84091614D01*
X162485842Y-84091615D01*
X162486526Y-84092108D01*
X162489030Y-84093456D01*
X162607921Y-84162098D01*
X162610939Y-84163972D01*
X162611366Y-84164086D01*
X162611367Y-84164087D01*
X162751377Y-84201603D01*
X162751380Y-84201603D01*
X162896324Y-84201603D01*
X162896327Y-84201603D01*
X163036337Y-84164087D01*
X163161867Y-84091612D01*
X163264361Y-83989118D01*
X163336836Y-83863588D01*
X163374352Y-83723578D01*
X163374352Y-83578628D01*
X163336836Y-83438618D01*
X163335324Y-83435999D01*
X163596000Y-83435999D01*
X163646689Y-83435999D01*
X163738013Y-83421535D01*
X163738014Y-83421534D01*
X163738017Y-83421534D01*
X163848093Y-83365447D01*
X163848098Y-83365444D01*
X163882848Y-83330694D01*
X172284001Y-83330694D01*
X172298463Y-83422011D01*
X172298464Y-83422015D01*
X172298465Y-83422017D01*
X172311219Y-83447048D01*
X172354552Y-83532094D01*
X172354556Y-83532100D01*
X172441892Y-83619436D01*
X172441899Y-83619442D01*
X172441901Y-83619444D01*
X172441906Y-83619448D01*
X172459960Y-83628647D01*
X172478160Y-83637921D01*
X172511138Y-83669067D01*
X172551984Y-83675536D01*
X172551983Y-83675536D01*
X172643304Y-83689999D01*
X172994000Y-83689999D01*
X173044689Y-83689999D01*
X173136013Y-83675535D01*
X173136014Y-83675535D01*
X173136015Y-83675534D01*
X173136017Y-83675534D01*
X173246093Y-83619447D01*
X173246098Y-83619444D01*
X173333444Y-83532098D01*
X173333448Y-83532093D01*
X173389536Y-83422015D01*
X173389536Y-83422013D01*
X173389537Y-83422012D01*
X173404000Y-83330696D01*
X173404000Y-83310000D01*
X172994000Y-83310000D01*
X172994000Y-83689999D01*
X172643304Y-83689999D01*
X172693999Y-83689998D01*
X172694000Y-83689998D01*
X172694000Y-83310000D01*
X172284001Y-83310000D01*
X172284001Y-83330694D01*
X163882848Y-83330694D01*
X163935444Y-83278098D01*
X163935447Y-83278093D01*
X163974045Y-83202343D01*
X163974046Y-83202341D01*
X163974046Y-83202340D01*
X163974074Y-83202310D01*
X163974096Y-83202242D01*
X163991535Y-83168018D01*
X163991536Y-83168015D01*
X164001750Y-83103523D01*
X164006000Y-83076695D01*
X164006000Y-83056000D01*
X163596000Y-83056000D01*
X163596000Y-83435999D01*
X163335324Y-83435999D01*
X163329363Y-83425674D01*
X163329361Y-83425670D01*
X163329361Y-83425669D01*
X163320776Y-83410800D01*
X163308388Y-83380893D01*
X163300225Y-83350428D01*
X163296000Y-83318335D01*
X163296000Y-83056000D01*
X162886001Y-83056000D01*
X162886000Y-83056000D01*
X162882751Y-83057346D01*
X162862073Y-83072825D01*
X162838985Y-83085433D01*
X162779555Y-83100603D01*
X162751377Y-83100603D01*
X162622846Y-83135042D01*
X162622845Y-83135043D01*
X162615190Y-83137094D01*
X162611362Y-83138120D01*
X162485843Y-83210588D01*
X162481483Y-83213631D01*
X162481197Y-83213221D01*
X162469363Y-83221264D01*
X162443414Y-83235434D01*
X162383985Y-83250603D01*
X159237659Y-83250603D01*
X159202723Y-83245580D01*
X159177481Y-83238168D01*
X159124736Y-83206872D01*
X158687772Y-82769908D01*
X158666623Y-82741658D01*
X158661201Y-82731728D01*
X158646348Y-82663458D01*
X158670762Y-82597993D01*
X158726692Y-82556121D01*
X158730571Y-82554674D01*
X158733907Y-82553431D01*
X158777221Y-82545620D01*
X160232431Y-82545620D01*
X160232433Y-82545620D01*
X160359727Y-82511512D01*
X160473855Y-82445620D01*
X162330051Y-80589423D01*
X162358301Y-80568275D01*
X162381393Y-80555667D01*
X162440818Y-80540500D01*
X164355670Y-80540500D01*
X164365824Y-80543481D01*
X164376336Y-80542234D01*
X164390606Y-80545523D01*
X164405604Y-80549927D01*
X164420612Y-80559569D01*
X164422709Y-80560185D01*
X164424138Y-80561834D01*
X164464355Y-80587672D01*
X164465542Y-80589041D01*
X164493018Y-80643902D01*
X164494663Y-80651460D01*
X164497500Y-80677831D01*
X164497500Y-80788927D01*
X164494074Y-80817869D01*
X164491771Y-80827466D01*
X164487415Y-80845611D01*
X164484380Y-80853838D01*
X164480839Y-80868583D01*
X164480455Y-80873467D01*
X164472184Y-80925687D01*
X164461758Y-80959406D01*
X164448398Y-80987588D01*
X164424032Y-81022152D01*
X164171686Y-81274500D01*
X164109566Y-81336620D01*
X164049612Y-81396574D01*
X164021361Y-81417722D01*
X163998273Y-81430330D01*
X163938843Y-81445500D01*
X163813074Y-81445500D01*
X163784127Y-81442074D01*
X163782948Y-81441791D01*
X163753744Y-81434779D01*
X163742437Y-81431105D01*
X163742348Y-81431374D01*
X163738168Y-81429980D01*
X163660765Y-81417722D01*
X163646735Y-81415500D01*
X163646734Y-81415500D01*
X163221571Y-81415500D01*
X163212418Y-81420497D01*
X163205466Y-81421802D01*
X163163467Y-81428454D01*
X163158588Y-81428838D01*
X163153828Y-81429980D01*
X163043611Y-81486139D01*
X163043600Y-81486146D01*
X162956145Y-81573601D01*
X162956141Y-81573609D01*
X162937421Y-81610347D01*
X162924856Y-81635007D01*
X162899980Y-81683828D01*
X162898838Y-81688583D01*
X162898455Y-81693462D01*
X162885500Y-81775263D01*
X162885500Y-82116743D01*
X162898454Y-82198528D01*
X162898489Y-82198982D01*
X162899980Y-82208170D01*
X162900331Y-82209223D01*
X162902299Y-82212720D01*
X162956141Y-82318391D01*
X162956143Y-82318393D01*
X162956145Y-82318396D01*
X162963815Y-82326066D01*
X162984963Y-82354315D01*
X162992455Y-82368034D01*
X163007311Y-82436306D01*
X163007182Y-82438111D01*
X162987808Y-82496317D01*
X162983625Y-82502825D01*
X162966998Y-82523458D01*
X162956553Y-82533902D01*
X162956552Y-82533905D01*
X162956551Y-82533906D01*
X162900463Y-82643984D01*
X162886000Y-82735308D01*
X162886000Y-82756000D01*
X164005999Y-82756000D01*
X164005999Y-82735304D01*
X163992326Y-82648982D01*
X163991534Y-82643981D01*
X163990871Y-82642681D01*
X163990542Y-82640929D01*
X163989010Y-82636214D01*
X163979487Y-82609276D01*
X163979293Y-82608243D01*
X163976925Y-82595633D01*
X163978703Y-82577894D01*
X163977975Y-82574013D01*
X163979460Y-82570353D01*
X163983896Y-82526115D01*
X164027344Y-82471400D01*
X164030091Y-82469464D01*
X164081276Y-82448486D01*
X164083232Y-82448162D01*
X164103464Y-82446500D01*
X164153670Y-82446500D01*
X164188606Y-82451523D01*
X164203604Y-82455927D01*
X164262355Y-82493672D01*
X164263542Y-82495041D01*
X164291018Y-82549902D01*
X164292663Y-82557460D01*
X164295500Y-82583831D01*
X164295500Y-82622475D01*
X164324230Y-82729694D01*
X164332795Y-82761659D01*
X164332799Y-82761675D01*
X164333015Y-82762484D01*
X164333018Y-82762491D01*
X164403635Y-82884802D01*
X164405123Y-82887568D01*
X164405353Y-82887877D01*
X164507985Y-82990509D01*
X164508674Y-82991005D01*
X164511178Y-82992353D01*
X164630069Y-83060995D01*
X164633087Y-83062869D01*
X164633514Y-83062983D01*
X164633515Y-83062984D01*
X164773525Y-83100500D01*
X164773528Y-83100500D01*
X164918472Y-83100500D01*
X164918475Y-83100500D01*
X165058485Y-83062984D01*
X165184015Y-82990509D01*
X165286509Y-82888015D01*
X165358984Y-82762485D01*
X165396500Y-82622475D01*
X165396500Y-82477525D01*
X165358984Y-82337515D01*
X165358983Y-82337513D01*
X165358982Y-82337512D01*
X165357812Y-82333143D01*
X165353639Y-82318608D01*
X165348880Y-82294680D01*
X165346500Y-82270498D01*
X165346500Y-81976110D01*
X165346500Y-81976108D01*
X165312392Y-81848814D01*
X165312391Y-81848813D01*
X165312391Y-81848811D01*
X165310834Y-81846114D01*
X165309275Y-81843413D01*
X165296165Y-81810662D01*
X165292480Y-81795473D01*
X165295673Y-81726062D01*
X165295698Y-81725989D01*
X165332029Y-81672259D01*
X165340119Y-81665283D01*
X165364805Y-81648705D01*
X165365213Y-81648496D01*
X165370391Y-81645859D01*
X165378063Y-81638186D01*
X165406310Y-81617037D01*
X165420038Y-81609541D01*
X165488296Y-81594688D01*
X165490107Y-81594817D01*
X165548300Y-81614180D01*
X165554815Y-81618367D01*
X165575459Y-81635002D01*
X165585901Y-81645444D01*
X165585906Y-81645448D01*
X165603960Y-81654647D01*
X165622160Y-81663921D01*
X165655138Y-81695067D01*
X165695984Y-81701536D01*
X165695983Y-81701536D01*
X165787298Y-81715998D01*
X165787299Y-81715999D01*
X165787304Y-81715999D01*
X165807999Y-81715999D01*
X165808000Y-81715998D01*
X165808000Y-81313131D01*
X166108000Y-81313131D01*
X166108000Y-81313132D01*
X166108000Y-81715999D01*
X166128689Y-81715999D01*
X166220013Y-81701535D01*
X166220014Y-81701535D01*
X166220015Y-81701534D01*
X166220017Y-81701534D01*
X166330093Y-81645447D01*
X166330098Y-81645444D01*
X166417444Y-81558098D01*
X166417448Y-81558093D01*
X166473536Y-81448015D01*
X166473536Y-81448013D01*
X166473537Y-81448012D01*
X166488000Y-81356696D01*
X166488000Y-81306000D01*
X166118917Y-81306000D01*
X166118916Y-81306000D01*
X166108000Y-81313131D01*
X165808000Y-81313131D01*
X165808000Y-81297829D01*
X165813023Y-81262895D01*
X165817750Y-81246796D01*
X165818692Y-81243586D01*
X165818835Y-81243100D01*
X165849802Y-81190675D01*
X165854958Y-81185480D01*
X165875135Y-81169031D01*
X165963488Y-81111308D01*
X165967426Y-81097895D01*
X166005196Y-81039121D01*
X166006571Y-81037930D01*
X166061420Y-81010477D01*
X166068979Y-81008833D01*
X166095332Y-81006000D01*
X166487999Y-81006000D01*
X166487999Y-80955309D01*
X166473535Y-80863985D01*
X166473534Y-80863983D01*
X166473534Y-80863982D01*
X166432794Y-80784027D01*
X166432628Y-80783140D01*
X166429208Y-80776878D01*
X166427551Y-80773737D01*
X166417447Y-80753906D01*
X166417444Y-80753901D01*
X166417442Y-80753899D01*
X166417436Y-80753888D01*
X166413532Y-80747380D01*
X166413677Y-80747292D01*
X166409987Y-80741676D01*
X166401759Y-80726607D01*
X166386907Y-80658337D01*
X166411323Y-80592872D01*
X166467255Y-80551000D01*
X166467263Y-80550997D01*
X166474452Y-80548316D01*
X166517780Y-80540500D01*
X166670213Y-80540500D01*
X166705145Y-80545521D01*
X166730389Y-80552934D01*
X166783135Y-80584230D01*
X168700824Y-82501918D01*
X168700845Y-82501940D01*
X168701888Y-82502983D01*
X168706218Y-82507313D01*
X168706219Y-82507314D01*
X168799405Y-82600500D01*
X168842894Y-82625608D01*
X168842896Y-82625610D01*
X168871669Y-82642221D01*
X168871669Y-82642222D01*
X168912699Y-82665911D01*
X168913503Y-82666384D01*
X168913533Y-82666392D01*
X169040826Y-82700500D01*
X169040827Y-82700500D01*
X171065807Y-82700500D01*
X171100739Y-82705522D01*
X171108616Y-82707834D01*
X171118795Y-82710823D01*
X171173602Y-82744228D01*
X171180791Y-82751767D01*
X171198437Y-82775338D01*
X171263491Y-82888015D01*
X171263493Y-82888017D01*
X171365985Y-82990509D01*
X171366674Y-82991005D01*
X171369178Y-82992353D01*
X171488069Y-83060995D01*
X171491087Y-83062869D01*
X171491514Y-83062983D01*
X171491515Y-83062984D01*
X171631525Y-83100500D01*
X171631528Y-83100500D01*
X171776472Y-83100500D01*
X171776475Y-83100500D01*
X171916485Y-83062984D01*
X172042015Y-82990509D01*
X172059713Y-82972810D01*
X172087968Y-82951659D01*
X172091752Y-82949593D01*
X172091751Y-82949593D01*
X172097591Y-82946405D01*
X172098813Y-82948644D01*
X172154153Y-82930211D01*
X172221857Y-82947474D01*
X172262923Y-82987090D01*
X172266219Y-82992219D01*
X172266221Y-82992221D01*
X172284000Y-83010000D01*
X173403999Y-83010000D01*
X173403999Y-82989304D01*
X173389534Y-82897982D01*
X173389534Y-82897981D01*
X173388871Y-82896681D01*
X173377487Y-82863276D01*
X173374925Y-82849633D01*
X173381896Y-82780115D01*
X173425344Y-82725400D01*
X173428091Y-82723464D01*
X173479276Y-82702486D01*
X173481232Y-82702162D01*
X173501464Y-82700500D01*
X175425494Y-82700500D01*
X175460426Y-82705521D01*
X175485670Y-82712934D01*
X175538416Y-82744230D01*
X175593397Y-82799211D01*
X175614546Y-82827461D01*
X175619469Y-82836477D01*
X175619967Y-82837388D01*
X175634821Y-82905661D01*
X175610407Y-82971126D01*
X175554475Y-83012999D01*
X175554471Y-83013001D01*
X175547283Y-83015682D01*
X175503949Y-83023500D01*
X174587271Y-83023500D01*
X174485411Y-83050792D01*
X174485408Y-83050793D01*
X174394097Y-83103513D01*
X174394082Y-83103523D01*
X174394080Y-83103524D01*
X171587033Y-85910573D01*
X171558782Y-85931722D01*
X171535694Y-85944330D01*
X171476264Y-85959500D01*
X163769216Y-85959500D01*
X163734280Y-85954477D01*
X163708796Y-85946994D01*
X163664642Y-85922134D01*
X163664368Y-85922528D01*
X163662326Y-85921103D01*
X163662172Y-85921289D01*
X163660152Y-85919606D01*
X163660124Y-85919590D01*
X163660014Y-85919490D01*
X163660006Y-85919485D01*
X163606243Y-85888445D01*
X163577808Y-85858624D01*
X163523007Y-85843939D01*
X163523007Y-85843940D01*
X163458740Y-85826720D01*
X163394475Y-85809500D01*
X163394474Y-85809500D01*
X163249525Y-85809500D01*
X163120994Y-85843939D01*
X163120993Y-85843940D01*
X163113338Y-85845991D01*
X163109510Y-85847017D01*
X162983991Y-85919485D01*
X162983984Y-85919490D01*
X162983968Y-85919505D01*
X162881505Y-86021968D01*
X162881490Y-86021984D01*
X162881485Y-86021992D01*
X162809017Y-86147509D01*
X162808989Y-86147578D01*
X162808748Y-86148511D01*
X162786785Y-86230480D01*
X162771500Y-86287525D01*
X162771500Y-86432475D01*
X162800044Y-86539000D01*
X162800043Y-86539000D01*
X162809016Y-86572486D01*
X162809018Y-86572491D01*
X162879635Y-86694802D01*
X162881123Y-86697568D01*
X162881353Y-86697877D01*
X162983985Y-86800509D01*
X162984674Y-86801005D01*
X162987178Y-86802353D01*
X163106069Y-86870995D01*
X163109087Y-86872869D01*
X163109514Y-86872983D01*
X163109515Y-86872984D01*
X163249525Y-86910500D01*
X163249528Y-86910500D01*
X163394472Y-86910500D01*
X163394475Y-86910500D01*
X163534485Y-86872984D01*
X163660015Y-86800509D01*
X163667067Y-86793456D01*
X163679927Y-86785675D01*
X163694399Y-86781847D01*
X163700516Y-86778262D01*
X163699703Y-86776269D01*
X163712634Y-86770995D01*
X163713398Y-86772869D01*
X163761866Y-86760500D01*
X171756725Y-86760500D01*
X171756727Y-86760500D01*
X171858588Y-86733207D01*
X171949913Y-86680480D01*
X174497357Y-84133033D01*
X174525607Y-84111886D01*
X174537790Y-84105233D01*
X174606064Y-84090383D01*
X174671525Y-84114800D01*
X174672736Y-84115707D01*
X174672866Y-84115804D01*
X174710050Y-84160856D01*
X174712241Y-84165366D01*
X174720480Y-84187456D01*
X174733419Y-84235743D01*
X174733419Y-84235744D01*
X174747016Y-84286487D01*
X174747016Y-84286488D01*
X174768748Y-84324128D01*
X174817646Y-84408820D01*
X174819126Y-84411572D01*
X174819353Y-84411877D01*
X174819491Y-84412015D01*
X174921985Y-84514509D01*
X174921986Y-84514510D01*
X174921988Y-84514511D01*
X174958059Y-84535336D01*
X174985803Y-84557154D01*
X174998786Y-84570770D01*
X175029547Y-84627101D01*
X175032003Y-84637223D01*
X175035500Y-84666462D01*
X175035500Y-85291784D01*
X175030476Y-85326722D01*
X175022993Y-85352204D01*
X174998135Y-85396357D01*
X174998528Y-85396631D01*
X174997108Y-85398665D01*
X174997294Y-85398820D01*
X174995614Y-85400835D01*
X174995596Y-85400868D01*
X174995495Y-85400977D01*
X174995494Y-85400979D01*
X174995485Y-85400992D01*
X174923017Y-85526509D01*
X174922989Y-85526578D01*
X174922748Y-85527511D01*
X174887640Y-85658538D01*
X174885500Y-85666525D01*
X174885500Y-85811475D01*
X174915105Y-85921960D01*
X174915104Y-85921960D01*
X174923016Y-85951486D01*
X174923018Y-85951491D01*
X174993635Y-86073802D01*
X174995123Y-86076568D01*
X174995353Y-86076877D01*
X175097985Y-86179509D01*
X175098674Y-86180005D01*
X175101178Y-86181353D01*
X175220069Y-86249995D01*
X175223087Y-86251869D01*
X175223514Y-86251983D01*
X175223515Y-86251984D01*
X175363525Y-86289500D01*
X175363528Y-86289500D01*
X175508470Y-86289500D01*
X175508472Y-86289500D01*
X175508475Y-86289500D01*
X175512186Y-86288505D01*
X175547223Y-86284314D01*
X175561104Y-86284644D01*
X175627654Y-86305917D01*
X175672137Y-86359786D01*
X175675484Y-86367600D01*
X175685500Y-86416423D01*
X175685500Y-87087493D01*
X175680476Y-87122430D01*
X175673064Y-87147671D01*
X175641769Y-87200415D01*
X174602612Y-88239573D01*
X174574361Y-88260722D01*
X174551273Y-88273330D01*
X174491843Y-88288500D01*
X174069637Y-88288500D01*
X174068792Y-88288252D01*
X174067947Y-88288488D01*
X174034697Y-88283476D01*
X174012877Y-88277068D01*
X173963348Y-88248872D01*
X173960687Y-88246396D01*
X173945887Y-88229924D01*
X173941688Y-88224315D01*
X173941687Y-88224313D01*
X173941681Y-88224307D01*
X173930199Y-88215712D01*
X173832232Y-88142375D01*
X173832228Y-88142372D01*
X173832222Y-88142370D01*
X173815526Y-88136142D01*
X173784554Y-88119229D01*
X173775501Y-88112452D01*
X173733629Y-88056518D01*
X173728645Y-87986827D01*
X173762128Y-87925506D01*
X173765812Y-87921822D01*
X173810155Y-87893326D01*
X173831983Y-87885185D01*
X173831984Y-87885184D01*
X173832002Y-87885170D01*
X173835726Y-87882777D01*
X173839081Y-87879871D01*
X173941329Y-87803329D01*
X174023184Y-87693984D01*
X174023185Y-87693983D01*
X174070916Y-87566010D01*
X174076596Y-87513173D01*
X174077000Y-87512006D01*
X174077000Y-87389000D01*
X172627001Y-87389000D01*
X172627001Y-87509445D01*
X172633080Y-87566006D01*
X172639164Y-87582317D01*
X172680813Y-87693981D01*
X172680815Y-87693984D01*
X172762670Y-87803329D01*
X172872015Y-87885184D01*
X172872020Y-87885187D01*
X172886598Y-87890624D01*
X172888461Y-87891319D01*
X172919438Y-87908232D01*
X172928493Y-87915010D01*
X172970366Y-87970942D01*
X172975353Y-88040634D01*
X172941879Y-88101949D01*
X172938202Y-88105627D01*
X172893842Y-88134140D01*
X172871774Y-88142370D01*
X172871767Y-88142374D01*
X172762315Y-88224310D01*
X172754923Y-88234185D01*
X172700966Y-88306263D01*
X172680371Y-88333774D01*
X172680244Y-88334016D01*
X172679609Y-88335817D01*
X172640614Y-88440369D01*
X172640613Y-88440372D01*
X172632586Y-88461890D01*
X172626500Y-88518489D01*
X172626500Y-88737492D01*
X172621477Y-88772428D01*
X172614065Y-88797670D01*
X172582769Y-88850415D01*
X172574608Y-88858576D01*
X172546360Y-88879723D01*
X172523270Y-88892331D01*
X172463844Y-88907500D01*
X171729503Y-88907500D01*
X171705311Y-88905117D01*
X171681718Y-88900424D01*
X171666042Y-88896223D01*
X171662482Y-88895014D01*
X171618762Y-88883300D01*
X171550424Y-88864989D01*
X171522475Y-88857500D01*
X171522474Y-88857500D01*
X171377525Y-88857500D01*
X171248994Y-88891939D01*
X171248993Y-88891940D01*
X171241338Y-88893991D01*
X171237510Y-88895017D01*
X171111991Y-88967485D01*
X171111984Y-88967490D01*
X171111968Y-88967505D01*
X171009505Y-89069968D01*
X171009490Y-89069984D01*
X171009485Y-89069992D01*
X170937017Y-89195509D01*
X170936989Y-89195578D01*
X170936748Y-89196511D01*
X170905537Y-89312995D01*
X170899500Y-89335525D01*
X170899500Y-89480475D01*
X170935721Y-89615653D01*
X170937017Y-89620488D01*
X170960346Y-89660895D01*
X171009485Y-89746006D01*
X171009490Y-89746014D01*
X171009493Y-89746017D01*
X171088452Y-89824976D01*
X171109603Y-89853232D01*
X171117094Y-89866952D01*
X171131944Y-89935219D01*
X171131815Y-89937023D01*
X171122319Y-89965565D01*
X171125023Y-89966359D01*
X171120000Y-89983466D01*
X171120000Y-90412170D01*
X171114975Y-90447114D01*
X171110570Y-90462112D01*
X171072827Y-90520855D01*
X171071458Y-90522042D01*
X171016597Y-90549518D01*
X171009039Y-90551163D01*
X170982668Y-90554000D01*
X170961830Y-90554000D01*
X170926889Y-90548975D01*
X170911890Y-90544570D01*
X170853144Y-90506827D01*
X170851957Y-90505458D01*
X170824477Y-90450583D01*
X170822832Y-90443021D01*
X170820000Y-90416668D01*
X170820000Y-89994001D01*
X170819999Y-89994000D01*
X170799315Y-89994000D01*
X170799309Y-89994000D01*
X170707987Y-90008463D01*
X170707982Y-90008465D01*
X170597904Y-90064552D01*
X170597898Y-90064556D01*
X170510562Y-90151892D01*
X170510556Y-90151899D01*
X170510552Y-90151904D01*
X170454461Y-90261987D01*
X170446119Y-90314660D01*
X170435694Y-90348377D01*
X170428999Y-90362500D01*
X170382500Y-90414643D01*
X170380231Y-90416056D01*
X170323373Y-90434492D01*
X170316698Y-90434961D01*
X170299912Y-90435001D01*
X170297222Y-90434825D01*
X170297207Y-90434825D01*
X170297206Y-90434825D01*
X170057216Y-90434825D01*
X170022280Y-90429802D01*
X169996796Y-90422319D01*
X169952642Y-90397459D01*
X169952368Y-90397853D01*
X169950326Y-90396428D01*
X169950172Y-90396614D01*
X169948152Y-90394931D01*
X169948124Y-90394915D01*
X169948014Y-90394815D01*
X169948006Y-90394810D01*
X169894243Y-90363770D01*
X169865808Y-90333949D01*
X169811007Y-90319264D01*
X169811007Y-90319265D01*
X169746740Y-90302045D01*
X169682475Y-90284825D01*
X169682474Y-90284825D01*
X169537525Y-90284825D01*
X169408994Y-90319264D01*
X169408993Y-90319265D01*
X169401338Y-90321316D01*
X169397510Y-90322342D01*
X169271991Y-90394810D01*
X169271984Y-90394815D01*
X169271968Y-90394830D01*
X169169505Y-90497293D01*
X169169490Y-90497309D01*
X169169485Y-90497317D01*
X169097017Y-90622834D01*
X169096989Y-90622903D01*
X169096748Y-90623836D01*
X169059500Y-90762850D01*
X169059500Y-90907800D01*
X169093714Y-91035488D01*
X169093716Y-91035494D01*
X169097016Y-91047812D01*
X169169485Y-91173332D01*
X169169490Y-91173339D01*
X169169491Y-91173340D01*
X169169493Y-91173342D01*
X169252853Y-91256702D01*
X169274004Y-91284958D01*
X169281495Y-91298678D01*
X169296346Y-91366936D01*
X169295937Y-91372660D01*
X169295616Y-91377162D01*
X169295565Y-91377869D01*
X169287123Y-91413590D01*
X169287325Y-91413659D01*
X169286607Y-91415772D01*
X169286435Y-91416500D01*
X169286017Y-91417510D01*
X169281197Y-91435500D01*
X169248500Y-91557525D01*
X169248500Y-91702475D01*
X169270129Y-91783193D01*
X169283048Y-91831408D01*
X169286016Y-91842486D01*
X169286018Y-91842490D01*
X169356635Y-91964802D01*
X169358123Y-91967568D01*
X169358353Y-91967877D01*
X169460985Y-92070509D01*
X169461674Y-92071005D01*
X169464178Y-92072353D01*
X169583069Y-92140995D01*
X169586087Y-92142869D01*
X169586514Y-92142983D01*
X169586515Y-92142984D01*
X169726525Y-92180500D01*
X169726528Y-92180500D01*
X169726632Y-92180528D01*
X169745198Y-92184450D01*
X169774093Y-92192935D01*
X169826837Y-92224230D01*
X170185128Y-92582521D01*
X170206280Y-92610776D01*
X170220289Y-92636432D01*
X170231978Y-92673759D01*
X170232803Y-92673565D01*
X170234586Y-92681114D01*
X170239937Y-92695458D01*
X170247441Y-92729951D01*
X170248431Y-92743794D01*
X170233579Y-92812066D01*
X170184181Y-92861466D01*
X170178936Y-92864330D01*
X170119508Y-92879500D01*
X170093388Y-92879500D01*
X170053726Y-92885781D01*
X170053725Y-92885780D01*
X169922304Y-92906596D01*
X169757549Y-92960129D01*
X169603211Y-93038767D01*
X169581125Y-93054815D01*
X169474943Y-93131961D01*
X169467562Y-93136094D01*
X169336094Y-93267562D01*
X169331963Y-93274940D01*
X169326512Y-93282443D01*
X169326510Y-93282446D01*
X169238768Y-93403210D01*
X169160129Y-93557547D01*
X169106596Y-93722301D01*
X169096349Y-93787006D01*
X169096349Y-93787008D01*
X169079500Y-93893384D01*
X169079500Y-94066610D01*
X169106578Y-94237580D01*
X169106598Y-94237701D01*
X169160127Y-94402445D01*
X169238768Y-94556788D01*
X169340586Y-94696928D01*
X169463072Y-94819414D01*
X169603212Y-94921232D01*
X169757555Y-94999873D01*
X169922299Y-95053402D01*
X170093389Y-95080500D01*
X170093390Y-95080500D01*
X170266610Y-95080500D01*
X170266611Y-95080500D01*
X170437701Y-95053402D01*
X170602445Y-94999873D01*
X170756788Y-94921232D01*
X170896928Y-94819414D01*
X171019414Y-94696928D01*
X171121232Y-94556788D01*
X171199873Y-94402445D01*
X171253402Y-94237701D01*
X171280500Y-94066611D01*
X171280500Y-93893389D01*
X171253402Y-93722299D01*
X171199873Y-93557555D01*
X171121232Y-93403212D01*
X171029777Y-93277336D01*
X171021267Y-93263882D01*
X171008558Y-93240608D01*
X170993705Y-93172336D01*
X171018121Y-93106871D01*
X171074054Y-93064999D01*
X171074061Y-93064996D01*
X171081250Y-93062315D01*
X171124578Y-93054499D01*
X171199481Y-93054499D01*
X171199484Y-93054499D01*
X171256114Y-93048412D01*
X171384226Y-93000628D01*
X171493687Y-92918687D01*
X171575628Y-92809226D01*
X171578237Y-92802232D01*
X171581853Y-92792535D01*
X171598771Y-92761549D01*
X171605549Y-92752495D01*
X171661484Y-92710627D01*
X171731175Y-92705645D01*
X171792494Y-92739129D01*
X171796172Y-92742807D01*
X171824673Y-92787155D01*
X171828407Y-92797167D01*
X171832814Y-92808984D01*
X171834335Y-92811350D01*
X171835095Y-92812193D01*
X171836647Y-92814103D01*
X171914670Y-92918329D01*
X171963500Y-92954883D01*
X171988456Y-92979840D01*
X171996774Y-92990952D01*
X172021189Y-93056416D01*
X172006337Y-93124688D01*
X171999685Y-93136870D01*
X171978535Y-93165123D01*
X171880584Y-93263074D01*
X171778768Y-93403210D01*
X171700129Y-93557547D01*
X171646596Y-93722301D01*
X171636349Y-93787006D01*
X171636349Y-93787008D01*
X171619500Y-93893384D01*
X171619500Y-94066610D01*
X171646578Y-94237580D01*
X171646598Y-94237701D01*
X171700127Y-94402445D01*
X171778768Y-94556788D01*
X171880586Y-94696928D01*
X172003072Y-94819414D01*
X172143212Y-94921232D01*
X172297555Y-94999873D01*
X172462299Y-95053402D01*
X172633389Y-95080500D01*
X172633390Y-95080500D01*
X172806610Y-95080500D01*
X172806611Y-95080500D01*
X172977701Y-95053402D01*
X173142445Y-94999873D01*
X173296788Y-94921232D01*
X173436928Y-94819414D01*
X173559414Y-94696928D01*
X173661232Y-94556788D01*
X173739873Y-94402445D01*
X173793402Y-94237701D01*
X173820500Y-94066611D01*
X173820500Y-93893389D01*
X173793402Y-93722299D01*
X173739873Y-93557555D01*
X173661232Y-93403212D01*
X173559414Y-93263072D01*
X173436928Y-93140586D01*
X173329198Y-93062315D01*
X173296792Y-93038770D01*
X173296789Y-93038769D01*
X173296790Y-93038769D01*
X173296788Y-93038768D01*
X173236543Y-93008072D01*
X173236540Y-93008070D01*
X173193945Y-92986367D01*
X173165101Y-92966034D01*
X173153736Y-92955300D01*
X173118514Y-92894964D01*
X173118287Y-92894045D01*
X173119206Y-92831076D01*
X173122952Y-92817616D01*
X173122951Y-92817615D01*
X173124423Y-92812327D01*
X173127703Y-92802232D01*
X173133326Y-92787157D01*
X173172916Y-92681010D01*
X173177093Y-92642148D01*
X173179000Y-92634682D01*
X173179000Y-92479000D01*
X172620830Y-92479000D01*
X172585889Y-92473975D01*
X172570890Y-92469570D01*
X172512144Y-92431827D01*
X172510957Y-92430458D01*
X172483477Y-92375583D01*
X172481832Y-92368021D01*
X172479000Y-92341668D01*
X172479000Y-92320829D01*
X172484023Y-92285893D01*
X172485882Y-92279564D01*
X172488427Y-92270894D01*
X172526172Y-92212144D01*
X172527541Y-92210957D01*
X172582420Y-92183477D01*
X172589979Y-92181833D01*
X172616332Y-92179000D01*
X173178999Y-92179000D01*
X173178999Y-92033559D01*
X173178839Y-92031630D01*
X173178613Y-92029978D01*
X173172918Y-91976992D01*
X173163846Y-91952670D01*
X173143282Y-91897535D01*
X173135781Y-91863049D01*
X173135431Y-91858157D01*
X173134791Y-91849205D01*
X173149643Y-91780934D01*
X173199049Y-91731529D01*
X173204302Y-91728661D01*
X173263716Y-91713500D01*
X174897915Y-91713500D01*
X174932847Y-91718521D01*
X174958091Y-91725934D01*
X175010837Y-91757230D01*
X176721398Y-93467791D01*
X176742550Y-93496047D01*
X176750731Y-93511030D01*
X176765744Y-93576642D01*
X176765079Y-93589937D01*
X176759165Y-93622065D01*
X176726603Y-93722279D01*
X176726599Y-93722294D01*
X176726598Y-93722297D01*
X176726597Y-93722301D01*
X176726595Y-93722311D01*
X176699500Y-93893383D01*
X176699500Y-93907670D01*
X176694475Y-93942614D01*
X176690070Y-93957612D01*
X176652327Y-94016355D01*
X176650958Y-94017542D01*
X176596097Y-94045018D01*
X176588539Y-94046663D01*
X176562168Y-94049500D01*
X176502330Y-94049500D01*
X176467389Y-94044475D01*
X176452390Y-94040070D01*
X176393644Y-94002327D01*
X176392457Y-94000958D01*
X176364977Y-93946083D01*
X176363332Y-93938521D01*
X176360500Y-93912168D01*
X176360500Y-93893386D01*
X176353244Y-93847578D01*
X176353244Y-93847576D01*
X176343651Y-93787007D01*
X176333402Y-93722299D01*
X176279873Y-93557555D01*
X176201232Y-93403212D01*
X176099414Y-93263072D01*
X175976928Y-93140586D01*
X175836788Y-93038768D01*
X175824072Y-93032289D01*
X175682449Y-92960128D01*
X175526532Y-92909467D01*
X175522010Y-92907614D01*
X175512820Y-92905444D01*
X175508057Y-92905070D01*
X175481198Y-92900816D01*
X175386271Y-92885781D01*
X175370407Y-92883268D01*
X175346614Y-92879500D01*
X175346611Y-92879500D01*
X175173389Y-92879500D01*
X175173388Y-92879500D01*
X175133726Y-92885781D01*
X175133725Y-92885780D01*
X175002304Y-92906596D01*
X174837549Y-92960129D01*
X174683211Y-93038767D01*
X174661125Y-93054815D01*
X174554943Y-93131961D01*
X174547562Y-93136094D01*
X174416094Y-93267562D01*
X174411963Y-93274940D01*
X174406512Y-93282443D01*
X174406510Y-93282446D01*
X174318768Y-93403210D01*
X174240129Y-93557547D01*
X174186596Y-93722301D01*
X174176349Y-93787006D01*
X174176349Y-93787008D01*
X174159500Y-93893384D01*
X174159500Y-94066610D01*
X174186578Y-94237580D01*
X174186598Y-94237701D01*
X174240127Y-94402445D01*
X174318768Y-94556788D01*
X174420586Y-94696928D01*
X174543072Y-94819414D01*
X174683212Y-94921232D01*
X174837555Y-94999873D01*
X175002299Y-95053402D01*
X175173389Y-95080500D01*
X175173390Y-95080500D01*
X175346610Y-95080500D01*
X175346611Y-95080500D01*
X175517701Y-95053402D01*
X175682445Y-94999873D01*
X175836788Y-94921232D01*
X175882149Y-94888273D01*
X175913359Y-94871805D01*
X175927168Y-94866877D01*
X175996921Y-94862886D01*
X176056105Y-94895569D01*
X176062106Y-94901513D01*
X176065037Y-94904416D01*
X176085156Y-94930508D01*
X176089489Y-94938013D01*
X176089490Y-94938014D01*
X176089491Y-94938015D01*
X176191985Y-95040509D01*
X176192674Y-95041005D01*
X176195178Y-95042353D01*
X176314069Y-95110995D01*
X176317087Y-95112869D01*
X176317514Y-95112983D01*
X176317515Y-95112984D01*
X176457525Y-95150500D01*
X176457528Y-95150500D01*
X176457632Y-95150528D01*
X176476198Y-95154450D01*
X176505093Y-95162935D01*
X176557837Y-95194230D01*
X177210418Y-95846811D01*
X177301743Y-95899538D01*
X177403604Y-95926831D01*
X177509058Y-95926831D01*
X178982190Y-95926831D01*
X179017126Y-95931854D01*
X179032124Y-95936258D01*
X179090898Y-95974029D01*
X179096704Y-95980729D01*
X179122767Y-96029833D01*
X179125754Y-96040980D01*
X179125847Y-96041288D01*
X179125877Y-96041436D01*
X179126225Y-96042735D01*
X179126143Y-96042756D01*
X179130365Y-96063664D01*
X179132075Y-96079576D01*
X179119666Y-96148335D01*
X179072067Y-96199463D01*
X179067561Y-96202137D01*
X179004279Y-96219500D01*
X144528121Y-96219500D01*
X144522713Y-96219382D01*
X144517306Y-96219145D01*
X144511912Y-96218792D01*
X144490770Y-96216942D01*
X144490770Y-96216941D01*
X144367844Y-96206187D01*
X144357128Y-96204776D01*
X144346503Y-96202903D01*
X144335947Y-96200563D01*
X144204111Y-96165238D01*
X144193802Y-96161987D01*
X144183653Y-96158293D01*
X144173676Y-96154159D01*
X144049992Y-96096485D01*
X144040401Y-96091493D01*
X144031048Y-96086093D01*
X144021947Y-96080296D01*
X143910129Y-96002000D01*
X143901553Y-95995419D01*
X143893288Y-95988484D01*
X143885312Y-95981175D01*
X143788823Y-95884686D01*
X143781514Y-95876710D01*
X143774579Y-95868445D01*
X143768000Y-95859872D01*
X143689698Y-95748045D01*
X143683908Y-95738956D01*
X143678499Y-95729585D01*
X143673513Y-95720006D01*
X143672936Y-95718769D01*
X143615839Y-95596322D01*
X143611701Y-95586333D01*
X143609578Y-95580500D01*
X143608012Y-95576199D01*
X143604760Y-95565885D01*
X143587235Y-95500479D01*
X143587235Y-95500478D01*
X143569434Y-95434049D01*
X143567098Y-95423513D01*
X143565216Y-95412839D01*
X143563813Y-95402172D01*
X143551207Y-95258084D01*
X143550854Y-95252691D01*
X143550618Y-95247281D01*
X143550500Y-95241877D01*
X143550500Y-94854680D01*
X148759499Y-94854680D01*
X148774028Y-94927717D01*
X148774032Y-94927735D01*
X148774033Y-94927739D01*
X148777480Y-94933826D01*
X148780816Y-94937891D01*
X148829398Y-95010600D01*
X148829403Y-95010604D01*
X148895566Y-95054812D01*
X148895568Y-95054813D01*
X148912258Y-95065965D01*
X148912260Y-95065966D01*
X148912264Y-95065967D01*
X148912280Y-95065970D01*
X148912288Y-95065972D01*
X148957021Y-95074869D01*
X148977681Y-95078979D01*
X148980415Y-95079703D01*
X148985323Y-95080500D01*
X150734676Y-95080500D01*
X150738796Y-95080500D01*
X150746648Y-95078117D01*
X150807740Y-95065966D01*
X150890601Y-95010601D01*
X150945966Y-94927740D01*
X150960500Y-94854674D01*
X150960500Y-93893384D01*
X151299500Y-93893384D01*
X151299500Y-94066610D01*
X151326578Y-94237580D01*
X151326598Y-94237701D01*
X151380127Y-94402445D01*
X151458768Y-94556788D01*
X151560586Y-94696928D01*
X151683072Y-94819414D01*
X151823212Y-94921232D01*
X151977555Y-94999873D01*
X152142299Y-95053402D01*
X152313389Y-95080500D01*
X152313390Y-95080500D01*
X152486610Y-95080500D01*
X152486611Y-95080500D01*
X152657701Y-95053402D01*
X152822445Y-94999873D01*
X152976788Y-94921232D01*
X153116928Y-94819414D01*
X153239414Y-94696928D01*
X153341232Y-94556788D01*
X153419873Y-94402445D01*
X153473402Y-94237701D01*
X153500500Y-94066611D01*
X153500500Y-93893389D01*
X153500499Y-93893384D01*
X153839500Y-93893384D01*
X153839500Y-94066610D01*
X153866578Y-94237580D01*
X153866598Y-94237701D01*
X153920127Y-94402445D01*
X153998768Y-94556788D01*
X154100586Y-94696928D01*
X154223072Y-94819414D01*
X154363212Y-94921232D01*
X154517555Y-94999873D01*
X154682299Y-95053402D01*
X154853389Y-95080500D01*
X154853390Y-95080500D01*
X155026610Y-95080500D01*
X155026611Y-95080500D01*
X155197701Y-95053402D01*
X155362445Y-94999873D01*
X155516788Y-94921232D01*
X155656928Y-94819414D01*
X155779414Y-94696928D01*
X155881232Y-94556788D01*
X155959873Y-94402445D01*
X156013402Y-94237701D01*
X156040500Y-94066611D01*
X156040500Y-93893389D01*
X156040499Y-93893384D01*
X156379500Y-93893384D01*
X156379500Y-94066610D01*
X156406578Y-94237580D01*
X156406598Y-94237701D01*
X156460127Y-94402445D01*
X156538768Y-94556788D01*
X156640586Y-94696928D01*
X156763072Y-94819414D01*
X156903212Y-94921232D01*
X157057555Y-94999873D01*
X157222299Y-95053402D01*
X157393389Y-95080500D01*
X157393390Y-95080500D01*
X157566610Y-95080500D01*
X157566611Y-95080500D01*
X157737701Y-95053402D01*
X157902445Y-94999873D01*
X158056788Y-94921232D01*
X158196928Y-94819414D01*
X158319414Y-94696928D01*
X158421232Y-94556788D01*
X158499873Y-94402445D01*
X158553402Y-94237701D01*
X158580500Y-94066611D01*
X158580500Y-93893389D01*
X158580499Y-93893384D01*
X158919500Y-93893384D01*
X158919500Y-94066610D01*
X158946578Y-94237580D01*
X158946598Y-94237701D01*
X159000127Y-94402445D01*
X159078768Y-94556788D01*
X159180586Y-94696928D01*
X159303072Y-94819414D01*
X159443212Y-94921232D01*
X159597555Y-94999873D01*
X159762299Y-95053402D01*
X159933389Y-95080500D01*
X159933390Y-95080500D01*
X160106610Y-95080500D01*
X160106611Y-95080500D01*
X160277701Y-95053402D01*
X160442445Y-94999873D01*
X160596788Y-94921232D01*
X160736928Y-94819414D01*
X160859414Y-94696928D01*
X160961232Y-94556788D01*
X161039873Y-94402445D01*
X161093402Y-94237701D01*
X161120500Y-94066611D01*
X161120500Y-93893389D01*
X161120499Y-93893384D01*
X161459500Y-93893384D01*
X161459500Y-94066610D01*
X161486578Y-94237580D01*
X161486598Y-94237701D01*
X161540127Y-94402445D01*
X161618768Y-94556788D01*
X161720586Y-94696928D01*
X161843072Y-94819414D01*
X161983212Y-94921232D01*
X162137555Y-94999873D01*
X162302299Y-95053402D01*
X162473389Y-95080500D01*
X162473390Y-95080500D01*
X162646610Y-95080500D01*
X162646611Y-95080500D01*
X162817701Y-95053402D01*
X162982445Y-94999873D01*
X163136788Y-94921232D01*
X163276928Y-94819414D01*
X163399414Y-94696928D01*
X163501232Y-94556788D01*
X163579873Y-94402445D01*
X163633402Y-94237701D01*
X163660500Y-94066611D01*
X163660500Y-93893389D01*
X163660499Y-93893384D01*
X163999500Y-93893384D01*
X163999500Y-94066610D01*
X164026578Y-94237580D01*
X164026598Y-94237701D01*
X164080127Y-94402445D01*
X164158768Y-94556788D01*
X164260586Y-94696928D01*
X164383072Y-94819414D01*
X164523212Y-94921232D01*
X164677555Y-94999873D01*
X164842299Y-95053402D01*
X165013389Y-95080500D01*
X165013390Y-95080500D01*
X165186610Y-95080500D01*
X165186611Y-95080500D01*
X165357701Y-95053402D01*
X165522445Y-94999873D01*
X165676788Y-94921232D01*
X165816928Y-94819414D01*
X165939414Y-94696928D01*
X166041232Y-94556788D01*
X166119873Y-94402445D01*
X166173402Y-94237701D01*
X166200500Y-94066611D01*
X166200500Y-93893389D01*
X166200499Y-93893384D01*
X166539500Y-93893384D01*
X166539500Y-94066610D01*
X166566578Y-94237580D01*
X166566598Y-94237701D01*
X166620127Y-94402445D01*
X166698768Y-94556788D01*
X166800586Y-94696928D01*
X166923072Y-94819414D01*
X167063212Y-94921232D01*
X167217555Y-94999873D01*
X167382299Y-95053402D01*
X167553389Y-95080500D01*
X167553390Y-95080500D01*
X167726610Y-95080500D01*
X167726611Y-95080500D01*
X167897701Y-95053402D01*
X168062445Y-94999873D01*
X168216788Y-94921232D01*
X168356928Y-94819414D01*
X168479414Y-94696928D01*
X168581232Y-94556788D01*
X168659873Y-94402445D01*
X168713402Y-94237701D01*
X168740500Y-94066611D01*
X168740500Y-93893389D01*
X168713402Y-93722299D01*
X168659873Y-93557555D01*
X168581232Y-93403212D01*
X168479414Y-93263072D01*
X168356928Y-93140586D01*
X168216788Y-93038768D01*
X168204072Y-93032289D01*
X168062449Y-92960128D01*
X167906532Y-92909467D01*
X167902010Y-92907614D01*
X167892820Y-92905444D01*
X167888057Y-92905070D01*
X167861198Y-92900816D01*
X167766271Y-92885781D01*
X167750407Y-92883268D01*
X167726614Y-92879500D01*
X167726611Y-92879500D01*
X167553389Y-92879500D01*
X167553388Y-92879500D01*
X167513726Y-92885781D01*
X167513725Y-92885780D01*
X167382304Y-92906596D01*
X167217549Y-92960129D01*
X167063211Y-93038767D01*
X167041125Y-93054815D01*
X166934943Y-93131961D01*
X166927562Y-93136094D01*
X166796094Y-93267562D01*
X166791963Y-93274940D01*
X166786512Y-93282443D01*
X166786510Y-93282446D01*
X166698768Y-93403210D01*
X166620129Y-93557547D01*
X166566596Y-93722301D01*
X166556349Y-93787006D01*
X166556349Y-93787008D01*
X166539500Y-93893384D01*
X166200499Y-93893384D01*
X166173402Y-93722299D01*
X166119873Y-93557555D01*
X166041232Y-93403212D01*
X165939414Y-93263072D01*
X165816928Y-93140586D01*
X165676788Y-93038768D01*
X165664072Y-93032289D01*
X165522449Y-92960128D01*
X165366532Y-92909467D01*
X165362010Y-92907614D01*
X165352820Y-92905444D01*
X165348057Y-92905070D01*
X165321198Y-92900816D01*
X165226271Y-92885781D01*
X165210407Y-92883268D01*
X165186614Y-92879500D01*
X165186611Y-92879500D01*
X165013389Y-92879500D01*
X165013388Y-92879500D01*
X164973726Y-92885781D01*
X164973725Y-92885780D01*
X164842304Y-92906596D01*
X164677549Y-92960129D01*
X164523211Y-93038767D01*
X164501125Y-93054815D01*
X164394943Y-93131961D01*
X164387562Y-93136094D01*
X164256094Y-93267562D01*
X164251963Y-93274940D01*
X164246512Y-93282443D01*
X164246510Y-93282446D01*
X164158768Y-93403210D01*
X164080129Y-93557547D01*
X164026596Y-93722301D01*
X164016349Y-93787006D01*
X164016349Y-93787008D01*
X163999500Y-93893384D01*
X163660499Y-93893384D01*
X163633402Y-93722299D01*
X163579873Y-93557555D01*
X163501232Y-93403212D01*
X163399414Y-93263072D01*
X163276928Y-93140586D01*
X163136788Y-93038768D01*
X163124072Y-93032289D01*
X162982449Y-92960128D01*
X162826532Y-92909467D01*
X162822010Y-92907614D01*
X162812820Y-92905444D01*
X162808057Y-92905070D01*
X162781198Y-92900816D01*
X162686271Y-92885781D01*
X162670407Y-92883268D01*
X162646614Y-92879500D01*
X162646611Y-92879500D01*
X162473389Y-92879500D01*
X162473388Y-92879500D01*
X162433726Y-92885781D01*
X162433725Y-92885780D01*
X162302304Y-92906596D01*
X162137549Y-92960129D01*
X161983211Y-93038767D01*
X161961125Y-93054815D01*
X161854943Y-93131961D01*
X161847562Y-93136094D01*
X161716094Y-93267562D01*
X161711963Y-93274940D01*
X161706512Y-93282443D01*
X161706510Y-93282446D01*
X161618768Y-93403210D01*
X161540129Y-93557547D01*
X161486596Y-93722301D01*
X161476349Y-93787006D01*
X161476349Y-93787008D01*
X161459500Y-93893384D01*
X161120499Y-93893384D01*
X161093402Y-93722299D01*
X161039873Y-93557555D01*
X160961232Y-93403212D01*
X160859414Y-93263072D01*
X160736928Y-93140586D01*
X160596788Y-93038768D01*
X160584072Y-93032289D01*
X160442449Y-92960128D01*
X160286532Y-92909467D01*
X160282010Y-92907614D01*
X160272820Y-92905444D01*
X160268057Y-92905070D01*
X160241198Y-92900816D01*
X160146271Y-92885781D01*
X160130407Y-92883268D01*
X160106614Y-92879500D01*
X160106611Y-92879500D01*
X159933389Y-92879500D01*
X159933388Y-92879500D01*
X159893726Y-92885781D01*
X159893725Y-92885780D01*
X159762304Y-92906596D01*
X159597549Y-92960129D01*
X159443211Y-93038767D01*
X159421125Y-93054815D01*
X159314943Y-93131961D01*
X159307562Y-93136094D01*
X159176094Y-93267562D01*
X159171963Y-93274940D01*
X159166512Y-93282443D01*
X159166510Y-93282446D01*
X159078768Y-93403210D01*
X159000129Y-93557547D01*
X158946596Y-93722301D01*
X158936349Y-93787006D01*
X158936349Y-93787008D01*
X158919500Y-93893384D01*
X158580499Y-93893384D01*
X158553402Y-93722299D01*
X158499873Y-93557555D01*
X158421232Y-93403212D01*
X158319414Y-93263072D01*
X158196928Y-93140586D01*
X158056788Y-93038768D01*
X158044072Y-93032289D01*
X157902449Y-92960128D01*
X157746532Y-92909467D01*
X157742010Y-92907614D01*
X157732820Y-92905444D01*
X157728057Y-92905070D01*
X157701198Y-92900816D01*
X157606271Y-92885781D01*
X157590407Y-92883268D01*
X157566614Y-92879500D01*
X157566611Y-92879500D01*
X157393389Y-92879500D01*
X157393388Y-92879500D01*
X157353726Y-92885781D01*
X157353725Y-92885780D01*
X157222304Y-92906596D01*
X157057549Y-92960129D01*
X156903211Y-93038767D01*
X156881125Y-93054815D01*
X156774943Y-93131961D01*
X156767562Y-93136094D01*
X156636094Y-93267562D01*
X156631963Y-93274940D01*
X156626512Y-93282443D01*
X156626510Y-93282446D01*
X156538768Y-93403210D01*
X156460129Y-93557547D01*
X156406596Y-93722301D01*
X156396349Y-93787006D01*
X156396349Y-93787008D01*
X156379500Y-93893384D01*
X156040499Y-93893384D01*
X156013402Y-93722299D01*
X155959873Y-93557555D01*
X155881232Y-93403212D01*
X155779414Y-93263072D01*
X155656928Y-93140586D01*
X155516788Y-93038768D01*
X155504072Y-93032289D01*
X155362449Y-92960128D01*
X155206532Y-92909467D01*
X155202010Y-92907614D01*
X155192820Y-92905444D01*
X155188057Y-92905070D01*
X155161198Y-92900816D01*
X155066271Y-92885781D01*
X155050407Y-92883268D01*
X155026614Y-92879500D01*
X155026611Y-92879500D01*
X154853389Y-92879500D01*
X154853388Y-92879500D01*
X154813726Y-92885781D01*
X154813725Y-92885780D01*
X154682304Y-92906596D01*
X154517549Y-92960129D01*
X154363211Y-93038767D01*
X154341125Y-93054815D01*
X154234943Y-93131961D01*
X154227562Y-93136094D01*
X154096094Y-93267562D01*
X154091963Y-93274940D01*
X154086512Y-93282443D01*
X154086510Y-93282446D01*
X153998768Y-93403210D01*
X153920129Y-93557547D01*
X153866596Y-93722301D01*
X153856349Y-93787006D01*
X153856349Y-93787008D01*
X153839500Y-93893384D01*
X153500499Y-93893384D01*
X153473402Y-93722299D01*
X153419873Y-93557555D01*
X153341232Y-93403212D01*
X153239414Y-93263072D01*
X153116928Y-93140586D01*
X152976788Y-93038768D01*
X152964072Y-93032289D01*
X152822449Y-92960128D01*
X152666532Y-92909467D01*
X152662010Y-92907614D01*
X152652820Y-92905444D01*
X152648057Y-92905070D01*
X152621198Y-92900816D01*
X152526271Y-92885781D01*
X152510407Y-92883268D01*
X152486614Y-92879500D01*
X152486611Y-92879500D01*
X152313389Y-92879500D01*
X152313388Y-92879500D01*
X152273726Y-92885781D01*
X152273725Y-92885780D01*
X152142304Y-92906596D01*
X151977549Y-92960129D01*
X151823211Y-93038767D01*
X151801125Y-93054815D01*
X151694943Y-93131961D01*
X151687562Y-93136094D01*
X151556094Y-93267562D01*
X151551963Y-93274940D01*
X151546512Y-93282443D01*
X151546510Y-93282446D01*
X151458768Y-93403210D01*
X151380129Y-93557547D01*
X151326596Y-93722301D01*
X151316349Y-93787006D01*
X151316349Y-93787008D01*
X151299500Y-93893384D01*
X150960500Y-93893384D01*
X150960500Y-93105326D01*
X150960500Y-93105323D01*
X150960500Y-93105139D01*
X150960064Y-93103134D01*
X150945972Y-93032289D01*
X150945967Y-93032266D01*
X150945967Y-93032264D01*
X150945966Y-93032260D01*
X150938777Y-93021501D01*
X150933906Y-93014211D01*
X150890604Y-92949402D01*
X150890600Y-92949398D01*
X150817891Y-92900816D01*
X150813826Y-92897480D01*
X150807739Y-92894033D01*
X150807735Y-92894032D01*
X150807709Y-92894026D01*
X150734680Y-92879500D01*
X150734677Y-92879500D01*
X150734674Y-92879500D01*
X148985326Y-92879500D01*
X148985323Y-92879500D01*
X148985319Y-92879500D01*
X148912285Y-92894027D01*
X148912262Y-92894032D01*
X148912258Y-92894033D01*
X148829399Y-92949399D01*
X148774033Y-93032258D01*
X148774032Y-93032266D01*
X148774028Y-93032281D01*
X148759500Y-93105318D01*
X148759500Y-93105321D01*
X148759500Y-94854678D01*
X148759500Y-94854680D01*
X148759499Y-94854680D01*
X143550500Y-94854680D01*
X143550500Y-89549318D01*
X146727500Y-89549318D01*
X146727500Y-91298678D01*
X146742028Y-91371717D01*
X146742033Y-91371739D01*
X146745656Y-91377161D01*
X146745656Y-91377162D01*
X146771942Y-91416502D01*
X146797399Y-91454601D01*
X146797402Y-91454603D01*
X146797403Y-91454604D01*
X146866896Y-91501037D01*
X146866897Y-91501037D01*
X146880260Y-91509966D01*
X146880264Y-91509967D01*
X146880280Y-91509970D01*
X146880288Y-91509972D01*
X146925021Y-91518869D01*
X146945681Y-91522979D01*
X146948415Y-91523703D01*
X146953323Y-91524500D01*
X148702676Y-91524500D01*
X148706796Y-91524500D01*
X148714648Y-91522117D01*
X148775740Y-91509966D01*
X148858601Y-91454601D01*
X148913966Y-91371740D01*
X148928500Y-91298674D01*
X148928500Y-89549326D01*
X148928500Y-89549323D01*
X148928500Y-89549139D01*
X148928064Y-89547134D01*
X148913972Y-89476289D01*
X148913967Y-89476266D01*
X148913967Y-89476264D01*
X148913966Y-89476260D01*
X148904366Y-89461892D01*
X148858601Y-89393399D01*
X148828800Y-89373487D01*
X148803235Y-89356405D01*
X148775740Y-89338033D01*
X148775737Y-89338032D01*
X148775735Y-89338032D01*
X148775725Y-89338030D01*
X148775709Y-89338026D01*
X148702680Y-89323500D01*
X148702677Y-89323500D01*
X148702674Y-89323500D01*
X146953326Y-89323500D01*
X146953323Y-89323500D01*
X146953319Y-89323500D01*
X146880285Y-89338027D01*
X146880262Y-89338032D01*
X146880258Y-89338033D01*
X146797399Y-89393399D01*
X146742033Y-89476258D01*
X146742032Y-89476266D01*
X146742028Y-89476281D01*
X146727500Y-89549318D01*
X143550500Y-89549318D01*
X143550500Y-87797423D01*
X146728000Y-87797423D01*
X146728000Y-87970575D01*
X146755084Y-88141584D01*
X146783423Y-88228799D01*
X146808591Y-88306257D01*
X146808592Y-88306258D01*
X146808593Y-88306263D01*
X146887194Y-88460522D01*
X146887196Y-88460525D01*
X146887198Y-88460528D01*
X146951219Y-88548646D01*
X146951220Y-88548647D01*
X147280701Y-88219165D01*
X147342022Y-88185682D01*
X147411713Y-88190666D01*
X147456061Y-88219167D01*
X147492830Y-88255936D01*
X147526315Y-88317259D01*
X147521331Y-88386951D01*
X147492830Y-88431298D01*
X147163351Y-88760776D01*
X147163350Y-88760778D01*
X147163352Y-88760780D01*
X147251471Y-88824801D01*
X147266600Y-88832510D01*
X147403039Y-88902031D01*
X147405742Y-88903408D01*
X147570415Y-88956914D01*
X147741429Y-88984000D01*
X147914570Y-88984000D01*
X147914571Y-88984000D01*
X148085584Y-88956914D01*
X148250257Y-88903408D01*
X148404525Y-88824803D01*
X148460050Y-88784460D01*
X148486789Y-88774919D01*
X148492647Y-88760777D01*
X148163168Y-88431299D01*
X148129683Y-88369976D01*
X148134667Y-88300285D01*
X148163166Y-88255939D01*
X148199939Y-88219166D01*
X148261260Y-88185683D01*
X148330952Y-88190667D01*
X148375299Y-88219168D01*
X148704777Y-88548647D01*
X148704777Y-88548646D01*
X148704778Y-88548647D01*
X148704778Y-88548646D01*
X148718246Y-88543067D01*
X148724463Y-88521897D01*
X148728451Y-88516063D01*
X148768803Y-88460525D01*
X148847408Y-88306257D01*
X148900914Y-88141584D01*
X148928000Y-87970571D01*
X148928000Y-87797428D01*
X148900914Y-87626415D01*
X148847408Y-87461742D01*
X148768801Y-87307471D01*
X148704780Y-87219352D01*
X148704778Y-87219351D01*
X148704777Y-87219350D01*
X148704776Y-87219351D01*
X148375298Y-87548830D01*
X148313975Y-87582315D01*
X148244283Y-87577331D01*
X148199936Y-87548830D01*
X148163167Y-87512061D01*
X148129682Y-87450738D01*
X148134666Y-87381046D01*
X148163165Y-87336701D01*
X148492647Y-87007220D01*
X148492646Y-87007219D01*
X148404528Y-86943198D01*
X148404526Y-86943197D01*
X148404522Y-86943194D01*
X148250263Y-86864593D01*
X148250259Y-86864592D01*
X148250257Y-86864591D01*
X148183892Y-86843027D01*
X148085584Y-86811084D01*
X147914575Y-86784000D01*
X147914571Y-86784000D01*
X147741429Y-86784000D01*
X147741425Y-86784000D01*
X147570416Y-86811084D01*
X147570410Y-86811086D01*
X147464892Y-86845371D01*
X147405742Y-86864591D01*
X147405740Y-86864591D01*
X147405740Y-86864592D01*
X147405735Y-86864593D01*
X147251484Y-86943190D01*
X147251479Y-86943193D01*
X147251478Y-86943194D01*
X147216564Y-86968560D01*
X147163352Y-87007220D01*
X147492832Y-87336700D01*
X147526317Y-87398023D01*
X147521333Y-87467715D01*
X147492832Y-87512062D01*
X147456062Y-87548832D01*
X147394739Y-87582317D01*
X147325047Y-87577333D01*
X147280700Y-87548832D01*
X146951220Y-87219352D01*
X146919406Y-87263142D01*
X146887190Y-87307484D01*
X146808593Y-87461735D01*
X146808591Y-87461740D01*
X146808591Y-87461742D01*
X146801391Y-87483901D01*
X146755084Y-87626414D01*
X146728000Y-87797423D01*
X143550500Y-87797423D01*
X143550500Y-85257383D01*
X146727500Y-85257383D01*
X146727500Y-85430615D01*
X146752666Y-85589514D01*
X146752667Y-85589514D01*
X146754598Y-85601701D01*
X146804153Y-85754215D01*
X146808126Y-85766441D01*
X146808129Y-85766449D01*
X146829819Y-85809017D01*
X146849180Y-85847016D01*
X146876968Y-85901555D01*
X146886766Y-85920784D01*
X146886770Y-85920792D01*
X146916572Y-85961810D01*
X146988586Y-86060928D01*
X147111072Y-86183414D01*
X147251212Y-86285232D01*
X147405555Y-86363873D01*
X147570299Y-86417402D01*
X147741389Y-86444500D01*
X147741390Y-86444500D01*
X147914610Y-86444500D01*
X147914611Y-86444500D01*
X148085701Y-86417402D01*
X148250445Y-86363873D01*
X148404788Y-86285232D01*
X148544928Y-86183414D01*
X148667414Y-86060928D01*
X148769232Y-85920788D01*
X148847873Y-85766445D01*
X148901402Y-85601701D01*
X148928500Y-85430611D01*
X148928500Y-85257389D01*
X148901402Y-85086299D01*
X148847873Y-84921555D01*
X148769232Y-84767212D01*
X148667414Y-84627072D01*
X148544928Y-84504586D01*
X148462449Y-84444661D01*
X148404792Y-84402770D01*
X148404784Y-84402766D01*
X148299895Y-84349323D01*
X148267944Y-84333043D01*
X148262604Y-84329163D01*
X148238287Y-84319090D01*
X148231767Y-84318058D01*
X148158694Y-84294315D01*
X148094532Y-84273467D01*
X148090010Y-84271614D01*
X148080820Y-84269444D01*
X148076057Y-84269070D01*
X148029430Y-84261685D01*
X147954271Y-84249781D01*
X147938407Y-84247268D01*
X147914614Y-84243500D01*
X147914611Y-84243500D01*
X147741389Y-84243500D01*
X147741388Y-84243500D01*
X147701726Y-84249781D01*
X147701725Y-84249780D01*
X147570304Y-84270596D01*
X147405549Y-84324129D01*
X147251210Y-84402768D01*
X147193551Y-84444661D01*
X147122943Y-84495961D01*
X147115562Y-84500094D01*
X146984093Y-84631563D01*
X146979961Y-84638942D01*
X146955539Y-84672556D01*
X146955539Y-84672557D01*
X146886768Y-84767210D01*
X146808129Y-84921549D01*
X146808128Y-84921551D01*
X146808128Y-84921552D01*
X146801451Y-84942102D01*
X146754596Y-85086305D01*
X146727500Y-85257383D01*
X143550500Y-85257383D01*
X143550500Y-82717389D01*
X146727500Y-82717389D01*
X146727500Y-82720963D01*
X146727500Y-82890612D01*
X146734327Y-82933718D01*
X146748547Y-83023499D01*
X146754485Y-83060991D01*
X146754598Y-83061701D01*
X146808127Y-83226445D01*
X146886768Y-83380788D01*
X146988586Y-83520928D01*
X147111072Y-83643414D01*
X147251212Y-83745232D01*
X147405555Y-83823873D01*
X147570299Y-83877402D01*
X147741389Y-83904500D01*
X147741390Y-83904500D01*
X147914610Y-83904500D01*
X147914611Y-83904500D01*
X148085701Y-83877402D01*
X148250445Y-83823873D01*
X148404788Y-83745232D01*
X148544928Y-83643414D01*
X148667414Y-83520928D01*
X148769232Y-83380788D01*
X148847873Y-83226445D01*
X148901402Y-83061701D01*
X148928500Y-82890611D01*
X148928500Y-82717389D01*
X148901402Y-82546299D01*
X148847873Y-82381555D01*
X148769232Y-82227212D01*
X148667414Y-82087072D01*
X148544928Y-81964586D01*
X148404788Y-81862768D01*
X148404782Y-81862764D01*
X148402315Y-81861507D01*
X148402313Y-81861507D01*
X148267943Y-81793042D01*
X148262603Y-81789163D01*
X148238287Y-81779090D01*
X148231767Y-81778058D01*
X148128484Y-81744499D01*
X148094532Y-81733467D01*
X148090010Y-81731614D01*
X148080820Y-81729444D01*
X148076057Y-81729070D01*
X148001163Y-81717208D01*
X147954271Y-81709781D01*
X147938407Y-81707268D01*
X147914614Y-81703500D01*
X147914611Y-81703500D01*
X147741389Y-81703500D01*
X147741388Y-81703500D01*
X147701726Y-81709781D01*
X147701725Y-81709780D01*
X147570304Y-81730596D01*
X147405549Y-81784129D01*
X147251210Y-81862768D01*
X147171256Y-81920859D01*
X147171255Y-81920859D01*
X147122941Y-81955961D01*
X147115564Y-81960092D01*
X146984095Y-82091561D01*
X146979965Y-82098937D01*
X146976129Y-82104218D01*
X146967032Y-82116739D01*
X146886768Y-82227211D01*
X146886765Y-82227215D01*
X146886764Y-82227218D01*
X146808129Y-82381549D01*
X146754596Y-82546305D01*
X146754595Y-82546306D01*
X146731099Y-82694660D01*
X146731094Y-82694694D01*
X146730891Y-82695978D01*
X146727500Y-82717389D01*
X143550500Y-82717389D01*
X143550500Y-77797352D01*
X146153327Y-77797352D01*
X146153327Y-77942302D01*
X146180788Y-78044786D01*
X146188977Y-78075347D01*
X146190845Y-78082317D01*
X146190845Y-78082318D01*
X146261462Y-78204629D01*
X146262950Y-78207395D01*
X146263180Y-78207704D01*
X146365812Y-78310336D01*
X146366501Y-78310832D01*
X146369005Y-78312180D01*
X146487896Y-78380822D01*
X146490914Y-78382696D01*
X146491341Y-78382810D01*
X146491342Y-78382811D01*
X146631352Y-78420327D01*
X146631355Y-78420327D01*
X146776299Y-78420327D01*
X146776302Y-78420327D01*
X146916312Y-78382811D01*
X146916313Y-78382809D01*
X146932080Y-78378585D01*
X146932327Y-78379508D01*
X146940573Y-78376402D01*
X146959141Y-78372709D01*
X146983330Y-78370327D01*
X148617670Y-78370327D01*
X148652606Y-78375350D01*
X148667604Y-78379754D01*
X148726355Y-78417499D01*
X148727542Y-78418868D01*
X148755018Y-78473729D01*
X148756663Y-78481287D01*
X148759500Y-78507658D01*
X148759500Y-79614678D01*
X148759500Y-79614680D01*
X148759499Y-79614680D01*
X148772653Y-79680803D01*
X148774032Y-79687735D01*
X148774033Y-79687739D01*
X148774034Y-79687740D01*
X148782348Y-79700183D01*
X148782347Y-79700183D01*
X148829399Y-79770601D01*
X148906536Y-79822142D01*
X148906537Y-79822142D01*
X148912258Y-79825965D01*
X148912260Y-79825966D01*
X148912264Y-79825967D01*
X148912280Y-79825970D01*
X148912288Y-79825972D01*
X148950723Y-79833617D01*
X148977681Y-79838979D01*
X148980415Y-79839703D01*
X148985323Y-79840500D01*
X150734676Y-79840500D01*
X150738796Y-79840500D01*
X150746648Y-79838117D01*
X150807740Y-79825966D01*
X150890601Y-79770601D01*
X150945966Y-79687740D01*
X150960500Y-79614674D01*
X150960500Y-78653423D01*
X151300000Y-78653423D01*
X151300000Y-78826575D01*
X151327084Y-78997584D01*
X151351114Y-79071538D01*
X151380591Y-79162257D01*
X151380592Y-79162258D01*
X151380593Y-79162263D01*
X151459194Y-79316522D01*
X151459196Y-79316525D01*
X151459198Y-79316528D01*
X151523219Y-79404646D01*
X151523220Y-79404647D01*
X151852701Y-79075165D01*
X151914022Y-79041682D01*
X151983713Y-79046666D01*
X152028061Y-79075167D01*
X152064830Y-79111936D01*
X152098315Y-79173259D01*
X152093331Y-79242951D01*
X152064830Y-79287298D01*
X151735351Y-79616776D01*
X151735350Y-79616778D01*
X151735352Y-79616780D01*
X151823471Y-79680801D01*
X151977742Y-79759408D01*
X152142415Y-79812914D01*
X152313429Y-79840000D01*
X152486570Y-79840000D01*
X152486571Y-79840000D01*
X152657584Y-79812914D01*
X152822257Y-79759408D01*
X152976525Y-79680803D01*
X153032050Y-79640460D01*
X153058789Y-79630919D01*
X153064647Y-79616777D01*
X152735168Y-79287299D01*
X152701683Y-79225976D01*
X152706667Y-79156285D01*
X152735166Y-79111939D01*
X152771939Y-79075166D01*
X152833260Y-79041683D01*
X152902952Y-79046667D01*
X152947299Y-79075168D01*
X153276777Y-79404647D01*
X153276777Y-79404646D01*
X153276778Y-79404647D01*
X153276778Y-79404646D01*
X153290246Y-79399067D01*
X153296463Y-79377897D01*
X153300451Y-79372063D01*
X153340803Y-79316525D01*
X153419408Y-79162257D01*
X153472914Y-78997584D01*
X153500000Y-78826571D01*
X153500000Y-78653428D01*
X153472914Y-78482415D01*
X153419408Y-78317742D01*
X153340801Y-78163471D01*
X153276780Y-78075352D01*
X153276778Y-78075351D01*
X153276777Y-78075350D01*
X153276776Y-78075351D01*
X152947298Y-78404830D01*
X152885975Y-78438315D01*
X152816283Y-78433331D01*
X152771936Y-78404830D01*
X152735167Y-78368061D01*
X152701682Y-78306738D01*
X152706666Y-78237046D01*
X152735165Y-78192701D01*
X153064647Y-77863220D01*
X153064646Y-77863219D01*
X152976528Y-77799198D01*
X152976526Y-77799197D01*
X152976522Y-77799194D01*
X152822263Y-77720593D01*
X152822259Y-77720592D01*
X152822257Y-77720591D01*
X152755892Y-77699027D01*
X152657584Y-77667084D01*
X152486575Y-77640000D01*
X152486571Y-77640000D01*
X152313429Y-77640000D01*
X152313425Y-77640000D01*
X152142416Y-77667084D01*
X152142410Y-77667086D01*
X152043684Y-77699165D01*
X151977742Y-77720591D01*
X151977740Y-77720591D01*
X151977740Y-77720592D01*
X151977735Y-77720593D01*
X151823484Y-77799190D01*
X151823479Y-77799193D01*
X151823478Y-77799194D01*
X151815828Y-77804752D01*
X151735352Y-77863220D01*
X152064832Y-78192700D01*
X152098317Y-78254023D01*
X152093333Y-78323715D01*
X152064832Y-78368062D01*
X152028062Y-78404832D01*
X151966739Y-78438317D01*
X151897047Y-78433333D01*
X151852700Y-78404832D01*
X151523220Y-78075352D01*
X151459388Y-78163212D01*
X151459190Y-78163484D01*
X151380593Y-78317735D01*
X151380591Y-78317740D01*
X151380591Y-78317742D01*
X151373391Y-78339901D01*
X151327084Y-78482414D01*
X151300000Y-78653423D01*
X150960500Y-78653423D01*
X150960500Y-77865326D01*
X150960500Y-77865323D01*
X150960500Y-77865139D01*
X150960064Y-77863134D01*
X150945972Y-77792289D01*
X150945971Y-77792287D01*
X150945967Y-77792264D01*
X150945966Y-77792260D01*
X150945965Y-77792258D01*
X150945964Y-77792256D01*
X150890601Y-77709399D01*
X150817891Y-77660816D01*
X150813826Y-77657480D01*
X150807739Y-77654033D01*
X150807735Y-77654032D01*
X150807709Y-77654026D01*
X150734680Y-77639500D01*
X150734677Y-77639500D01*
X150734674Y-77639500D01*
X149536506Y-77639500D01*
X149501570Y-77634477D01*
X149476328Y-77627065D01*
X149423583Y-77595769D01*
X149297143Y-77469329D01*
X149297141Y-77469327D01*
X149237666Y-77434989D01*
X149183014Y-77403435D01*
X149103706Y-77382185D01*
X149055719Y-77369327D01*
X149055718Y-77369327D01*
X146983330Y-77369327D01*
X146959138Y-77366944D01*
X146935545Y-77362251D01*
X146919874Y-77358052D01*
X146916306Y-77356840D01*
X146881310Y-77347464D01*
X146828805Y-77333395D01*
X146776302Y-77319327D01*
X146776301Y-77319327D01*
X146631352Y-77319327D01*
X146502821Y-77353766D01*
X146502820Y-77353767D01*
X146495165Y-77355818D01*
X146491337Y-77356844D01*
X146365818Y-77429312D01*
X146365811Y-77429317D01*
X146365795Y-77429332D01*
X146263332Y-77531795D01*
X146263317Y-77531811D01*
X146263312Y-77531819D01*
X146190844Y-77657336D01*
X146190831Y-77657368D01*
X146190736Y-77657741D01*
X146153327Y-77797352D01*
X143550500Y-77797352D01*
X143550500Y-77478121D01*
X143550618Y-77472718D01*
X143550854Y-77467307D01*
X143551208Y-77461902D01*
X143551701Y-77456275D01*
X143554059Y-77429318D01*
X143563811Y-77317839D01*
X143565223Y-77307119D01*
X143567093Y-77296513D01*
X143569431Y-77285962D01*
X143604760Y-77154112D01*
X143608015Y-77143791D01*
X143611706Y-77133653D01*
X143615839Y-77123676D01*
X143673529Y-76999958D01*
X143678493Y-76990422D01*
X143683915Y-76981032D01*
X143689702Y-76971947D01*
X143767994Y-76860136D01*
X143774572Y-76851562D01*
X143774580Y-76851553D01*
X143781515Y-76843287D01*
X143788810Y-76835325D01*
X143885325Y-76738810D01*
X143893294Y-76731509D01*
X143901556Y-76724577D01*
X143910147Y-76717986D01*
X143912857Y-76716089D01*
X143965554Y-76679190D01*
X144005952Y-76650903D01*
X144005963Y-76650894D01*
X144006016Y-76650858D01*
X144021938Y-76639709D01*
X144031051Y-76633904D01*
X144040407Y-76628502D01*
X144049958Y-76623529D01*
X144173691Y-76565832D01*
X144183653Y-76561706D01*
X144193791Y-76558015D01*
X144204112Y-76554760D01*
X144335962Y-76519431D01*
X144346506Y-76517094D01*
X144357122Y-76515222D01*
X144367834Y-76513812D01*
X144511942Y-76501203D01*
X144517291Y-76500853D01*
X144522733Y-76500616D01*
X144528104Y-76500500D01*
X179155915Y-76500500D01*
X179190842Y-76505521D01*
G37*
%TD.AperFunction*%
%TA.AperFunction,Conductor*%
G36*
X194727266Y-76500616D02*
G01*
X194732707Y-76500853D01*
X194738056Y-76501203D01*
X194882156Y-76513811D01*
X194892870Y-76515221D01*
X194903488Y-76517093D01*
X194914051Y-76519435D01*
X194935690Y-76525233D01*
X195045887Y-76554760D01*
X195056198Y-76558012D01*
X195065006Y-76561218D01*
X195066346Y-76561706D01*
X195076327Y-76565841D01*
X195200012Y-76623516D01*
X195209585Y-76628499D01*
X195218948Y-76633904D01*
X195228045Y-76639698D01*
X195339872Y-76718000D01*
X195348445Y-76724579D01*
X195356710Y-76731514D01*
X195364686Y-76738823D01*
X195461175Y-76835312D01*
X195468484Y-76843288D01*
X195475419Y-76851553D01*
X195482000Y-76860129D01*
X195560296Y-76971947D01*
X195566093Y-76981048D01*
X195571493Y-76990401D01*
X195576485Y-76999992D01*
X195634159Y-77123676D01*
X195638293Y-77133653D01*
X195641987Y-77143802D01*
X195645238Y-77154111D01*
X195680563Y-77285947D01*
X195682904Y-77296508D01*
X195684775Y-77307119D01*
X195686187Y-77317844D01*
X195698791Y-77461906D01*
X195699144Y-77467283D01*
X195699381Y-77472690D01*
X195699500Y-77478120D01*
X195699500Y-95241879D01*
X195699381Y-95247310D01*
X195699144Y-95252716D01*
X195698791Y-95258092D01*
X195686187Y-95402154D01*
X195684775Y-95412879D01*
X195682904Y-95423490D01*
X195680563Y-95434051D01*
X195645238Y-95565887D01*
X195641985Y-95576203D01*
X195640421Y-95580500D01*
X195638295Y-95586340D01*
X195634159Y-95596322D01*
X195576485Y-95720006D01*
X195571493Y-95729597D01*
X195566100Y-95738939D01*
X195560289Y-95748061D01*
X195554740Y-95755987D01*
X195482004Y-95859864D01*
X195475419Y-95868445D01*
X195468484Y-95876710D01*
X195461175Y-95884686D01*
X195364686Y-95981175D01*
X195356710Y-95988484D01*
X195348445Y-95995419D01*
X195339864Y-96002004D01*
X195289841Y-96037031D01*
X195228061Y-96080289D01*
X195218939Y-96086100D01*
X195209597Y-96091493D01*
X195200006Y-96096485D01*
X195076322Y-96154159D01*
X195066340Y-96158295D01*
X195056203Y-96161985D01*
X195045887Y-96165238D01*
X194914051Y-96200563D01*
X194903490Y-96202904D01*
X194892879Y-96204775D01*
X194882155Y-96206187D01*
X194759245Y-96216941D01*
X194756148Y-96217212D01*
X194744132Y-96218263D01*
X194738087Y-96218792D01*
X194732714Y-96219144D01*
X194727307Y-96219381D01*
X194721877Y-96219500D01*
X180281163Y-96219500D01*
X180246224Y-96214476D01*
X180232906Y-96210565D01*
X180174129Y-96172789D01*
X180145107Y-96109232D01*
X180144643Y-96106004D01*
X180147605Y-96056270D01*
X180149608Y-96048794D01*
X180150918Y-96044935D01*
X180152754Y-96037060D01*
X180189229Y-95900936D01*
X180189229Y-95755986D01*
X180188645Y-95753808D01*
X180184456Y-95718769D01*
X180184786Y-95704895D01*
X180206060Y-95638345D01*
X180259936Y-95593859D01*
X180267761Y-95590509D01*
X180316568Y-95580500D01*
X191735486Y-95580500D01*
X191735488Y-95580500D01*
X191837349Y-95553207D01*
X191928674Y-95500480D01*
X194831469Y-92597681D01*
X194831476Y-92597677D01*
X194848912Y-92580241D01*
X194848913Y-92580241D01*
X194923480Y-92505674D01*
X194976207Y-92414348D01*
X194984948Y-92381727D01*
X195003501Y-92312488D01*
X195003501Y-92207034D01*
X195003501Y-92199431D01*
X195003501Y-92196362D01*
X195003500Y-92196320D01*
X195003500Y-77456275D01*
X195003500Y-77456273D01*
X194989342Y-77403435D01*
X194976207Y-77354412D01*
X194923480Y-77263087D01*
X194385181Y-76724788D01*
X194376966Y-76709743D01*
X194364032Y-76696538D01*
X194358610Y-76686608D01*
X194354819Y-76669185D01*
X194351696Y-76663465D01*
X194352160Y-76656964D01*
X194343757Y-76618338D01*
X194368171Y-76552873D01*
X194424101Y-76511001D01*
X194427980Y-76509554D01*
X194431316Y-76508311D01*
X194474630Y-76500500D01*
X194721895Y-76500500D01*
X194727266Y-76500616D01*
G37*
%TD.AperFunction*%
%TA.AperFunction,Conductor*%
G36*
X179730772Y-91784146D02*
G01*
X179738673Y-91787309D01*
X179780272Y-91814747D01*
X180208839Y-92243314D01*
X180302025Y-92336500D01*
X180342373Y-92359795D01*
X180416153Y-92402392D01*
X180543446Y-92436500D01*
X180543447Y-92436500D01*
X183099494Y-92436500D01*
X183134426Y-92441521D01*
X183159670Y-92448934D01*
X183212416Y-92480230D01*
X183532262Y-92800076D01*
X183553412Y-92828328D01*
X183556743Y-92834428D01*
X183571596Y-92902701D01*
X183547181Y-92968166D01*
X183491248Y-93010038D01*
X183423288Y-93015387D01*
X183417484Y-93014211D01*
X183385812Y-93003165D01*
X183302263Y-92960593D01*
X183302259Y-92960592D01*
X183302257Y-92960591D01*
X183211405Y-92931071D01*
X183137584Y-92907084D01*
X182966575Y-92880000D01*
X182966571Y-92880000D01*
X182793429Y-92880000D01*
X182793425Y-92880000D01*
X182622416Y-92907084D01*
X182622410Y-92907086D01*
X182550967Y-92930300D01*
X182457742Y-92960591D01*
X182457740Y-92960591D01*
X182457740Y-92960592D01*
X182457735Y-92960593D01*
X182303484Y-93039190D01*
X182303479Y-93039193D01*
X182303478Y-93039194D01*
X182224761Y-93096384D01*
X182215352Y-93103220D01*
X182544832Y-93432700D01*
X182578317Y-93494023D01*
X182573333Y-93563715D01*
X182544832Y-93608062D01*
X182508062Y-93644832D01*
X182446739Y-93678317D01*
X182377047Y-93673333D01*
X182332700Y-93644832D01*
X182003220Y-93315352D01*
X181939388Y-93403212D01*
X181939190Y-93403484D01*
X181860593Y-93557735D01*
X181860591Y-93557740D01*
X181860591Y-93557742D01*
X181855136Y-93574530D01*
X181807084Y-93722414D01*
X181780000Y-93893423D01*
X181780000Y-94066575D01*
X181807084Y-94237584D01*
X181839027Y-94335892D01*
X181860591Y-94402257D01*
X181860592Y-94402258D01*
X181860591Y-94402258D01*
X181939192Y-94556518D01*
X181939196Y-94556525D01*
X181947675Y-94568196D01*
X181964141Y-94599403D01*
X181968492Y-94611596D01*
X181972484Y-94681352D01*
X181938129Y-94742192D01*
X181881518Y-94773634D01*
X181872519Y-94775863D01*
X181842706Y-94779500D01*
X181380616Y-94779500D01*
X181345678Y-94774476D01*
X181333252Y-94770827D01*
X181274475Y-94733051D01*
X181245452Y-94669494D01*
X181253297Y-94605207D01*
X181256785Y-94596617D01*
X181271358Y-94570378D01*
X181272944Y-94568195D01*
X181281232Y-94556788D01*
X181359873Y-94402445D01*
X181413402Y-94237701D01*
X181440500Y-94066611D01*
X181440500Y-93893389D01*
X181413402Y-93722299D01*
X181359873Y-93557555D01*
X181281232Y-93403212D01*
X181179414Y-93263072D01*
X181056928Y-93140586D01*
X180916788Y-93038768D01*
X180904072Y-93032289D01*
X180762449Y-92960128D01*
X180606532Y-92909467D01*
X180602010Y-92907614D01*
X180592820Y-92905444D01*
X180588057Y-92905070D01*
X180561198Y-92900816D01*
X180466271Y-92885781D01*
X180450407Y-92883268D01*
X180426614Y-92879500D01*
X180426611Y-92879500D01*
X180253389Y-92879500D01*
X180253388Y-92879500D01*
X180213726Y-92885781D01*
X180213725Y-92885780D01*
X180082304Y-92906596D01*
X179917549Y-92960129D01*
X179763218Y-93038764D01*
X179763216Y-93038765D01*
X179763211Y-93038768D01*
X179730802Y-93062315D01*
X179681808Y-93097911D01*
X179650597Y-93114379D01*
X179638401Y-93118731D01*
X179568646Y-93122722D01*
X179507806Y-93088367D01*
X179476361Y-93031739D01*
X179474737Y-93025183D01*
X179474133Y-93022741D01*
X179470500Y-92992947D01*
X179470500Y-92461658D01*
X179470491Y-92461625D01*
X179469876Y-92459330D01*
X179469872Y-92459315D01*
X179457824Y-92414348D01*
X179443207Y-92359795D01*
X179390480Y-92268470D01*
X179343637Y-92221627D01*
X179322488Y-92193377D01*
X179315833Y-92181189D01*
X179300982Y-92112919D01*
X179325396Y-92047458D01*
X179330501Y-92040638D01*
X179367758Y-92007573D01*
X179462854Y-91952670D01*
X179565348Y-91850176D01*
X179567270Y-91846846D01*
X179589079Y-91819111D01*
X179593655Y-91814747D01*
X179599122Y-91809533D01*
X179661220Y-91777512D01*
X179730772Y-91784146D01*
G37*
%TD.AperFunction*%
%TA.AperFunction,Conductor*%
G36*
X192484710Y-82635610D02*
G01*
X192492428Y-82638567D01*
X192516938Y-82651251D01*
X192597503Y-82705083D01*
X192597504Y-82705083D01*
X192597505Y-82705084D01*
X192597507Y-82705085D01*
X192597511Y-82705087D01*
X192720427Y-82756000D01*
X192728480Y-82759335D01*
X192732887Y-82761419D01*
X192734085Y-82761657D01*
X192734087Y-82761658D01*
X192734088Y-82761658D01*
X192734091Y-82761658D01*
X192734092Y-82761659D01*
X192775561Y-82769908D01*
X192879076Y-82790500D01*
X192879079Y-82790500D01*
X192879082Y-82790500D01*
X193826920Y-82790500D01*
X193924462Y-82771096D01*
X193971913Y-82761658D01*
X194014580Y-82743984D01*
X194048777Y-82735256D01*
X194057548Y-82734313D01*
X194062574Y-82733773D01*
X194131333Y-82746180D01*
X194182456Y-82793768D01*
X194185129Y-82798273D01*
X194202500Y-82861566D01*
X194202500Y-89850445D01*
X194197475Y-89885386D01*
X194193564Y-89898703D01*
X194155787Y-89957479D01*
X194092229Y-89986501D01*
X194092228Y-89986501D01*
X194087044Y-89987246D01*
X194021952Y-89979068D01*
X193971921Y-89958344D01*
X193971895Y-89958338D01*
X193905391Y-89945109D01*
X193872106Y-89933365D01*
X193859805Y-89926930D01*
X193809530Y-89878412D01*
X193793466Y-89810423D01*
X193793927Y-89801821D01*
X193806347Y-89754001D01*
X193853096Y-89658376D01*
X193864000Y-89583535D01*
X193864000Y-89562000D01*
X192724001Y-89562000D01*
X192724001Y-89583539D01*
X192734903Y-89658374D01*
X192781649Y-89753995D01*
X192784489Y-89759803D01*
X192790220Y-89773567D01*
X192793850Y-89784014D01*
X192793850Y-89784015D01*
X192794051Y-89784593D01*
X192799734Y-89800950D01*
X192803141Y-89870736D01*
X192768283Y-89931283D01*
X192761260Y-89937996D01*
X192723032Y-89962920D01*
X192597502Y-90014916D01*
X192597500Y-90014917D01*
X192597490Y-90014923D01*
X192474581Y-90097049D01*
X192474580Y-90097050D01*
X192474574Y-90097055D01*
X192370055Y-90201574D01*
X192370050Y-90201580D01*
X192370049Y-90201581D01*
X192287923Y-90324491D01*
X192287913Y-90324508D01*
X192287908Y-90324517D01*
X192231344Y-90461079D01*
X192231338Y-90461098D01*
X192202500Y-90606076D01*
X192202500Y-90709551D01*
X192197237Y-90727471D01*
X192230128Y-90892815D01*
X192231340Y-90898907D01*
X192231343Y-90898917D01*
X192236689Y-90911824D01*
X192287908Y-91035481D01*
X192287913Y-91035490D01*
X192287923Y-91035507D01*
X192370049Y-91158417D01*
X192370050Y-91158418D01*
X192370055Y-91158424D01*
X192474574Y-91262943D01*
X192474580Y-91262948D01*
X192474584Y-91262951D01*
X192597498Y-91345080D01*
X192597511Y-91345087D01*
X192728494Y-91399341D01*
X192732884Y-91401418D01*
X192734083Y-91401656D01*
X192734087Y-91401658D01*
X192734090Y-91401658D01*
X192734091Y-91401658D01*
X192734092Y-91401659D01*
X192846837Y-91424086D01*
X192879078Y-91430500D01*
X192879079Y-91430500D01*
X192879082Y-91430500D01*
X193826920Y-91430500D01*
X193924462Y-91411096D01*
X193971913Y-91401658D01*
X194014580Y-91383984D01*
X194048777Y-91375256D01*
X194057548Y-91374313D01*
X194062574Y-91373773D01*
X194131333Y-91386180D01*
X194182456Y-91433768D01*
X194185129Y-91438273D01*
X194202500Y-91501566D01*
X194202500Y-92024676D01*
X194197476Y-92059613D01*
X194190064Y-92084854D01*
X194158769Y-92137598D01*
X191565794Y-94730573D01*
X191537543Y-94751722D01*
X191514455Y-94764330D01*
X191455025Y-94779500D01*
X186460616Y-94779500D01*
X186425678Y-94774476D01*
X186413252Y-94770827D01*
X186354475Y-94733051D01*
X186325452Y-94669494D01*
X186333297Y-94605207D01*
X186336785Y-94596617D01*
X186351358Y-94570378D01*
X186352944Y-94568195D01*
X186361232Y-94556788D01*
X186439873Y-94402445D01*
X186493402Y-94237701D01*
X186520500Y-94066611D01*
X186520500Y-93893389D01*
X186493402Y-93722299D01*
X186439873Y-93557555D01*
X186361232Y-93403212D01*
X186259414Y-93263072D01*
X186136928Y-93140586D01*
X185996788Y-93038768D01*
X185984072Y-93032289D01*
X185842449Y-92960128D01*
X185686532Y-92909467D01*
X185682010Y-92907614D01*
X185672820Y-92905444D01*
X185668057Y-92905070D01*
X185641198Y-92900816D01*
X185546271Y-92885781D01*
X185530407Y-92883268D01*
X185506614Y-92879500D01*
X185506611Y-92879500D01*
X185333389Y-92879500D01*
X185333388Y-92879500D01*
X185301190Y-92884599D01*
X185301189Y-92884598D01*
X185162298Y-92906597D01*
X185159653Y-92907182D01*
X185136436Y-92910052D01*
X185120845Y-92910496D01*
X185118244Y-92910570D01*
X185052958Y-92894151D01*
X185041418Y-92887524D01*
X185015490Y-92867676D01*
X184079901Y-91932087D01*
X184058752Y-91903837D01*
X184055312Y-91897537D01*
X184053330Y-91893907D01*
X184038477Y-91825637D01*
X184062891Y-91760172D01*
X184118821Y-91718300D01*
X184122700Y-91716853D01*
X184126036Y-91715610D01*
X184169350Y-91707799D01*
X184179439Y-91707799D01*
X184181366Y-91707639D01*
X184183016Y-91707413D01*
X184236007Y-91701718D01*
X184363981Y-91653986D01*
X184363984Y-91653984D01*
X184473329Y-91572129D01*
X184555184Y-91462784D01*
X184555185Y-91462783D01*
X184602916Y-91334810D01*
X184608596Y-91281973D01*
X184609000Y-91280806D01*
X184609000Y-91132800D01*
X184050830Y-91132800D01*
X184015889Y-91127775D01*
X184000890Y-91123370D01*
X183942144Y-91085627D01*
X183940957Y-91084258D01*
X183913477Y-91029383D01*
X183911832Y-91021821D01*
X183909000Y-90995468D01*
X183909000Y-90974629D01*
X183914023Y-90939693D01*
X183915920Y-90933235D01*
X183918427Y-90924694D01*
X183956172Y-90865944D01*
X183957541Y-90864757D01*
X184012420Y-90837277D01*
X184019979Y-90835633D01*
X184046332Y-90832800D01*
X184608999Y-90832800D01*
X184608999Y-90727471D01*
X187867237Y-90727471D01*
X187900128Y-90892815D01*
X187901340Y-90898907D01*
X187901343Y-90898917D01*
X187906689Y-90911824D01*
X187957908Y-91035481D01*
X187957913Y-91035490D01*
X187957923Y-91035507D01*
X188040049Y-91158417D01*
X188040050Y-91158418D01*
X188040055Y-91158424D01*
X188144574Y-91262943D01*
X188144580Y-91262948D01*
X188144584Y-91262951D01*
X188267498Y-91345080D01*
X188267511Y-91345087D01*
X188398494Y-91399341D01*
X188402884Y-91401418D01*
X188404083Y-91401656D01*
X188404087Y-91401658D01*
X188404090Y-91401658D01*
X188404091Y-91401658D01*
X188404092Y-91401659D01*
X188516837Y-91424086D01*
X188549078Y-91430500D01*
X188549079Y-91430500D01*
X188549082Y-91430500D01*
X189796920Y-91430500D01*
X189894462Y-91411096D01*
X189941913Y-91401658D01*
X190078495Y-91345084D01*
X190201416Y-91262951D01*
X190305951Y-91158416D01*
X190388084Y-91035495D01*
X190444658Y-90898913D01*
X190454788Y-90847986D01*
X190454789Y-90847983D01*
X190454789Y-90847981D01*
X190455997Y-90841911D01*
X190473500Y-90753920D01*
X190473500Y-90606079D01*
X190473500Y-90606076D01*
X190444419Y-90459884D01*
X190442332Y-90455471D01*
X190432748Y-90432333D01*
X190388090Y-90324517D01*
X190388085Y-90324508D01*
X190388080Y-90324498D01*
X190305951Y-90201584D01*
X190305948Y-90201580D01*
X190305943Y-90201574D01*
X190201424Y-90097055D01*
X190201418Y-90097050D01*
X190201417Y-90097049D01*
X190078507Y-90014923D01*
X190078506Y-90014922D01*
X190078501Y-90014919D01*
X190078488Y-90014912D01*
X190078474Y-90014906D01*
X189989931Y-89978231D01*
X189959582Y-89960226D01*
X189956173Y-89957479D01*
X189949866Y-89952396D01*
X189910016Y-89895007D01*
X189907518Y-89825182D01*
X189940504Y-89767647D01*
X189947567Y-89760667D01*
X189972722Y-89741485D01*
X190026365Y-89710515D01*
X190133515Y-89603365D01*
X190209281Y-89472135D01*
X190248500Y-89325766D01*
X190248500Y-89174234D01*
X190209281Y-89027865D01*
X190133515Y-88896635D01*
X190026365Y-88789485D01*
X189937856Y-88738384D01*
X189937853Y-88738381D01*
X189895138Y-88713720D01*
X189895137Y-88713719D01*
X189895136Y-88713719D01*
X189821950Y-88694109D01*
X189821949Y-88694108D01*
X189748767Y-88674500D01*
X189748766Y-88674500D01*
X189597234Y-88674500D01*
X189450859Y-88713720D01*
X189450857Y-88713721D01*
X189319645Y-88789478D01*
X189319631Y-88789487D01*
X189319626Y-88789491D01*
X189212491Y-88896626D01*
X189212487Y-88896631D01*
X189212478Y-88896645D01*
X189136718Y-89027861D01*
X189136718Y-89027863D01*
X189125469Y-89069849D01*
X189125469Y-89069851D01*
X189097500Y-89174234D01*
X189097500Y-89325762D01*
X189097499Y-89325762D01*
X189097500Y-89325764D01*
X189097500Y-89325766D01*
X189105195Y-89354485D01*
X189136719Y-89472136D01*
X189146744Y-89489499D01*
X189212485Y-89603365D01*
X189212487Y-89603367D01*
X189305641Y-89696521D01*
X189318106Y-89711080D01*
X189323363Y-89718279D01*
X189323363Y-89718280D01*
X189331571Y-89729522D01*
X189332401Y-89730658D01*
X189356036Y-89796409D01*
X189340371Y-89864500D01*
X189290411Y-89913296D01*
X189287172Y-89915016D01*
X189229016Y-89929500D01*
X188549078Y-89929500D01*
X188404096Y-89958338D01*
X188404079Y-89958344D01*
X188267517Y-90014908D01*
X188267508Y-90014913D01*
X188267491Y-90014923D01*
X188144581Y-90097049D01*
X188144580Y-90097050D01*
X188144574Y-90097055D01*
X188040055Y-90201574D01*
X188040050Y-90201580D01*
X188040049Y-90201581D01*
X187957923Y-90324491D01*
X187957913Y-90324508D01*
X187957908Y-90324517D01*
X187901344Y-90461079D01*
X187901338Y-90461098D01*
X187872500Y-90606076D01*
X187872500Y-90709551D01*
X187867237Y-90727471D01*
X184608999Y-90727471D01*
X184608999Y-90703724D01*
X184612329Y-90675179D01*
X184616785Y-90656342D01*
X184651131Y-90595872D01*
X184651166Y-90595837D01*
X184707916Y-90564437D01*
X184718348Y-90561875D01*
X184747910Y-90558300D01*
X186036164Y-90558300D01*
X186036166Y-90558300D01*
X186138027Y-90531007D01*
X186229352Y-90478280D01*
X188388106Y-88319525D01*
X191727500Y-88319525D01*
X191727500Y-88464475D01*
X191730545Y-88475838D01*
X191754055Y-88563581D01*
X191765015Y-88604484D01*
X191765018Y-88604491D01*
X191835635Y-88726802D01*
X191837123Y-88729568D01*
X191837353Y-88729877D01*
X191939985Y-88832509D01*
X191940674Y-88833005D01*
X191943178Y-88834353D01*
X192062069Y-88902995D01*
X192065087Y-88904869D01*
X192065514Y-88904983D01*
X192065515Y-88904984D01*
X192205525Y-88942500D01*
X192205528Y-88942500D01*
X192350472Y-88942500D01*
X192350475Y-88942500D01*
X192490485Y-88904984D01*
X192616015Y-88832509D01*
X192616015Y-88832508D01*
X192616101Y-88832459D01*
X192632008Y-88822100D01*
X192658444Y-88807665D01*
X192717867Y-88792500D01*
X192731834Y-88792500D01*
X192766761Y-88797521D01*
X192777614Y-88800707D01*
X192836395Y-88838477D01*
X192865424Y-88902031D01*
X192855485Y-88971190D01*
X192855484Y-88971192D01*
X192852299Y-88978167D01*
X192827182Y-89014343D01*
X192791339Y-89050185D01*
X192791336Y-89050188D01*
X192741454Y-89152224D01*
X192734903Y-89165625D01*
X192724000Y-89240464D01*
X192724000Y-89262000D01*
X193863999Y-89262000D01*
X193863999Y-89240460D01*
X193853096Y-89165625D01*
X193796663Y-89050189D01*
X193796661Y-89050187D01*
X193796661Y-89050186D01*
X193749114Y-89002640D01*
X193727960Y-88974381D01*
X193720469Y-88960661D01*
X193705618Y-88892403D01*
X193705747Y-88890594D01*
X193725113Y-88832398D01*
X193727413Y-88828819D01*
X193729297Y-88825888D01*
X193745932Y-88805245D01*
X193782852Y-88768326D01*
X193783289Y-88768010D01*
X193796766Y-88754413D01*
X193796964Y-88754213D01*
X193797076Y-88754102D01*
X193797076Y-88754101D01*
X193797162Y-88754015D01*
X193797314Y-88753862D01*
X193798747Y-88750684D01*
X193825329Y-88696310D01*
X193853582Y-88638518D01*
X193864500Y-88563582D01*
X193864500Y-88220418D01*
X193853582Y-88145482D01*
X193852063Y-88142375D01*
X193829456Y-88096132D01*
X193797078Y-88029900D01*
X193797076Y-88029897D01*
X193797074Y-88029895D01*
X193797074Y-88029894D01*
X193706104Y-87938924D01*
X193706096Y-87938919D01*
X193590971Y-87882638D01*
X193590531Y-87882420D01*
X193586540Y-87881478D01*
X193581623Y-87881122D01*
X193515583Y-87871500D01*
X193515582Y-87871500D01*
X193072418Y-87871500D01*
X193072417Y-87871500D01*
X193006377Y-87881122D01*
X193001458Y-87881478D01*
X192997466Y-87882420D01*
X192997027Y-87882638D01*
X192881901Y-87938920D01*
X192881899Y-87938921D01*
X192881891Y-87938928D01*
X192878238Y-87942581D01*
X192849993Y-87963724D01*
X192826909Y-87976330D01*
X192767478Y-87991500D01*
X192725216Y-87991500D01*
X192690280Y-87986477D01*
X192664796Y-87978994D01*
X192620642Y-87954134D01*
X192620368Y-87954528D01*
X192618326Y-87953103D01*
X192618172Y-87953289D01*
X192616152Y-87951606D01*
X192616124Y-87951590D01*
X192616014Y-87951490D01*
X192616011Y-87951488D01*
X192595110Y-87939421D01*
X192562240Y-87920443D01*
X192533808Y-87890624D01*
X192468511Y-87873128D01*
X192468511Y-87873127D01*
X192361025Y-87844327D01*
X192350475Y-87841500D01*
X192350474Y-87841500D01*
X192205525Y-87841500D01*
X192087488Y-87873128D01*
X192087487Y-87873127D01*
X192065510Y-87879017D01*
X192065507Y-87879018D01*
X191939992Y-87951485D01*
X191939984Y-87951490D01*
X191939968Y-87951505D01*
X191837505Y-88053968D01*
X191837490Y-88053984D01*
X191837485Y-88053992D01*
X191765017Y-88179509D01*
X191765004Y-88179541D01*
X191764909Y-88179914D01*
X191727500Y-88319525D01*
X188388106Y-88319525D01*
X190348208Y-86359423D01*
X190376458Y-86338275D01*
X190399550Y-86325667D01*
X190458975Y-86310500D01*
X191583964Y-86310500D01*
X191583966Y-86310500D01*
X191685827Y-86283207D01*
X191777152Y-86230480D01*
X192232480Y-85775152D01*
X192234566Y-85771539D01*
X192724001Y-85771539D01*
X192729460Y-85809011D01*
X192734903Y-85846374D01*
X192791337Y-85961812D01*
X192882186Y-86052661D01*
X192882187Y-86052661D01*
X192882189Y-86052663D01*
X192997625Y-86109096D01*
X193072464Y-86119999D01*
X193444000Y-86119999D01*
X193515534Y-86119999D01*
X193515540Y-86119999D01*
X193590374Y-86109096D01*
X193705810Y-86052663D01*
X193796663Y-85961810D01*
X193853096Y-85846374D01*
X193864000Y-85771535D01*
X193864000Y-85750000D01*
X193444000Y-85750000D01*
X193444000Y-86119999D01*
X193072464Y-86119999D01*
X193143999Y-86119998D01*
X193144000Y-86119998D01*
X193144000Y-85750000D01*
X192724001Y-85750000D01*
X192724001Y-85771539D01*
X192234566Y-85771539D01*
X192275575Y-85700509D01*
X192285207Y-85683826D01*
X192312500Y-85581966D01*
X192312500Y-85272367D01*
X192317521Y-85237439D01*
X192318382Y-85234505D01*
X192321501Y-85223882D01*
X192359271Y-85165105D01*
X192422106Y-85136182D01*
X192437554Y-85133867D01*
X192455921Y-85132500D01*
X192604475Y-85132500D01*
X192612534Y-85131439D01*
X192612659Y-85132395D01*
X192633629Y-85129884D01*
X192644938Y-85130152D01*
X192711490Y-85151420D01*
X192755980Y-85205293D01*
X192764282Y-85274668D01*
X192764281Y-85274672D01*
X192762433Y-85285666D01*
X192751551Y-85319569D01*
X192734903Y-85353624D01*
X192724000Y-85428464D01*
X192724000Y-85450000D01*
X193863999Y-85450000D01*
X193863999Y-85428460D01*
X193853096Y-85353625D01*
X193796663Y-85238189D01*
X193796661Y-85238187D01*
X193796661Y-85238186D01*
X193749114Y-85190640D01*
X193727960Y-85162381D01*
X193720469Y-85148661D01*
X193705618Y-85080403D01*
X193705747Y-85078594D01*
X193725113Y-85020398D01*
X193729297Y-85013888D01*
X193745932Y-84993245D01*
X193782852Y-84956326D01*
X193783289Y-84956010D01*
X193796766Y-84942413D01*
X193796964Y-84942213D01*
X193797076Y-84942102D01*
X193797076Y-84942101D01*
X193797162Y-84942015D01*
X193797314Y-84941862D01*
X193798753Y-84938672D01*
X193834441Y-84865671D01*
X193853582Y-84826518D01*
X193864500Y-84751582D01*
X193864500Y-84408418D01*
X193853582Y-84333482D01*
X193849009Y-84324127D01*
X193797078Y-84217900D01*
X193797076Y-84217897D01*
X193797075Y-84217896D01*
X193797074Y-84217894D01*
X193706104Y-84126924D01*
X193706096Y-84126919D01*
X193590971Y-84070638D01*
X193590531Y-84070420D01*
X193586540Y-84069478D01*
X193581623Y-84069122D01*
X193515583Y-84059500D01*
X193515582Y-84059500D01*
X193072418Y-84059500D01*
X193072417Y-84059500D01*
X193025582Y-84066323D01*
X193025581Y-84066322D01*
X192997485Y-84070416D01*
X192997475Y-84070419D01*
X192937115Y-84099928D01*
X192903524Y-84110759D01*
X192882732Y-84114309D01*
X192822849Y-84109781D01*
X192816658Y-84107729D01*
X192793672Y-84097413D01*
X192758627Y-84077180D01*
X192758624Y-84077178D01*
X192744486Y-84069015D01*
X192708972Y-84059500D01*
X192656723Y-84045500D01*
X192604475Y-84031500D01*
X192604474Y-84031500D01*
X192456521Y-84031500D01*
X192437411Y-84030019D01*
X192421107Y-84027476D01*
X192357902Y-83997695D01*
X192321033Y-83939175D01*
X192317315Y-83926227D01*
X192312500Y-83892010D01*
X192312500Y-82764466D01*
X192317523Y-82729532D01*
X192321360Y-82716464D01*
X192359134Y-82657686D01*
X192422689Y-82628660D01*
X192484710Y-82635610D01*
G37*
%TD.AperFunction*%
%TA.AperFunction,Conductor*%
G36*
X181905863Y-88219521D02*
G01*
X181919182Y-88223432D01*
X181977960Y-88261206D01*
X182006985Y-88324757D01*
X182008103Y-88332530D01*
X182004442Y-88384779D01*
X181988293Y-88440360D01*
X181988292Y-88440369D01*
X181988291Y-88440376D01*
X181985500Y-88475825D01*
X181985500Y-88865473D01*
X181980477Y-88900408D01*
X181976074Y-88915403D01*
X181938329Y-88974155D01*
X181936960Y-88975342D01*
X181882096Y-89002819D01*
X181874537Y-89004464D01*
X181848169Y-89007300D01*
X181180246Y-89007300D01*
X181156054Y-89004917D01*
X181132461Y-89000224D01*
X181116790Y-88996025D01*
X181113222Y-88994813D01*
X181078226Y-88985437D01*
X181011247Y-88967490D01*
X180973218Y-88957300D01*
X180973217Y-88957300D01*
X180828268Y-88957300D01*
X180706107Y-88990033D01*
X180706106Y-88990032D01*
X180688253Y-88994816D01*
X180688250Y-88994818D01*
X180562735Y-89067285D01*
X180562727Y-89067290D01*
X180562711Y-89067305D01*
X180460248Y-89169768D01*
X180460233Y-89169784D01*
X180460228Y-89169792D01*
X180387761Y-89295308D01*
X180387759Y-89295312D01*
X180384653Y-89306906D01*
X180350243Y-89435325D01*
X180350243Y-89580272D01*
X180350244Y-89580281D01*
X180351317Y-89584287D01*
X180355504Y-89619318D01*
X180355168Y-89633441D01*
X180333894Y-89699994D01*
X180280700Y-89744185D01*
X180265586Y-89750765D01*
X180248182Y-89756847D01*
X180178232Y-89775590D01*
X180178154Y-89775590D01*
X180160445Y-89780347D01*
X180134005Y-89783836D01*
X180105367Y-89800370D01*
X180081421Y-89806787D01*
X180049328Y-89811013D01*
X180023037Y-89811013D01*
X179894506Y-89845452D01*
X179894505Y-89845453D01*
X179886850Y-89847504D01*
X179883022Y-89848530D01*
X179757503Y-89920998D01*
X179757496Y-89921003D01*
X179757480Y-89921018D01*
X179655009Y-90023489D01*
X179655001Y-90023498D01*
X179654995Y-90023509D01*
X179653073Y-90026838D01*
X179631263Y-90054569D01*
X179621220Y-90064145D01*
X179559117Y-90096161D01*
X179489564Y-90089520D01*
X179489533Y-90089507D01*
X179487072Y-90088521D01*
X179432162Y-90045316D01*
X179424356Y-90032842D01*
X179415667Y-90016929D01*
X179400500Y-89957503D01*
X179400500Y-89881844D01*
X179405522Y-89846911D01*
X179405950Y-89845453D01*
X179412934Y-89821666D01*
X179444229Y-89768923D01*
X179492868Y-89720285D01*
X179552258Y-89660895D01*
X179618150Y-89546767D01*
X179652258Y-89419473D01*
X179652258Y-89287688D01*
X179652258Y-89200474D01*
X179657280Y-89165541D01*
X179661191Y-89152222D01*
X179698964Y-89093445D01*
X179762516Y-89064420D01*
X179766348Y-89063869D01*
X179770943Y-89063209D01*
X179820677Y-89066173D01*
X179829283Y-89068480D01*
X179829286Y-89068480D01*
X179974230Y-89068480D01*
X179974233Y-89068480D01*
X180114243Y-89030964D01*
X180239773Y-88958489D01*
X180342267Y-88855995D01*
X180414742Y-88730465D01*
X180452258Y-88590455D01*
X180452258Y-88445505D01*
X180452258Y-88445504D01*
X180451197Y-88437446D01*
X180451541Y-88437400D01*
X180448520Y-88412155D01*
X180448968Y-88393340D01*
X180467044Y-88331768D01*
X180472471Y-88322863D01*
X180490669Y-88299722D01*
X180526973Y-88263419D01*
X180555221Y-88242274D01*
X180578313Y-88229665D01*
X180637736Y-88214500D01*
X181870931Y-88214500D01*
X181905863Y-88219521D01*
G37*
%TD.AperFunction*%
%TA.AperFunction,Conductor*%
G36*
X182936106Y-82174023D02*
G01*
X182951104Y-82178427D01*
X183009855Y-82216172D01*
X183011042Y-82217541D01*
X183038518Y-82272402D01*
X183040163Y-82279960D01*
X183043000Y-82306331D01*
X183043000Y-82893999D01*
X183163433Y-82893999D01*
X183163439Y-82893999D01*
X183166671Y-82893731D01*
X183167019Y-82893613D01*
X183220007Y-82887918D01*
X183347981Y-82840186D01*
X183347984Y-82840184D01*
X183457329Y-82758329D01*
X183533874Y-82656076D01*
X183536779Y-82652724D01*
X183539174Y-82648996D01*
X183539184Y-82648984D01*
X183539185Y-82648983D01*
X183586917Y-82521008D01*
X183586918Y-82521005D01*
X183592999Y-82464451D01*
X183592999Y-82458178D01*
X183598017Y-82423259D01*
X183599699Y-82417528D01*
X183601204Y-82412400D01*
X183638969Y-82353620D01*
X183702521Y-82324587D01*
X183771681Y-82334521D01*
X183774682Y-82335891D01*
X183778675Y-82337715D01*
X183814842Y-82362827D01*
X186050641Y-84598626D01*
X186071791Y-84626878D01*
X186084399Y-84649967D01*
X186099568Y-84709396D01*
X186099568Y-86308783D01*
X186094544Y-86343721D01*
X186087061Y-86369203D01*
X186062203Y-86413356D01*
X186062596Y-86413630D01*
X186061176Y-86415664D01*
X186061362Y-86415819D01*
X186059682Y-86417834D01*
X186059664Y-86417867D01*
X186059563Y-86417976D01*
X186059562Y-86417978D01*
X186059553Y-86417991D01*
X185987085Y-86543508D01*
X185987057Y-86543577D01*
X185986816Y-86544510D01*
X185949568Y-86683524D01*
X185949568Y-86828473D01*
X185987081Y-86968476D01*
X185987084Y-86968484D01*
X185987085Y-86968487D01*
X186035396Y-87052163D01*
X186059553Y-87094005D01*
X186059558Y-87094013D01*
X186059573Y-87094029D01*
X186154756Y-87189212D01*
X186175903Y-87217458D01*
X186181324Y-87227384D01*
X186196181Y-87295656D01*
X186171769Y-87361122D01*
X186115839Y-87402997D01*
X186115830Y-87403001D01*
X186108642Y-87405682D01*
X186065308Y-87413500D01*
X184570876Y-87413500D01*
X184535937Y-87408476D01*
X184522619Y-87404565D01*
X184463842Y-87366789D01*
X184434820Y-87303232D01*
X184434080Y-87298084D01*
X184437742Y-87245846D01*
X184439618Y-87239390D01*
X184483709Y-87087627D01*
X184486500Y-87052163D01*
X184486499Y-86175838D01*
X184483709Y-86140373D01*
X184456643Y-86047210D01*
X184451721Y-86012274D01*
X184451760Y-85998387D01*
X184471632Y-85931410D01*
X184524562Y-85885805D01*
X184528202Y-85884155D01*
X184531737Y-85882554D01*
X184582914Y-85871500D01*
X184718784Y-85871500D01*
X184753716Y-85876521D01*
X184778960Y-85883934D01*
X184818594Y-85907450D01*
X184819880Y-85905667D01*
X184827982Y-85911506D01*
X184827985Y-85911509D01*
X184827986Y-85911510D01*
X184827988Y-85911511D01*
X184827990Y-85911512D01*
X184828674Y-85912005D01*
X184831178Y-85913353D01*
X184950069Y-85981995D01*
X184953087Y-85983869D01*
X184953514Y-85983983D01*
X184953515Y-85983984D01*
X185093525Y-86021500D01*
X185093528Y-86021500D01*
X185238472Y-86021500D01*
X185238475Y-86021500D01*
X185378485Y-85983984D01*
X185504015Y-85911509D01*
X185606509Y-85809015D01*
X185678984Y-85683485D01*
X185716500Y-85543475D01*
X185716500Y-85398525D01*
X185678984Y-85258515D01*
X185645219Y-85200033D01*
X185606511Y-85132988D01*
X185606506Y-85132982D01*
X185606493Y-85132968D01*
X185504030Y-85030505D01*
X185504014Y-85030490D01*
X185504006Y-85030485D01*
X185450243Y-84999445D01*
X185421808Y-84969624D01*
X185367007Y-84954939D01*
X185367007Y-84954940D01*
X185302740Y-84937720D01*
X185238475Y-84920500D01*
X185238474Y-84920500D01*
X185093525Y-84920500D01*
X184964994Y-84954939D01*
X184964993Y-84954940D01*
X184957338Y-84956991D01*
X184953510Y-84958017D01*
X184827991Y-85030485D01*
X184823631Y-85033528D01*
X184823345Y-85033118D01*
X184811511Y-85041161D01*
X184785562Y-85055331D01*
X184726133Y-85070500D01*
X184583989Y-85070500D01*
X184549050Y-85065476D01*
X184535732Y-85061565D01*
X184476955Y-85023789D01*
X184447933Y-84960232D01*
X184447932Y-84960227D01*
X184446815Y-84952454D01*
X184450477Y-84900222D01*
X184483210Y-84787553D01*
X184483211Y-84787547D01*
X184485999Y-84752118D01*
X184486000Y-84752105D01*
X184486000Y-84464000D01*
X183377830Y-84464000D01*
X183342894Y-84458977D01*
X183323087Y-84453161D01*
X183270673Y-84422195D01*
X183265486Y-84417047D01*
X183249027Y-84396857D01*
X183207335Y-84333043D01*
X183191308Y-84308511D01*
X183191305Y-84308509D01*
X183177894Y-84304571D01*
X183119144Y-84266827D01*
X183117957Y-84265458D01*
X183090477Y-84210583D01*
X183088832Y-84203021D01*
X183086000Y-84176668D01*
X183086000Y-84153082D01*
X183386000Y-84153082D01*
X183393133Y-84164000D01*
X184486000Y-84164000D01*
X184486000Y-83875894D01*
X184485999Y-83875881D01*
X184483211Y-83840452D01*
X184483210Y-83840446D01*
X184483206Y-83840432D01*
X184483205Y-83840427D01*
X184439164Y-83688841D01*
X184439162Y-83688836D01*
X184439156Y-83688814D01*
X184439155Y-83688811D01*
X184435857Y-83683235D01*
X184391948Y-83608988D01*
X184358773Y-83552891D01*
X184358767Y-83552883D01*
X184358766Y-83552882D01*
X184358762Y-83552877D01*
X184247121Y-83441236D01*
X184247110Y-83441227D01*
X184247103Y-83441223D01*
X184111191Y-83360845D01*
X184111188Y-83360844D01*
X184111157Y-83360834D01*
X183959571Y-83316793D01*
X183959556Y-83316790D01*
X183959557Y-83316790D01*
X183959553Y-83316789D01*
X183959547Y-83316788D01*
X183949424Y-83315991D01*
X183924123Y-83314000D01*
X183924118Y-83314000D01*
X183386000Y-83314000D01*
X183386000Y-84153082D01*
X183086000Y-84153082D01*
X183086000Y-83314000D01*
X182547881Y-83314000D01*
X182547875Y-83314000D01*
X182517513Y-83316389D01*
X182512452Y-83316788D01*
X182512446Y-83316789D01*
X182512443Y-83316789D01*
X182512442Y-83316790D01*
X182512427Y-83316793D01*
X182360841Y-83360834D01*
X182360810Y-83360844D01*
X182274549Y-83411858D01*
X182206825Y-83429039D01*
X182140562Y-83406879D01*
X182096800Y-83352413D01*
X182087988Y-83293372D01*
X182130631Y-82845622D01*
X182156583Y-82780752D01*
X182213487Y-82740210D01*
X182283276Y-82736868D01*
X182328383Y-82758113D01*
X182328668Y-82758326D01*
X182328670Y-82758329D01*
X182430922Y-82834874D01*
X182434275Y-82837780D01*
X182438008Y-82840179D01*
X182438015Y-82840184D01*
X182438016Y-82840185D01*
X182526378Y-82873142D01*
X182565993Y-82887918D01*
X182568003Y-82888134D01*
X182622555Y-82893999D01*
X182742999Y-82893999D01*
X182743000Y-82893998D01*
X182743000Y-82310829D01*
X182748023Y-82275893D01*
X182752392Y-82261016D01*
X182752427Y-82260894D01*
X182790172Y-82202144D01*
X182791541Y-82200957D01*
X182846420Y-82173477D01*
X182853979Y-82171833D01*
X182880332Y-82169000D01*
X182901170Y-82169000D01*
X182936106Y-82174023D01*
G37*
%TD.AperFunction*%
%TD*%
%TA.AperFunction,NonConductor*%
G36*
X166685174Y-77875522D02*
G01*
X166692752Y-77877746D01*
X166697599Y-77879170D01*
X166756378Y-77916943D01*
X166785404Y-77980498D01*
X166777562Y-78044786D01*
X166774076Y-78053374D01*
X166759500Y-78079621D01*
X166757541Y-78082318D01*
X166698770Y-78163209D01*
X166698766Y-78163214D01*
X166698764Y-78163218D01*
X166620101Y-78317604D01*
X166618953Y-78319899D01*
X166618548Y-78322411D01*
X166602981Y-78370324D01*
X166602980Y-78370327D01*
X166566596Y-78482301D01*
X166539500Y-78653383D01*
X166539500Y-78826614D01*
X166559380Y-78952131D01*
X166566578Y-78997580D01*
X166566598Y-78997701D01*
X166620127Y-79162445D01*
X166698768Y-79316788D01*
X166702650Y-79322131D01*
X166707059Y-79328201D01*
X166723524Y-79359408D01*
X166727874Y-79371599D01*
X166731864Y-79441354D01*
X166697508Y-79502194D01*
X166640899Y-79533634D01*
X166631900Y-79535863D01*
X166602087Y-79539500D01*
X166140616Y-79539500D01*
X166105678Y-79534476D01*
X166093252Y-79530827D01*
X166034475Y-79493051D01*
X166005452Y-79429494D01*
X166013297Y-79365207D01*
X166016785Y-79356617D01*
X166031358Y-79330378D01*
X166032781Y-79328419D01*
X166041232Y-79316788D01*
X166119873Y-79162445D01*
X166173402Y-78997701D01*
X166200500Y-78826611D01*
X166200500Y-78653389D01*
X166173402Y-78482299D01*
X166146402Y-78399204D01*
X166141250Y-78383347D01*
X166135232Y-78348568D01*
X166134745Y-78331513D01*
X166151156Y-78266236D01*
X166157787Y-78254686D01*
X166160835Y-78250705D01*
X166161424Y-78248746D01*
X166164064Y-78246486D01*
X166177635Y-78228756D01*
X166486969Y-77919422D01*
X166515224Y-77898272D01*
X166538312Y-77885666D01*
X166597735Y-77870500D01*
X166650242Y-77870500D01*
X166685174Y-77875522D01*
G37*
%TD.AperFunction*%
%TA.AperFunction,NonConductor*%
G36*
X193855847Y-77367521D02*
G01*
X193881091Y-77374934D01*
X193933837Y-77406230D01*
X194153573Y-77625966D01*
X194174723Y-77654218D01*
X194187331Y-77677307D01*
X194202500Y-77736736D01*
X194202500Y-81210445D01*
X194197475Y-81245386D01*
X194193564Y-81258703D01*
X194155787Y-81317479D01*
X194092229Y-81346501D01*
X194092228Y-81346501D01*
X194087044Y-81347246D01*
X194021953Y-81339068D01*
X193971933Y-81318349D01*
X193971911Y-81318341D01*
X193971900Y-81318338D01*
X193826922Y-81289500D01*
X193826920Y-81289500D01*
X193826918Y-81289500D01*
X192879082Y-81289500D01*
X192879080Y-81289500D01*
X192879078Y-81289500D01*
X192734096Y-81318338D01*
X192734079Y-81318344D01*
X192597517Y-81374908D01*
X192597508Y-81374913D01*
X192597496Y-81374920D01*
X192520213Y-81426559D01*
X192488373Y-81441791D01*
X192475377Y-81445860D01*
X192405519Y-81447106D01*
X192346077Y-81410386D01*
X192317400Y-81354960D01*
X192315571Y-81346899D01*
X192312500Y-81319471D01*
X192312500Y-81135714D01*
X192312500Y-81135712D01*
X192300280Y-81090107D01*
X192285207Y-81033851D01*
X192232480Y-80942526D01*
X188876742Y-77586788D01*
X188855593Y-77558538D01*
X188850171Y-77548608D01*
X188835318Y-77480338D01*
X188859732Y-77414873D01*
X188915662Y-77373001D01*
X188919541Y-77371554D01*
X188922877Y-77370311D01*
X188966191Y-77362500D01*
X193820915Y-77362500D01*
X193855847Y-77367521D01*
G37*
%TD.AperFunction*%
%TA.AperFunction,NonConductor*%
G36*
X191334605Y-81196329D02*
G01*
X191342499Y-81199490D01*
X191384094Y-81226926D01*
X191462573Y-81305405D01*
X191483723Y-81333657D01*
X191496331Y-81356746D01*
X191511500Y-81416175D01*
X191511500Y-83277504D01*
X191506475Y-83312445D01*
X191502564Y-83325762D01*
X191464787Y-83384538D01*
X191401242Y-83413558D01*
X191392829Y-83414768D01*
X191343085Y-83411807D01*
X191334475Y-83409500D01*
X191270991Y-83409500D01*
X191236050Y-83404475D01*
X191221051Y-83400070D01*
X191162305Y-83362327D01*
X191161118Y-83360958D01*
X191133638Y-83306083D01*
X191131993Y-83298521D01*
X191129161Y-83272168D01*
X191129161Y-81371554D01*
X191134184Y-81336620D01*
X191141595Y-81311380D01*
X191166035Y-81270198D01*
X191164220Y-81268806D01*
X191169165Y-81262359D01*
X191169170Y-81262354D01*
X191171089Y-81259029D01*
X191192905Y-81231285D01*
X191202954Y-81221703D01*
X191265054Y-81189689D01*
X191334605Y-81196329D01*
G37*
%TD.AperFunction*%
%TA.AperFunction,NonConductor*%
G36*
X180868841Y-77367521D02*
G01*
X180879694Y-77370707D01*
X180938475Y-77408477D01*
X180967504Y-77472031D01*
X180957565Y-77541190D01*
X180957561Y-77541197D01*
X180954377Y-77548169D01*
X180929266Y-77584338D01*
X180875033Y-77638573D01*
X180875031Y-77638574D01*
X180852206Y-77661399D01*
X180823947Y-77682553D01*
X180808965Y-77690733D01*
X180743357Y-77705744D01*
X180737125Y-77705432D01*
X180730060Y-77705079D01*
X180697932Y-77699165D01*
X180597698Y-77666597D01*
X180466271Y-77645781D01*
X180450407Y-77643268D01*
X180426614Y-77639500D01*
X180426611Y-77639500D01*
X180253389Y-77639500D01*
X180253388Y-77639500D01*
X180213726Y-77645781D01*
X180213725Y-77645780D01*
X180082304Y-77666596D01*
X179917549Y-77720129D01*
X179763210Y-77798768D01*
X179683256Y-77856859D01*
X179683255Y-77856859D01*
X179643122Y-77886017D01*
X179643116Y-77886022D01*
X179623072Y-77900586D01*
X179623070Y-77900588D01*
X179623069Y-77900588D01*
X179500588Y-78023069D01*
X179500588Y-78023070D01*
X179500586Y-78023072D01*
X179486693Y-78042194D01*
X179481163Y-78049804D01*
X179481163Y-78049805D01*
X179398768Y-78163210D01*
X179320101Y-78317604D01*
X179318953Y-78319899D01*
X179318548Y-78322411D01*
X179302981Y-78370324D01*
X179302980Y-78370327D01*
X179266596Y-78482301D01*
X179239500Y-78653383D01*
X179239500Y-78826614D01*
X179259380Y-78952131D01*
X179266578Y-78997580D01*
X179266598Y-78997701D01*
X179320127Y-79162445D01*
X179398768Y-79316788D01*
X179500586Y-79456928D01*
X179623072Y-79579414D01*
X179763212Y-79681232D01*
X179917555Y-79759873D01*
X180082299Y-79813402D01*
X180253389Y-79840500D01*
X180253390Y-79840500D01*
X180426610Y-79840500D01*
X180426611Y-79840500D01*
X180597701Y-79813402D01*
X180762445Y-79759873D01*
X180916788Y-79681232D01*
X181056928Y-79579414D01*
X181179414Y-79456928D01*
X181281232Y-79316788D01*
X181359873Y-79162445D01*
X181413402Y-78997701D01*
X181440500Y-78826611D01*
X181440500Y-78653389D01*
X181413402Y-78482299D01*
X181386402Y-78399204D01*
X181381250Y-78383347D01*
X181380868Y-78369993D01*
X181375232Y-78348568D01*
X181374745Y-78331513D01*
X181379256Y-78313566D01*
X181379255Y-78313506D01*
X181379284Y-78313457D01*
X181391154Y-78266239D01*
X181397787Y-78254688D01*
X181417632Y-78228759D01*
X181656969Y-77989421D01*
X181685225Y-77968271D01*
X181708314Y-77955665D01*
X181767735Y-77940500D01*
X181839384Y-77940500D01*
X181874316Y-77945522D01*
X181877174Y-77946361D01*
X181886741Y-77949170D01*
X181945520Y-77986943D01*
X181974546Y-78050498D01*
X181966704Y-78114786D01*
X181963218Y-78123374D01*
X181948640Y-78149623D01*
X181938770Y-78163206D01*
X181938769Y-78163208D01*
X181860101Y-78317604D01*
X181859629Y-78318547D01*
X181858548Y-78322411D01*
X181842981Y-78370324D01*
X181842980Y-78370327D01*
X181806596Y-78482301D01*
X181779500Y-78653383D01*
X181779500Y-78826614D01*
X181799380Y-78952131D01*
X181806578Y-78997580D01*
X181806598Y-78997701D01*
X181860127Y-79162445D01*
X181938768Y-79316788D01*
X182040586Y-79456928D01*
X182163072Y-79579414D01*
X182303212Y-79681232D01*
X182457555Y-79759873D01*
X182622299Y-79813402D01*
X182793389Y-79840500D01*
X182793390Y-79840500D01*
X182966610Y-79840500D01*
X182966611Y-79840500D01*
X183137701Y-79813402D01*
X183302445Y-79759873D01*
X183456788Y-79681232D01*
X183596928Y-79579414D01*
X183719414Y-79456928D01*
X183821232Y-79316788D01*
X183899873Y-79162445D01*
X183953402Y-78997701D01*
X183980500Y-78826611D01*
X183980500Y-78653389D01*
X183953402Y-78482299D01*
X183899873Y-78317555D01*
X183821232Y-78163212D01*
X183812948Y-78151811D01*
X183796475Y-78120592D01*
X183792124Y-78108397D01*
X183788136Y-78038641D01*
X183822494Y-77977803D01*
X183879112Y-77946362D01*
X183888116Y-77944132D01*
X183917913Y-77940500D01*
X184379384Y-77940500D01*
X184380052Y-77940696D01*
X184414316Y-77945522D01*
X184417174Y-77946361D01*
X184426741Y-77949170D01*
X184441743Y-77958810D01*
X184446423Y-77960185D01*
X184449616Y-77963870D01*
X184485520Y-77986943D01*
X184514546Y-78050498D01*
X184506704Y-78114786D01*
X184503218Y-78123374D01*
X184488640Y-78149623D01*
X184478770Y-78163206D01*
X184478769Y-78163208D01*
X184412111Y-78294033D01*
X184400128Y-78317552D01*
X184400127Y-78317554D01*
X184400127Y-78317555D01*
X184396471Y-78328804D01*
X184396467Y-78328815D01*
X184382981Y-78370324D01*
X184382980Y-78370327D01*
X184346596Y-78482301D01*
X184319500Y-78653383D01*
X184319500Y-78826614D01*
X184339380Y-78952131D01*
X184346578Y-78997580D01*
X184346598Y-78997701D01*
X184400127Y-79162445D01*
X184478768Y-79316788D01*
X184580586Y-79456928D01*
X184703072Y-79579414D01*
X184843212Y-79681232D01*
X184997555Y-79759873D01*
X185162299Y-79813402D01*
X185333389Y-79840500D01*
X185333390Y-79840500D01*
X185506610Y-79840500D01*
X185506611Y-79840500D01*
X185677701Y-79813402D01*
X185842445Y-79759873D01*
X185996788Y-79681232D01*
X186136928Y-79579414D01*
X186259414Y-79456928D01*
X186361232Y-79316788D01*
X186439873Y-79162445D01*
X186493402Y-78997701D01*
X186520500Y-78826611D01*
X186520500Y-78653389D01*
X186493402Y-78482299D01*
X186439873Y-78317555D01*
X186361232Y-78163212D01*
X186352948Y-78151811D01*
X186336475Y-78120592D01*
X186332124Y-78108397D01*
X186328136Y-78038641D01*
X186362494Y-77977803D01*
X186419112Y-77946362D01*
X186428116Y-77944132D01*
X186457913Y-77940500D01*
X188028476Y-77940500D01*
X188063408Y-77945521D01*
X188088652Y-77952934D01*
X188141398Y-77984230D01*
X190422486Y-80265318D01*
X190443637Y-80293571D01*
X190450289Y-80305753D01*
X190465141Y-80374026D01*
X190440725Y-80439491D01*
X190440723Y-80439492D01*
X190435628Y-80446298D01*
X190398365Y-80479372D01*
X190390657Y-80483822D01*
X190390646Y-80483828D01*
X190390637Y-80483836D01*
X190288166Y-80586307D01*
X190288151Y-80586323D01*
X190288146Y-80586331D01*
X190215678Y-80711848D01*
X190215650Y-80711917D01*
X190215409Y-80712850D01*
X190178161Y-80851864D01*
X190178161Y-80996814D01*
X190204615Y-81095539D01*
X190204614Y-81095539D01*
X190215677Y-81136826D01*
X190215678Y-81136827D01*
X190250032Y-81196330D01*
X190250815Y-81197685D01*
X190263933Y-81230455D01*
X190266391Y-81240588D01*
X190263065Y-81310378D01*
X190222536Y-81367291D01*
X190157670Y-81393258D01*
X190098771Y-81384519D01*
X190093885Y-81382512D01*
X190081304Y-81376206D01*
X190081218Y-81376368D01*
X190078490Y-81374913D01*
X190078484Y-81374910D01*
X189941919Y-81318344D01*
X189941920Y-81318344D01*
X189941917Y-81318343D01*
X189941907Y-81318340D01*
X189941905Y-81318339D01*
X189941900Y-81318338D01*
X189796922Y-81289500D01*
X189796920Y-81289500D01*
X189796918Y-81289500D01*
X188549082Y-81289500D01*
X188549080Y-81289500D01*
X188549078Y-81289500D01*
X188404096Y-81318338D01*
X188404079Y-81318344D01*
X188267517Y-81374908D01*
X188267508Y-81374913D01*
X188267491Y-81374923D01*
X188144581Y-81457049D01*
X188144580Y-81457050D01*
X188144574Y-81457055D01*
X188040055Y-81561574D01*
X188040050Y-81561580D01*
X188040049Y-81561581D01*
X187957923Y-81684491D01*
X187957913Y-81684508D01*
X187957908Y-81684517D01*
X187901344Y-81821079D01*
X187901338Y-81821098D01*
X187872500Y-81966076D01*
X187872500Y-82069551D01*
X187867237Y-82087471D01*
X187901315Y-82258783D01*
X187901340Y-82258907D01*
X187901343Y-82258917D01*
X187906140Y-82270498D01*
X187957908Y-82395481D01*
X187957913Y-82395490D01*
X187957923Y-82395507D01*
X188040049Y-82518417D01*
X188040050Y-82518418D01*
X188040055Y-82518424D01*
X188144574Y-82622943D01*
X188144580Y-82622948D01*
X188144584Y-82622951D01*
X188267498Y-82705080D01*
X188267511Y-82705087D01*
X188267513Y-82705087D01*
X188267517Y-82705090D01*
X188390420Y-82755997D01*
X188390427Y-82756000D01*
X188398480Y-82759335D01*
X188402887Y-82761419D01*
X188404085Y-82761657D01*
X188404087Y-82761658D01*
X188404088Y-82761658D01*
X188404091Y-82761658D01*
X188404092Y-82761659D01*
X188445561Y-82769908D01*
X188549076Y-82790500D01*
X188549079Y-82790500D01*
X189221900Y-82790500D01*
X189256827Y-82795521D01*
X189267680Y-82798707D01*
X189326461Y-82836477D01*
X189355490Y-82900031D01*
X189345550Y-82969190D01*
X189343897Y-82972813D01*
X189343536Y-82973603D01*
X189315769Y-83012353D01*
X189298574Y-83028552D01*
X189289593Y-83039526D01*
X189212485Y-83116634D01*
X189212478Y-83116645D01*
X189136721Y-83247857D01*
X189136720Y-83247860D01*
X189136719Y-83247862D01*
X189136719Y-83247863D01*
X189123145Y-83298524D01*
X189106624Y-83360181D01*
X189097500Y-83394231D01*
X189097500Y-83545767D01*
X189114438Y-83608984D01*
X189114439Y-83608984D01*
X189114439Y-83608985D01*
X189136719Y-83692136D01*
X189161185Y-83734511D01*
X189212485Y-83823365D01*
X189319635Y-83930515D01*
X189390763Y-83971581D01*
X189391690Y-83972116D01*
X189419428Y-83993928D01*
X189429006Y-84003973D01*
X189461026Y-84066073D01*
X189454388Y-84135627D01*
X189454385Y-84135635D01*
X189451225Y-84143528D01*
X189423789Y-84185121D01*
X187159087Y-86449823D01*
X187130834Y-86470974D01*
X187118652Y-86477626D01*
X187050379Y-86492478D01*
X186984916Y-86468062D01*
X186979615Y-86464094D01*
X186978807Y-86463489D01*
X186947646Y-86429422D01*
X186941572Y-86419595D01*
X186939658Y-86416392D01*
X186938612Y-86414580D01*
X186937283Y-86412654D01*
X186932987Y-86405703D01*
X186933423Y-86405433D01*
X186928342Y-86398645D01*
X186915735Y-86375556D01*
X186900568Y-86316131D01*
X186900568Y-84428935D01*
X186900568Y-84428933D01*
X186873275Y-84327073D01*
X186820548Y-84235747D01*
X186745981Y-84161180D01*
X183608321Y-81023520D01*
X183608318Y-81023518D01*
X183608314Y-81023515D01*
X183548588Y-80989032D01*
X183548585Y-80989031D01*
X183516995Y-80970791D01*
X183459044Y-80955265D01*
X183415136Y-80943500D01*
X183415135Y-80943500D01*
X183415134Y-80943500D01*
X180639085Y-80943500D01*
X180604149Y-80938477D01*
X180578907Y-80931065D01*
X180526162Y-80899769D01*
X178878600Y-79252207D01*
X178857451Y-79223957D01*
X178849266Y-79208967D01*
X178834254Y-79143347D01*
X178834919Y-79130053D01*
X178840833Y-79097934D01*
X178873402Y-78997701D01*
X178900500Y-78826611D01*
X178900500Y-78653389D01*
X178873402Y-78482299D01*
X178846402Y-78399204D01*
X178841250Y-78383347D01*
X178835232Y-78348568D01*
X178834745Y-78331512D01*
X178851155Y-78266237D01*
X178857789Y-78254683D01*
X178860835Y-78250704D01*
X178861424Y-78248745D01*
X178864064Y-78246485D01*
X178877635Y-78228755D01*
X179694968Y-77411423D01*
X179723218Y-77390275D01*
X179746310Y-77377667D01*
X179805735Y-77362500D01*
X180833914Y-77362500D01*
X180868841Y-77367521D01*
G37*
%TD.AperFunction*%
%TA.AperFunction,NonConductor*%
G36*
X190730503Y-84167134D02*
G01*
X190737313Y-84172232D01*
X190770384Y-84209495D01*
X190821491Y-84298015D01*
X190821493Y-84298017D01*
X190821537Y-84298093D01*
X190831903Y-84314015D01*
X190839031Y-84327070D01*
X190846332Y-84340440D01*
X190861500Y-84399867D01*
X190861500Y-84812784D01*
X190856476Y-84847722D01*
X190848993Y-84873204D01*
X190824135Y-84917357D01*
X190824528Y-84917631D01*
X190823108Y-84919665D01*
X190823294Y-84919820D01*
X190821614Y-84921835D01*
X190821596Y-84921868D01*
X190821495Y-84921977D01*
X190821494Y-84921979D01*
X190821485Y-84921992D01*
X190749017Y-85047509D01*
X190748989Y-85047578D01*
X190748748Y-85048511D01*
X190711500Y-85187525D01*
X190711500Y-85332475D01*
X190712496Y-85336192D01*
X190716684Y-85371226D01*
X190716354Y-85385101D01*
X190695081Y-85451654D01*
X190641207Y-85496139D01*
X190633392Y-85499486D01*
X190584574Y-85509500D01*
X190178512Y-85509500D01*
X190076649Y-85536793D01*
X190065077Y-85543474D01*
X190065078Y-85543475D01*
X190031411Y-85562913D01*
X190031407Y-85562915D01*
X190008366Y-85576217D01*
X190008365Y-85576216D01*
X189985335Y-85589514D01*
X189985323Y-85589521D01*
X189985320Y-85589524D01*
X185866472Y-89708373D01*
X185838221Y-89729522D01*
X185815133Y-89742130D01*
X185755703Y-89757300D01*
X184545971Y-89757300D01*
X184511032Y-89752276D01*
X184497714Y-89748365D01*
X184438937Y-89710589D01*
X184409915Y-89647032D01*
X184409909Y-89646993D01*
X184409727Y-89645724D01*
X184415507Y-89586944D01*
X184416443Y-89584287D01*
X184417370Y-89581651D01*
X184427604Y-89559704D01*
X184430019Y-89555619D01*
X184439618Y-89539390D01*
X184483709Y-89387627D01*
X184486500Y-89352163D01*
X184486499Y-88475838D01*
X184483709Y-88440373D01*
X184469134Y-88390205D01*
X184464213Y-88355265D01*
X184464253Y-88341382D01*
X184484130Y-88274401D01*
X184537063Y-88228801D01*
X184544230Y-88225552D01*
X184595405Y-88214500D01*
X186414031Y-88214500D01*
X186414033Y-88214500D01*
X186515894Y-88187207D01*
X186607219Y-88134480D01*
X190556330Y-84185367D01*
X190584579Y-84164219D01*
X190596767Y-84157564D01*
X190665039Y-84142715D01*
X190730503Y-84167134D01*
G37*
%TD.AperFunction*%
%TA.AperFunction,NonConductor*%
G36*
X180922911Y-90563321D02*
G01*
X180933764Y-90566507D01*
X180992545Y-90604277D01*
X181021574Y-90667831D01*
X181011635Y-90736990D01*
X181011631Y-90736999D01*
X181008446Y-90743973D01*
X180983334Y-90780141D01*
X180951777Y-90811698D01*
X180915493Y-90847982D01*
X180915490Y-90847986D01*
X180915485Y-90847992D01*
X180843017Y-90973509D01*
X180842920Y-90973748D01*
X180842748Y-90974511D01*
X180805500Y-91113525D01*
X180804439Y-91121585D01*
X180803443Y-91121453D01*
X180800476Y-91142093D01*
X180797289Y-91152946D01*
X180759514Y-91211723D01*
X180695957Y-91240746D01*
X180626807Y-91230805D01*
X180619829Y-91227618D01*
X180583657Y-91202504D01*
X180401685Y-91020532D01*
X180380536Y-90992282D01*
X180373881Y-90980094D01*
X180359030Y-90911824D01*
X180383444Y-90846363D01*
X180388548Y-90839545D01*
X180425816Y-90806472D01*
X180433527Y-90802022D01*
X180536021Y-90699528D01*
X180572850Y-90635735D01*
X180583277Y-90622477D01*
X180583051Y-90622318D01*
X180586138Y-90617940D01*
X180588986Y-90615219D01*
X180594676Y-90607985D01*
X180598831Y-90604024D01*
X180599725Y-90604962D01*
X180611580Y-90593639D01*
X180610461Y-90592229D01*
X180614877Y-90588722D01*
X180614883Y-90588719D01*
X180614887Y-90588714D01*
X180616017Y-90587818D01*
X180619411Y-90586159D01*
X180620744Y-90584887D01*
X180620827Y-90584834D01*
X180621135Y-90585317D01*
X180663896Y-90564426D01*
X180674754Y-90561793D01*
X180703976Y-90558300D01*
X180887984Y-90558300D01*
X180922911Y-90563321D01*
G37*
%TD.AperFunction*%
%TA.AperFunction,NonConductor*%
G36*
X175820983Y-88505512D02*
G01*
X175879177Y-88524879D01*
X175885690Y-88529065D01*
X175906330Y-88545698D01*
X175967344Y-88606712D01*
X176116666Y-88698814D01*
X176283203Y-88753999D01*
X176385991Y-88764500D01*
X177486008Y-88764499D01*
X177486058Y-88764499D01*
X177486225Y-88764489D01*
X177487331Y-88764363D01*
X177532459Y-88759753D01*
X177542303Y-88758748D01*
X177542303Y-88758747D01*
X177588797Y-88753999D01*
X177719578Y-88710661D01*
X177754314Y-88704441D01*
X177768184Y-88703964D01*
X177835859Y-88721332D01*
X177883402Y-88772531D01*
X177886456Y-88778652D01*
X177899500Y-88834012D01*
X177899500Y-90740050D01*
X177905610Y-90762852D01*
X177926793Y-90841911D01*
X177930299Y-90847983D01*
X177930300Y-90847986D01*
X177979515Y-90933228D01*
X177979522Y-90933237D01*
X178175872Y-91129587D01*
X178197022Y-91157839D01*
X178197338Y-91158418D01*
X178203675Y-91170022D01*
X178218527Y-91238295D01*
X178194111Y-91303760D01*
X178194106Y-91303766D01*
X178189012Y-91310570D01*
X178151750Y-91343640D01*
X178056678Y-91398531D01*
X178056658Y-91398544D01*
X177954167Y-91501034D01*
X177954165Y-91501037D01*
X177954157Y-91501047D01*
X177881689Y-91626564D01*
X177881661Y-91626633D01*
X177881420Y-91627566D01*
X177844172Y-91766580D01*
X177844172Y-91911529D01*
X177881685Y-92051532D01*
X177881688Y-92051540D01*
X177881689Y-92051543D01*
X177893714Y-92072370D01*
X177952307Y-92173857D01*
X177953795Y-92176623D01*
X177954025Y-92176932D01*
X178056657Y-92279564D01*
X178057346Y-92280060D01*
X178059850Y-92281408D01*
X178178741Y-92350050D01*
X178181759Y-92351924D01*
X178182186Y-92352038D01*
X178182187Y-92352039D01*
X178322197Y-92389555D01*
X178322200Y-92389555D01*
X178322304Y-92389583D01*
X178340870Y-92393505D01*
X178369765Y-92401990D01*
X178422509Y-92433285D01*
X178620573Y-92631349D01*
X178641723Y-92659601D01*
X178654331Y-92682690D01*
X178660475Y-92710932D01*
X178669445Y-92738413D01*
X178669500Y-92742119D01*
X178669500Y-92990242D01*
X178664475Y-93025183D01*
X178660826Y-93037608D01*
X178623049Y-93096384D01*
X178559492Y-93125406D01*
X178495216Y-93117563D01*
X178486625Y-93114076D01*
X178460375Y-93099498D01*
X178445054Y-93088367D01*
X178414185Y-93065939D01*
X178376788Y-93038768D01*
X178345333Y-93022741D01*
X178222449Y-92960128D01*
X178066532Y-92909467D01*
X178062010Y-92907614D01*
X178052820Y-92905444D01*
X178048057Y-92905070D01*
X178021198Y-92900816D01*
X177926271Y-92885781D01*
X177910407Y-92883268D01*
X177886614Y-92879500D01*
X177886611Y-92879500D01*
X177713389Y-92879500D01*
X177713388Y-92879500D01*
X177681190Y-92884599D01*
X177681189Y-92884598D01*
X177542313Y-92906594D01*
X177542302Y-92906596D01*
X177542279Y-92906603D01*
X177443351Y-92938747D01*
X177408576Y-92944765D01*
X177391509Y-92945252D01*
X177326225Y-92928835D01*
X177314680Y-92922206D01*
X177288748Y-92902355D01*
X175378915Y-90992522D01*
X175378913Y-90992520D01*
X175378910Y-90992518D01*
X175378906Y-90992515D01*
X175317046Y-90956800D01*
X175317043Y-90956799D01*
X175287590Y-90939793D01*
X175262123Y-90932969D01*
X175236657Y-90926146D01*
X175236656Y-90926145D01*
X175185730Y-90912500D01*
X175185727Y-90912500D01*
X175185726Y-90912500D01*
X172598527Y-90912500D01*
X172563588Y-90907476D01*
X172550270Y-90903565D01*
X172491493Y-90865789D01*
X172462471Y-90802235D01*
X172462440Y-90802022D01*
X172460619Y-90789352D01*
X172460833Y-90759646D01*
X172460118Y-90759590D01*
X172460498Y-90754744D01*
X172460500Y-90754735D01*
X172460499Y-90353266D01*
X172460499Y-90353265D01*
X172460499Y-90353260D01*
X172447543Y-90271466D01*
X172447159Y-90266582D01*
X172443619Y-90251838D01*
X172440588Y-90243623D01*
X172433924Y-90215866D01*
X172430500Y-90186925D01*
X172430500Y-90050329D01*
X172435523Y-90015393D01*
X172435666Y-90014908D01*
X172439927Y-90000394D01*
X172477672Y-89941644D01*
X172479041Y-89940457D01*
X172533920Y-89912977D01*
X172541479Y-89911333D01*
X172567832Y-89908500D01*
X172798890Y-89908500D01*
X172798892Y-89908500D01*
X172926186Y-89874392D01*
X173040314Y-89808500D01*
X173310391Y-89538420D01*
X173338646Y-89517271D01*
X173361734Y-89504665D01*
X173421157Y-89489499D01*
X173647481Y-89489499D01*
X173647484Y-89489499D01*
X173704114Y-89483412D01*
X173806968Y-89445049D01*
X173832224Y-89435629D01*
X173832224Y-89435628D01*
X173832226Y-89435628D01*
X173832229Y-89435626D01*
X173932791Y-89360346D01*
X173936326Y-89358164D01*
X173939135Y-89355818D01*
X173943026Y-89352739D01*
X173946633Y-89348461D01*
X173948962Y-89346002D01*
X173949701Y-89346702D01*
X173967210Y-89328207D01*
X173985024Y-89314872D01*
X174037333Y-89292111D01*
X174040917Y-89291464D01*
X174062901Y-89289500D01*
X174826890Y-89289500D01*
X174826892Y-89289500D01*
X174954186Y-89255392D01*
X175068314Y-89189500D01*
X175708938Y-88548873D01*
X175737192Y-88527724D01*
X175750912Y-88520233D01*
X175819172Y-88505382D01*
X175820983Y-88505512D01*
G37*
%TD.AperFunction*%
%TA.AperFunction,NonConductor*%
G36*
X184027415Y-93303891D02*
G01*
X184032572Y-93306803D01*
X184059283Y-93327097D01*
X184306716Y-93574530D01*
X184327867Y-93602784D01*
X184336050Y-93617770D01*
X184351063Y-93683382D01*
X184350362Y-93697402D01*
X184346871Y-93718498D01*
X184347411Y-93718618D01*
X184346597Y-93722297D01*
X184336349Y-93787006D01*
X184336349Y-93787008D01*
X184319500Y-93893384D01*
X184319500Y-93893386D01*
X184319500Y-93893389D01*
X184319500Y-94066611D01*
X184346598Y-94237701D01*
X184392866Y-94380099D01*
X184392867Y-94380101D01*
X184400126Y-94402443D01*
X184478761Y-94556776D01*
X184478764Y-94556780D01*
X184478768Y-94556788D01*
X184487056Y-94568195D01*
X184503523Y-94599405D01*
X184507874Y-94611599D01*
X184511864Y-94681355D01*
X184477507Y-94742194D01*
X184420899Y-94773634D01*
X184411900Y-94775863D01*
X184382087Y-94779500D01*
X183919997Y-94779500D01*
X183885059Y-94774476D01*
X183872633Y-94770827D01*
X183813856Y-94733051D01*
X183784833Y-94669494D01*
X183792678Y-94605207D01*
X183796166Y-94596617D01*
X183810740Y-94570377D01*
X183816239Y-94562807D01*
X183820803Y-94556525D01*
X183899408Y-94402257D01*
X183952914Y-94237584D01*
X183980000Y-94066571D01*
X183980000Y-93893428D01*
X183952914Y-93722415D01*
X183899408Y-93557742D01*
X183857243Y-93474990D01*
X183845859Y-93441586D01*
X183844576Y-93434755D01*
X183851547Y-93365234D01*
X183894998Y-93310519D01*
X183961132Y-93287980D01*
X184027415Y-93303891D01*
G37*
%TD.AperFunction*%
%TA.AperFunction,NonConductor*%
G36*
X178728200Y-94676817D02*
G01*
X178786400Y-94696185D01*
X178792913Y-94700371D01*
X178813553Y-94717004D01*
X178998092Y-94901542D01*
X179019241Y-94929792D01*
X179024662Y-94939719D01*
X179039516Y-95007992D01*
X179015102Y-95073457D01*
X178959176Y-95115328D01*
X178951990Y-95118009D01*
X178908646Y-95125831D01*
X178494645Y-95125831D01*
X178459710Y-95120808D01*
X178448856Y-95117621D01*
X178390078Y-95079847D01*
X178361053Y-95016291D01*
X178370996Y-94947134D01*
X178372287Y-94944309D01*
X178412211Y-94895495D01*
X178414624Y-94893742D01*
X178414638Y-94893731D01*
X178414800Y-94893614D01*
X178516928Y-94819414D01*
X178616163Y-94720177D01*
X178644413Y-94699030D01*
X178658133Y-94691538D01*
X178726390Y-94676688D01*
X178728200Y-94676817D01*
G37*
%TD.AperFunction*%
%TA.AperFunction,Conductor*%
%TO.N,+3V3*%
G36*
X180421312Y-82302776D02*
G01*
X181738960Y-82412580D01*
X181804133Y-82437764D01*
X181845345Y-82494186D01*
X181852103Y-82547908D01*
X181609999Y-85089996D01*
X181610000Y-85090000D01*
X181625247Y-85130659D01*
X181630355Y-85200342D01*
X181616532Y-85236193D01*
X181608756Y-85249662D01*
X181608754Y-85249666D01*
X181567831Y-85402393D01*
X181567831Y-85560507D01*
X181590441Y-85644886D01*
X181608754Y-85713233D01*
X181608757Y-85713240D01*
X181687806Y-85850159D01*
X181687810Y-85850164D01*
X181687811Y-85850166D01*
X181799615Y-85961970D01*
X181936452Y-86040972D01*
X181984667Y-86091538D01*
X181990555Y-86104816D01*
X181990996Y-86105994D01*
X181991001Y-86106002D01*
X182417941Y-86654757D01*
X182813640Y-87163358D01*
X182839270Y-87228356D01*
X182825690Y-87296893D01*
X182777212Y-87347209D01*
X182715772Y-87363500D01*
X180350691Y-87363500D01*
X180281944Y-87381920D01*
X180236112Y-87394201D01*
X180236107Y-87394204D01*
X180192695Y-87419267D01*
X180192696Y-87419268D01*
X180133389Y-87453508D01*
X180133387Y-87453510D01*
X179680608Y-87906287D01*
X179619285Y-87939771D01*
X179603396Y-87942162D01*
X178843227Y-88006569D01*
X178774765Y-87992615D01*
X178770758Y-87990399D01*
X178770470Y-87990233D01*
X178633542Y-87911178D01*
X178480815Y-87870255D01*
X178322701Y-87870255D01*
X178169974Y-87911178D01*
X178169967Y-87911181D01*
X178033043Y-87990233D01*
X177972243Y-88051032D01*
X177910919Y-88084516D01*
X177895032Y-88086906D01*
X177413286Y-88127723D01*
X177344824Y-88113769D01*
X177294774Y-88065016D01*
X177279475Y-88016926D01*
X177271741Y-87942162D01*
X176919825Y-84540310D01*
X176932507Y-84471602D01*
X176980323Y-84420657D01*
X176987688Y-84416655D01*
X177196242Y-84312378D01*
X177265001Y-84300005D01*
X177329540Y-84326772D01*
X177339372Y-84335608D01*
X177431284Y-84427520D01*
X177431286Y-84427521D01*
X177431290Y-84427524D01*
X177507637Y-84471602D01*
X177568216Y-84506577D01*
X177720943Y-84547500D01*
X177720945Y-84547500D01*
X177879055Y-84547500D01*
X177879057Y-84547500D01*
X178031784Y-84506577D01*
X178168716Y-84427520D01*
X178280520Y-84315716D01*
X178290008Y-84299280D01*
X178310956Y-84263000D01*
X178361523Y-84214784D01*
X178418343Y-84201000D01*
X179324000Y-84201000D01*
X180301603Y-82367993D01*
X180350519Y-82318106D01*
X180418642Y-82302583D01*
X180421312Y-82302776D01*
G37*
%TD.AperFunction*%
%TD*%
M02*
