%TF.GenerationSoftware,KiCad,Pcbnew,10.0.5*%
%TF.CreationDate,2026-09-02T18:05:49-05:00*%
%TF.ProjectId,f411_dev_board,66343131-5f64-4657-965f-626f6172642e,rev?*%
%TF.SameCoordinates,Original*%
%TF.FileFunction,Paste,Top*%
%TF.FilePolarity,Positive*%
%FSLAX46Y46*%
G04 Gerber Fmt 4.6, Leading zero omitted, Abs format (unit mm)*
G04 Created by KiCad (PCBNEW 10.0.5) date 2026-09-02 18:05:49*
%MOMM*%
%LPD*%
G01*
G04 APERTURE LIST*
G04 Aperture macros list*
%AMRoundRect*
0 Rectangle with rounded corners*
0 $1 Rounding radius*
0 $2 $3 $4 $5 $6 $7 $8 $9 X,Y pos of 4 corners*
0 Add a 4 corners polygon primitive as box body*
4,1,4,$2,$3,$4,$5,$6,$7,$8,$9,$2,$3,0*
0 Add four circle primitives for the rounded corners*
1,1,$1+$1,$2,$3*
1,1,$1+$1,$4,$5*
1,1,$1+$1,$6,$7*
1,1,$1+$1,$8,$9*
0 Add four rect primitives between the rounded corners*
20,1,$1+$1,$2,$3,$4,$5,0*
20,1,$1+$1,$4,$5,$6,$7,0*
20,1,$1+$1,$6,$7,$8,$9,0*
20,1,$1+$1,$8,$9,$2,$3,0*%
G04 Aperture macros list end*
%ADD10RoundRect,0.147500X-0.172500X0.147500X-0.172500X-0.147500X0.172500X-0.147500X0.172500X0.147500X0*%
%ADD11RoundRect,0.250000X-0.315000X-0.315000X0.315000X-0.315000X0.315000X0.315000X-0.315000X0.315000X0*%
%ADD12RoundRect,0.062500X-0.375000X-0.062500X0.375000X-0.062500X0.375000X0.062500X-0.375000X0.062500X0*%
%ADD13RoundRect,0.062500X-0.062500X-0.375000X0.062500X-0.375000X0.062500X0.375000X-0.062500X0.375000X0*%
%ADD14RoundRect,0.218750X-0.256250X0.218750X-0.256250X-0.218750X0.256250X-0.218750X0.256250X0.218750X0*%
%ADD15RoundRect,0.225000X0.225000X0.250000X-0.225000X0.250000X-0.225000X-0.250000X0.225000X-0.250000X0*%
%ADD16RoundRect,0.150000X-0.512500X-0.150000X0.512500X-0.150000X0.512500X0.150000X-0.512500X0.150000X0*%
%ADD17RoundRect,0.140000X0.170000X-0.140000X0.170000X0.140000X-0.170000X0.140000X-0.170000X-0.140000X0*%
%ADD18RoundRect,0.250000X-0.350000X0.450000X-0.350000X-0.450000X0.350000X-0.450000X0.350000X0.450000X0*%
%ADD19RoundRect,0.150000X0.425000X-0.150000X0.425000X0.150000X-0.425000X0.150000X-0.425000X-0.150000X0*%
%ADD20RoundRect,0.075000X0.500000X-0.075000X0.500000X0.075000X-0.500000X0.075000X-0.500000X-0.075000X0*%
%ADD21O,2.100000X1.000000*%
%ADD22O,1.800000X1.000000*%
%ADD23R,1.000000X0.750000*%
%ADD24RoundRect,0.135000X-0.135000X-0.185000X0.135000X-0.185000X0.135000X0.185000X-0.135000X0.185000X0*%
%ADD25RoundRect,0.135000X0.185000X-0.135000X0.185000X0.135000X-0.185000X0.135000X-0.185000X-0.135000X0*%
%ADD26RoundRect,0.135000X-0.185000X0.135000X-0.185000X-0.135000X0.185000X-0.135000X0.185000X0.135000X0*%
%ADD27RoundRect,0.140000X-0.170000X0.140000X-0.170000X-0.140000X0.170000X-0.140000X0.170000X0.140000X0*%
G04 APERTURE END LIST*
D10*
%TO.C,D1*%
X194056000Y-78509000D03*
X194056000Y-79479000D03*
%TD*%
D11*
%TO.C,U1*%
X166110000Y-83814000D03*
X166110000Y-85214000D03*
X166110000Y-86614000D03*
X166110000Y-88014000D03*
X167510000Y-83814000D03*
X167510000Y-85214000D03*
X167510000Y-86614000D03*
X167510000Y-88014000D03*
X168910000Y-83814000D03*
X168910000Y-85214000D03*
X168910000Y-86614000D03*
X168910000Y-88014000D03*
X170310000Y-83814000D03*
X170310000Y-85214000D03*
X170310000Y-86614000D03*
X170310000Y-88014000D03*
D12*
X164772500Y-83164000D03*
X164772500Y-83664000D03*
X164772500Y-84164000D03*
X164772500Y-84664000D03*
X164772500Y-85164000D03*
X164772500Y-85664000D03*
X164772500Y-86164000D03*
X164772500Y-86664000D03*
X164772500Y-87164000D03*
X164772500Y-87664000D03*
X164772500Y-88164000D03*
X164772500Y-88664000D03*
D13*
X165460000Y-89351500D03*
X165960000Y-89351500D03*
X166460000Y-89351500D03*
X166960000Y-89351500D03*
X167460000Y-89351500D03*
X167960000Y-89351500D03*
X168460000Y-89351500D03*
X168960000Y-89351500D03*
X169460000Y-89351500D03*
X169960000Y-89351500D03*
X170460000Y-89351500D03*
X170960000Y-89351500D03*
D12*
X171647500Y-88664000D03*
X171647500Y-88164000D03*
X171647500Y-87664000D03*
X171647500Y-87164000D03*
X171647500Y-86664000D03*
X171647500Y-86164000D03*
X171647500Y-85664000D03*
X171647500Y-85164000D03*
X171647500Y-84664000D03*
X171647500Y-84164000D03*
X171647500Y-83664000D03*
X171647500Y-83164000D03*
D13*
X170960000Y-82476500D03*
X170460000Y-82476500D03*
X169960000Y-82476500D03*
X169460000Y-82476500D03*
X168960000Y-82476500D03*
X168460000Y-82476500D03*
X167960000Y-82476500D03*
X167460000Y-82476500D03*
X166960000Y-82476500D03*
X166460000Y-82476500D03*
X165960000Y-82476500D03*
X165460000Y-82476500D03*
%TD*%
D14*
%TO.C,FB1*%
X160782000Y-88366500D03*
X160782000Y-89941500D03*
%TD*%
D15*
%TO.C,C8*%
X159258000Y-89916000D03*
X157708000Y-89916000D03*
%TD*%
D16*
%TO.C,U2*%
X183012500Y-87696000D03*
X183012500Y-88646000D03*
X183012500Y-89596000D03*
X185287500Y-89596000D03*
X185287500Y-88646000D03*
X185287500Y-87696000D03*
%TD*%
D17*
%TO.C,C14*%
X161798000Y-87094000D03*
X161798000Y-86134000D03*
%TD*%
D18*
%TO.C,Y1*%
X158662000Y-84244000D03*
X158662000Y-86444000D03*
X160362000Y-86444000D03*
X160362000Y-84244000D03*
%TD*%
D19*
%TO.C,J4*%
X188598000Y-89560000D03*
X188598000Y-88760000D03*
D20*
X188598000Y-87610000D03*
X188598000Y-86610000D03*
X188598000Y-86110000D03*
X188598000Y-85110000D03*
D19*
X188598000Y-83960000D03*
X188598000Y-83160000D03*
X188598000Y-83160000D03*
X188598000Y-83960000D03*
D20*
X188598000Y-84610000D03*
X188598000Y-85610000D03*
X188598000Y-87110000D03*
X188598000Y-88110000D03*
D19*
X188598000Y-88760000D03*
X188598000Y-89560000D03*
D21*
X189173000Y-90680000D03*
D22*
X193353000Y-90680000D03*
D21*
X189173000Y-82040000D03*
D22*
X193353000Y-82040000D03*
%TD*%
D23*
%TO.C,SW2*%
X180134000Y-81437000D03*
X186134000Y-81437000D03*
X180134000Y-85187000D03*
X186134000Y-85187000D03*
%TD*%
D10*
%TO.C,D2*%
X194564000Y-92987000D03*
X194564000Y-93957000D03*
%TD*%
D17*
%TO.C,C10*%
X178816000Y-83792000D03*
X178816000Y-82832000D03*
%TD*%
%TO.C,C13*%
X161798000Y-84300000D03*
X161798000Y-83340000D03*
%TD*%
D24*
%TO.C,R6*%
X192784000Y-80518000D03*
X193804000Y-80518000D03*
%TD*%
D25*
%TO.C,R4*%
X157226000Y-85727000D03*
X157226000Y-84707000D03*
%TD*%
%TO.C,R3*%
X178816000Y-85854000D03*
X178816000Y-84834000D03*
%TD*%
D26*
%TO.C,R7*%
X193040000Y-92962000D03*
X193040000Y-93982000D03*
%TD*%
D27*
%TO.C,C6*%
X162052000Y-88166000D03*
X162052000Y-89126000D03*
%TD*%
D15*
%TO.C,C7*%
X159258000Y-88392000D03*
X157708000Y-88392000D03*
%TD*%
M02*
