%TF.GenerationSoftware,KiCad,Pcbnew,10.0.5*%
%TF.CreationDate,2026-09-02T18:05:49-05:00*%
%TF.ProjectId,f411_dev_board,66343131-5f64-4657-965f-626f6172642e,rev?*%
%TF.SameCoordinates,Original*%
%TF.FileFunction,Legend,Top*%
%TF.FilePolarity,Positive*%
%FSLAX46Y46*%
G04 Gerber Fmt 4.6, Leading zero omitted, Abs format (unit mm)*
G04 Created by KiCad (PCBNEW 10.0.5) date 2026-09-02 18:05:49*
%MOMM*%
%LPD*%
G01*
G04 APERTURE LIST*
%ADD10C,0.150000*%
%ADD11C,0.100000*%
%ADD12C,0.120000*%
G04 APERTURE END LIST*
D10*
X195680819Y-79732094D02*
X194680819Y-79732094D01*
X194680819Y-79732094D02*
X194680819Y-79493999D01*
X194680819Y-79493999D02*
X194728438Y-79351142D01*
X194728438Y-79351142D02*
X194823676Y-79255904D01*
X194823676Y-79255904D02*
X194918914Y-79208285D01*
X194918914Y-79208285D02*
X195109390Y-79160666D01*
X195109390Y-79160666D02*
X195252247Y-79160666D01*
X195252247Y-79160666D02*
X195442723Y-79208285D01*
X195442723Y-79208285D02*
X195537961Y-79255904D01*
X195537961Y-79255904D02*
X195633200Y-79351142D01*
X195633200Y-79351142D02*
X195680819Y-79493999D01*
X195680819Y-79493999D02*
X195680819Y-79732094D01*
X195680819Y-78208285D02*
X195680819Y-78779713D01*
X195680819Y-78493999D02*
X194680819Y-78493999D01*
X194680819Y-78493999D02*
X194823676Y-78589237D01*
X194823676Y-78589237D02*
X194918914Y-78684475D01*
X194918914Y-78684475D02*
X194966533Y-78779713D01*
X160329666Y-91371009D02*
X159996333Y-91371009D01*
X159996333Y-91894819D02*
X159996333Y-90894819D01*
X159996333Y-90894819D02*
X160472523Y-90894819D01*
X161186809Y-91371009D02*
X161329666Y-91418628D01*
X161329666Y-91418628D02*
X161377285Y-91466247D01*
X161377285Y-91466247D02*
X161424904Y-91561485D01*
X161424904Y-91561485D02*
X161424904Y-91704342D01*
X161424904Y-91704342D02*
X161377285Y-91799580D01*
X161377285Y-91799580D02*
X161329666Y-91847200D01*
X161329666Y-91847200D02*
X161234428Y-91894819D01*
X161234428Y-91894819D02*
X160853476Y-91894819D01*
X160853476Y-91894819D02*
X160853476Y-90894819D01*
X160853476Y-90894819D02*
X161186809Y-90894819D01*
X161186809Y-90894819D02*
X161282047Y-90942438D01*
X161282047Y-90942438D02*
X161329666Y-90990057D01*
X161329666Y-90990057D02*
X161377285Y-91085295D01*
X161377285Y-91085295D02*
X161377285Y-91180533D01*
X161377285Y-91180533D02*
X161329666Y-91275771D01*
X161329666Y-91275771D02*
X161282047Y-91323390D01*
X161282047Y-91323390D02*
X161186809Y-91371009D01*
X161186809Y-91371009D02*
X160853476Y-91371009D01*
X162377285Y-91894819D02*
X161805857Y-91894819D01*
X162091571Y-91894819D02*
X162091571Y-90894819D01*
X162091571Y-90894819D02*
X161996333Y-91037676D01*
X161996333Y-91037676D02*
X161901095Y-91132914D01*
X161901095Y-91132914D02*
X161805857Y-91180533D01*
X158329333Y-91799580D02*
X158281714Y-91847200D01*
X158281714Y-91847200D02*
X158138857Y-91894819D01*
X158138857Y-91894819D02*
X158043619Y-91894819D01*
X158043619Y-91894819D02*
X157900762Y-91847200D01*
X157900762Y-91847200D02*
X157805524Y-91751961D01*
X157805524Y-91751961D02*
X157757905Y-91656723D01*
X157757905Y-91656723D02*
X157710286Y-91466247D01*
X157710286Y-91466247D02*
X157710286Y-91323390D01*
X157710286Y-91323390D02*
X157757905Y-91132914D01*
X157757905Y-91132914D02*
X157805524Y-91037676D01*
X157805524Y-91037676D02*
X157900762Y-90942438D01*
X157900762Y-90942438D02*
X158043619Y-90894819D01*
X158043619Y-90894819D02*
X158138857Y-90894819D01*
X158138857Y-90894819D02*
X158281714Y-90942438D01*
X158281714Y-90942438D02*
X158329333Y-90990057D01*
X158900762Y-91323390D02*
X158805524Y-91275771D01*
X158805524Y-91275771D02*
X158757905Y-91228152D01*
X158757905Y-91228152D02*
X158710286Y-91132914D01*
X158710286Y-91132914D02*
X158710286Y-91085295D01*
X158710286Y-91085295D02*
X158757905Y-90990057D01*
X158757905Y-90990057D02*
X158805524Y-90942438D01*
X158805524Y-90942438D02*
X158900762Y-90894819D01*
X158900762Y-90894819D02*
X159091238Y-90894819D01*
X159091238Y-90894819D02*
X159186476Y-90942438D01*
X159186476Y-90942438D02*
X159234095Y-90990057D01*
X159234095Y-90990057D02*
X159281714Y-91085295D01*
X159281714Y-91085295D02*
X159281714Y-91132914D01*
X159281714Y-91132914D02*
X159234095Y-91228152D01*
X159234095Y-91228152D02*
X159186476Y-91275771D01*
X159186476Y-91275771D02*
X159091238Y-91323390D01*
X159091238Y-91323390D02*
X158900762Y-91323390D01*
X158900762Y-91323390D02*
X158805524Y-91371009D01*
X158805524Y-91371009D02*
X158757905Y-91418628D01*
X158757905Y-91418628D02*
X158710286Y-91513866D01*
X158710286Y-91513866D02*
X158710286Y-91704342D01*
X158710286Y-91704342D02*
X158757905Y-91799580D01*
X158757905Y-91799580D02*
X158805524Y-91847200D01*
X158805524Y-91847200D02*
X158900762Y-91894819D01*
X158900762Y-91894819D02*
X159091238Y-91894819D01*
X159091238Y-91894819D02*
X159186476Y-91847200D01*
X159186476Y-91847200D02*
X159234095Y-91799580D01*
X159234095Y-91799580D02*
X159281714Y-91704342D01*
X159281714Y-91704342D02*
X159281714Y-91513866D01*
X159281714Y-91513866D02*
X159234095Y-91418628D01*
X159234095Y-91418628D02*
X159186476Y-91371009D01*
X159186476Y-91371009D02*
X159091238Y-91323390D01*
X159885142Y-83163580D02*
X159837523Y-83211200D01*
X159837523Y-83211200D02*
X159694666Y-83258819D01*
X159694666Y-83258819D02*
X159599428Y-83258819D01*
X159599428Y-83258819D02*
X159456571Y-83211200D01*
X159456571Y-83211200D02*
X159361333Y-83115961D01*
X159361333Y-83115961D02*
X159313714Y-83020723D01*
X159313714Y-83020723D02*
X159266095Y-82830247D01*
X159266095Y-82830247D02*
X159266095Y-82687390D01*
X159266095Y-82687390D02*
X159313714Y-82496914D01*
X159313714Y-82496914D02*
X159361333Y-82401676D01*
X159361333Y-82401676D02*
X159456571Y-82306438D01*
X159456571Y-82306438D02*
X159599428Y-82258819D01*
X159599428Y-82258819D02*
X159694666Y-82258819D01*
X159694666Y-82258819D02*
X159837523Y-82306438D01*
X159837523Y-82306438D02*
X159885142Y-82354057D01*
X160837523Y-83258819D02*
X160266095Y-83258819D01*
X160551809Y-83258819D02*
X160551809Y-82258819D01*
X160551809Y-82258819D02*
X160456571Y-82401676D01*
X160456571Y-82401676D02*
X160361333Y-82496914D01*
X160361333Y-82496914D02*
X160266095Y-82544533D01*
X161694666Y-82592152D02*
X161694666Y-83258819D01*
X161456571Y-82211200D02*
X161218476Y-82925485D01*
X161218476Y-82925485D02*
X161837523Y-82925485D01*
X193825905Y-95958819D02*
X193825905Y-94958819D01*
X193825905Y-94958819D02*
X194064000Y-94958819D01*
X194064000Y-94958819D02*
X194206857Y-95006438D01*
X194206857Y-95006438D02*
X194302095Y-95101676D01*
X194302095Y-95101676D02*
X194349714Y-95196914D01*
X194349714Y-95196914D02*
X194397333Y-95387390D01*
X194397333Y-95387390D02*
X194397333Y-95530247D01*
X194397333Y-95530247D02*
X194349714Y-95720723D01*
X194349714Y-95720723D02*
X194302095Y-95815961D01*
X194302095Y-95815961D02*
X194206857Y-95911200D01*
X194206857Y-95911200D02*
X194064000Y-95958819D01*
X194064000Y-95958819D02*
X193825905Y-95958819D01*
X194778286Y-95054057D02*
X194825905Y-95006438D01*
X194825905Y-95006438D02*
X194921143Y-94958819D01*
X194921143Y-94958819D02*
X195159238Y-94958819D01*
X195159238Y-94958819D02*
X195254476Y-95006438D01*
X195254476Y-95006438D02*
X195302095Y-95054057D01*
X195302095Y-95054057D02*
X195349714Y-95149295D01*
X195349714Y-95149295D02*
X195349714Y-95244533D01*
X195349714Y-95244533D02*
X195302095Y-95387390D01*
X195302095Y-95387390D02*
X194730667Y-95958819D01*
X194730667Y-95958819D02*
X195349714Y-95958819D01*
X176141142Y-83671580D02*
X176093523Y-83719200D01*
X176093523Y-83719200D02*
X175950666Y-83766819D01*
X175950666Y-83766819D02*
X175855428Y-83766819D01*
X175855428Y-83766819D02*
X175712571Y-83719200D01*
X175712571Y-83719200D02*
X175617333Y-83623961D01*
X175617333Y-83623961D02*
X175569714Y-83528723D01*
X175569714Y-83528723D02*
X175522095Y-83338247D01*
X175522095Y-83338247D02*
X175522095Y-83195390D01*
X175522095Y-83195390D02*
X175569714Y-83004914D01*
X175569714Y-83004914D02*
X175617333Y-82909676D01*
X175617333Y-82909676D02*
X175712571Y-82814438D01*
X175712571Y-82814438D02*
X175855428Y-82766819D01*
X175855428Y-82766819D02*
X175950666Y-82766819D01*
X175950666Y-82766819D02*
X176093523Y-82814438D01*
X176093523Y-82814438D02*
X176141142Y-82862057D01*
X177093523Y-83766819D02*
X176522095Y-83766819D01*
X176807809Y-83766819D02*
X176807809Y-82766819D01*
X176807809Y-82766819D02*
X176712571Y-82909676D01*
X176712571Y-82909676D02*
X176617333Y-83004914D01*
X176617333Y-83004914D02*
X176522095Y-83052533D01*
X177712571Y-82766819D02*
X177807809Y-82766819D01*
X177807809Y-82766819D02*
X177903047Y-82814438D01*
X177903047Y-82814438D02*
X177950666Y-82862057D01*
X177950666Y-82862057D02*
X177998285Y-82957295D01*
X177998285Y-82957295D02*
X178045904Y-83147771D01*
X178045904Y-83147771D02*
X178045904Y-83385866D01*
X178045904Y-83385866D02*
X177998285Y-83576342D01*
X177998285Y-83576342D02*
X177950666Y-83671580D01*
X177950666Y-83671580D02*
X177903047Y-83719200D01*
X177903047Y-83719200D02*
X177807809Y-83766819D01*
X177807809Y-83766819D02*
X177712571Y-83766819D01*
X177712571Y-83766819D02*
X177617333Y-83719200D01*
X177617333Y-83719200D02*
X177569714Y-83671580D01*
X177569714Y-83671580D02*
X177522095Y-83576342D01*
X177522095Y-83576342D02*
X177474476Y-83385866D01*
X177474476Y-83385866D02*
X177474476Y-83147771D01*
X177474476Y-83147771D02*
X177522095Y-82957295D01*
X177522095Y-82957295D02*
X177569714Y-82862057D01*
X177569714Y-82862057D02*
X177617333Y-82814438D01*
X177617333Y-82814438D02*
X177712571Y-82766819D01*
X159885142Y-81131580D02*
X159837523Y-81179200D01*
X159837523Y-81179200D02*
X159694666Y-81226819D01*
X159694666Y-81226819D02*
X159599428Y-81226819D01*
X159599428Y-81226819D02*
X159456571Y-81179200D01*
X159456571Y-81179200D02*
X159361333Y-81083961D01*
X159361333Y-81083961D02*
X159313714Y-80988723D01*
X159313714Y-80988723D02*
X159266095Y-80798247D01*
X159266095Y-80798247D02*
X159266095Y-80655390D01*
X159266095Y-80655390D02*
X159313714Y-80464914D01*
X159313714Y-80464914D02*
X159361333Y-80369676D01*
X159361333Y-80369676D02*
X159456571Y-80274438D01*
X159456571Y-80274438D02*
X159599428Y-80226819D01*
X159599428Y-80226819D02*
X159694666Y-80226819D01*
X159694666Y-80226819D02*
X159837523Y-80274438D01*
X159837523Y-80274438D02*
X159885142Y-80322057D01*
X160837523Y-81226819D02*
X160266095Y-81226819D01*
X160551809Y-81226819D02*
X160551809Y-80226819D01*
X160551809Y-80226819D02*
X160456571Y-80369676D01*
X160456571Y-80369676D02*
X160361333Y-80464914D01*
X160361333Y-80464914D02*
X160266095Y-80512533D01*
X161170857Y-80226819D02*
X161789904Y-80226819D01*
X161789904Y-80226819D02*
X161456571Y-80607771D01*
X161456571Y-80607771D02*
X161599428Y-80607771D01*
X161599428Y-80607771D02*
X161694666Y-80655390D01*
X161694666Y-80655390D02*
X161742285Y-80703009D01*
X161742285Y-80703009D02*
X161789904Y-80798247D01*
X161789904Y-80798247D02*
X161789904Y-81036342D01*
X161789904Y-81036342D02*
X161742285Y-81131580D01*
X161742285Y-81131580D02*
X161694666Y-81179200D01*
X161694666Y-81179200D02*
X161599428Y-81226819D01*
X161599428Y-81226819D02*
X161313714Y-81226819D01*
X161313714Y-81226819D02*
X161218476Y-81179200D01*
X161218476Y-81179200D02*
X161170857Y-81131580D01*
X195159333Y-81226819D02*
X194826000Y-80750628D01*
X194587905Y-81226819D02*
X194587905Y-80226819D01*
X194587905Y-80226819D02*
X194968857Y-80226819D01*
X194968857Y-80226819D02*
X195064095Y-80274438D01*
X195064095Y-80274438D02*
X195111714Y-80322057D01*
X195111714Y-80322057D02*
X195159333Y-80417295D01*
X195159333Y-80417295D02*
X195159333Y-80560152D01*
X195159333Y-80560152D02*
X195111714Y-80655390D01*
X195111714Y-80655390D02*
X195064095Y-80703009D01*
X195064095Y-80703009D02*
X194968857Y-80750628D01*
X194968857Y-80750628D02*
X194587905Y-80750628D01*
X196016476Y-80226819D02*
X195826000Y-80226819D01*
X195826000Y-80226819D02*
X195730762Y-80274438D01*
X195730762Y-80274438D02*
X195683143Y-80322057D01*
X195683143Y-80322057D02*
X195587905Y-80464914D01*
X195587905Y-80464914D02*
X195540286Y-80655390D01*
X195540286Y-80655390D02*
X195540286Y-81036342D01*
X195540286Y-81036342D02*
X195587905Y-81131580D01*
X195587905Y-81131580D02*
X195635524Y-81179200D01*
X195635524Y-81179200D02*
X195730762Y-81226819D01*
X195730762Y-81226819D02*
X195921238Y-81226819D01*
X195921238Y-81226819D02*
X196016476Y-81179200D01*
X196016476Y-81179200D02*
X196064095Y-81131580D01*
X196064095Y-81131580D02*
X196111714Y-81036342D01*
X196111714Y-81036342D02*
X196111714Y-80798247D01*
X196111714Y-80798247D02*
X196064095Y-80703009D01*
X196064095Y-80703009D02*
X196016476Y-80655390D01*
X196016476Y-80655390D02*
X195921238Y-80607771D01*
X195921238Y-80607771D02*
X195730762Y-80607771D01*
X195730762Y-80607771D02*
X195635524Y-80655390D01*
X195635524Y-80655390D02*
X195587905Y-80703009D01*
X195587905Y-80703009D02*
X195540286Y-80798247D01*
X156932333Y-83893819D02*
X156599000Y-83417628D01*
X156360905Y-83893819D02*
X156360905Y-82893819D01*
X156360905Y-82893819D02*
X156741857Y-82893819D01*
X156741857Y-82893819D02*
X156837095Y-82941438D01*
X156837095Y-82941438D02*
X156884714Y-82989057D01*
X156884714Y-82989057D02*
X156932333Y-83084295D01*
X156932333Y-83084295D02*
X156932333Y-83227152D01*
X156932333Y-83227152D02*
X156884714Y-83322390D01*
X156884714Y-83322390D02*
X156837095Y-83370009D01*
X156837095Y-83370009D02*
X156741857Y-83417628D01*
X156741857Y-83417628D02*
X156360905Y-83417628D01*
X157789476Y-83227152D02*
X157789476Y-83893819D01*
X157551381Y-82846200D02*
X157313286Y-83560485D01*
X157313286Y-83560485D02*
X157932333Y-83560485D01*
X176871333Y-86052819D02*
X176538000Y-85576628D01*
X176299905Y-86052819D02*
X176299905Y-85052819D01*
X176299905Y-85052819D02*
X176680857Y-85052819D01*
X176680857Y-85052819D02*
X176776095Y-85100438D01*
X176776095Y-85100438D02*
X176823714Y-85148057D01*
X176823714Y-85148057D02*
X176871333Y-85243295D01*
X176871333Y-85243295D02*
X176871333Y-85386152D01*
X176871333Y-85386152D02*
X176823714Y-85481390D01*
X176823714Y-85481390D02*
X176776095Y-85529009D01*
X176776095Y-85529009D02*
X176680857Y-85576628D01*
X176680857Y-85576628D02*
X176299905Y-85576628D01*
X177204667Y-85052819D02*
X177823714Y-85052819D01*
X177823714Y-85052819D02*
X177490381Y-85433771D01*
X177490381Y-85433771D02*
X177633238Y-85433771D01*
X177633238Y-85433771D02*
X177728476Y-85481390D01*
X177728476Y-85481390D02*
X177776095Y-85529009D01*
X177776095Y-85529009D02*
X177823714Y-85624247D01*
X177823714Y-85624247D02*
X177823714Y-85862342D01*
X177823714Y-85862342D02*
X177776095Y-85957580D01*
X177776095Y-85957580D02*
X177728476Y-86005200D01*
X177728476Y-86005200D02*
X177633238Y-86052819D01*
X177633238Y-86052819D02*
X177347524Y-86052819D01*
X177347524Y-86052819D02*
X177252286Y-86005200D01*
X177252286Y-86005200D02*
X177204667Y-85957580D01*
X193127333Y-92148819D02*
X192794000Y-91672628D01*
X192555905Y-92148819D02*
X192555905Y-91148819D01*
X192555905Y-91148819D02*
X192936857Y-91148819D01*
X192936857Y-91148819D02*
X193032095Y-91196438D01*
X193032095Y-91196438D02*
X193079714Y-91244057D01*
X193079714Y-91244057D02*
X193127333Y-91339295D01*
X193127333Y-91339295D02*
X193127333Y-91482152D01*
X193127333Y-91482152D02*
X193079714Y-91577390D01*
X193079714Y-91577390D02*
X193032095Y-91625009D01*
X193032095Y-91625009D02*
X192936857Y-91672628D01*
X192936857Y-91672628D02*
X192555905Y-91672628D01*
X193460667Y-91148819D02*
X194127333Y-91148819D01*
X194127333Y-91148819D02*
X193698762Y-92148819D01*
X163282333Y-90021580D02*
X163234714Y-90069200D01*
X163234714Y-90069200D02*
X163091857Y-90116819D01*
X163091857Y-90116819D02*
X162996619Y-90116819D01*
X162996619Y-90116819D02*
X162853762Y-90069200D01*
X162853762Y-90069200D02*
X162758524Y-89973961D01*
X162758524Y-89973961D02*
X162710905Y-89878723D01*
X162710905Y-89878723D02*
X162663286Y-89688247D01*
X162663286Y-89688247D02*
X162663286Y-89545390D01*
X162663286Y-89545390D02*
X162710905Y-89354914D01*
X162710905Y-89354914D02*
X162758524Y-89259676D01*
X162758524Y-89259676D02*
X162853762Y-89164438D01*
X162853762Y-89164438D02*
X162996619Y-89116819D01*
X162996619Y-89116819D02*
X163091857Y-89116819D01*
X163091857Y-89116819D02*
X163234714Y-89164438D01*
X163234714Y-89164438D02*
X163282333Y-89212057D01*
X164139476Y-89116819D02*
X163949000Y-89116819D01*
X163949000Y-89116819D02*
X163853762Y-89164438D01*
X163853762Y-89164438D02*
X163806143Y-89212057D01*
X163806143Y-89212057D02*
X163710905Y-89354914D01*
X163710905Y-89354914D02*
X163663286Y-89545390D01*
X163663286Y-89545390D02*
X163663286Y-89926342D01*
X163663286Y-89926342D02*
X163710905Y-90021580D01*
X163710905Y-90021580D02*
X163758524Y-90069200D01*
X163758524Y-90069200D02*
X163853762Y-90116819D01*
X163853762Y-90116819D02*
X164044238Y-90116819D01*
X164044238Y-90116819D02*
X164139476Y-90069200D01*
X164139476Y-90069200D02*
X164187095Y-90021580D01*
X164187095Y-90021580D02*
X164234714Y-89926342D01*
X164234714Y-89926342D02*
X164234714Y-89688247D01*
X164234714Y-89688247D02*
X164187095Y-89593009D01*
X164187095Y-89593009D02*
X164139476Y-89545390D01*
X164139476Y-89545390D02*
X164044238Y-89497771D01*
X164044238Y-89497771D02*
X163853762Y-89497771D01*
X163853762Y-89497771D02*
X163758524Y-89545390D01*
X163758524Y-89545390D02*
X163710905Y-89593009D01*
X163710905Y-89593009D02*
X163663286Y-89688247D01*
X156551333Y-87227580D02*
X156503714Y-87275200D01*
X156503714Y-87275200D02*
X156360857Y-87322819D01*
X156360857Y-87322819D02*
X156265619Y-87322819D01*
X156265619Y-87322819D02*
X156122762Y-87275200D01*
X156122762Y-87275200D02*
X156027524Y-87179961D01*
X156027524Y-87179961D02*
X155979905Y-87084723D01*
X155979905Y-87084723D02*
X155932286Y-86894247D01*
X155932286Y-86894247D02*
X155932286Y-86751390D01*
X155932286Y-86751390D02*
X155979905Y-86560914D01*
X155979905Y-86560914D02*
X156027524Y-86465676D01*
X156027524Y-86465676D02*
X156122762Y-86370438D01*
X156122762Y-86370438D02*
X156265619Y-86322819D01*
X156265619Y-86322819D02*
X156360857Y-86322819D01*
X156360857Y-86322819D02*
X156503714Y-86370438D01*
X156503714Y-86370438D02*
X156551333Y-86418057D01*
X156884667Y-86322819D02*
X157551333Y-86322819D01*
X157551333Y-86322819D02*
X157122762Y-87322819D01*
%TO.C,D1*%
D11*
X194106000Y-77904000D02*
G75*
G02*
X194006000Y-77904000I-50000J0D01*
G01*
X194006000Y-77904000D02*
G75*
G02*
X194106000Y-77904000I50000J0D01*
G01*
%TO.C,SW1*%
D12*
X151472000Y-87892000D02*
X151472000Y-88892000D01*
X151472000Y-88892000D02*
X151972000Y-88392000D01*
X151972000Y-88392000D02*
X151472000Y-87892000D01*
X152172000Y-81982000D02*
X152482000Y-81982000D01*
X152172000Y-90802000D02*
X152172000Y-81982000D01*
X152482000Y-90802000D02*
X152172000Y-90802000D01*
X156692000Y-81982000D02*
X156382000Y-81982000D01*
X156692000Y-81982000D02*
X156692000Y-90802000D01*
X156692000Y-90802000D02*
X156382000Y-90802000D01*
%TO.C,U1*%
X164600000Y-82304000D02*
X165075000Y-82304000D01*
X164600000Y-82779000D02*
X164600000Y-82304000D01*
X164600000Y-89524000D02*
X164600000Y-89049000D01*
X165075000Y-89524000D02*
X164600000Y-89524000D01*
X171345000Y-82304000D02*
X171820000Y-82304000D01*
X171820000Y-82304000D02*
X171820000Y-82779000D01*
X171820000Y-89049000D02*
X171820000Y-89524000D01*
X171820000Y-89524000D02*
X171345000Y-89524000D01*
X164070000Y-83164000D02*
X163740000Y-83404000D01*
X163740000Y-82924000D01*
X164070000Y-83164000D01*
G36*
X164070000Y-83164000D02*
G01*
X163740000Y-83404000D01*
X163740000Y-82924000D01*
X164070000Y-83164000D01*
G37*
%TO.C,FB1*%
X160272000Y-88991221D02*
X160272000Y-89316779D01*
X161292000Y-88991221D02*
X161292000Y-89316779D01*
%TO.C,C8*%
X158623580Y-89406000D02*
X158342420Y-89406000D01*
X158623580Y-90426000D02*
X158342420Y-90426000D01*
%TO.C,J1*%
X148480000Y-95360000D02*
X148480000Y-93980000D01*
X149860000Y-95360000D02*
X148480000Y-95360000D01*
X151130000Y-92600000D02*
X186800000Y-92600000D01*
X151130000Y-95360000D02*
X151130000Y-92600000D01*
X151130000Y-95360000D02*
X186800000Y-95360000D01*
X186800000Y-95360000D02*
X186800000Y-92600000D01*
%TO.C,U2*%
X183240000Y-87086000D02*
X185060000Y-87086000D01*
X183240000Y-87136000D02*
X183240000Y-87086000D01*
X183240000Y-90206000D02*
X183240000Y-90156000D01*
X185060000Y-87086000D02*
X185060000Y-87136000D01*
X185060000Y-90156000D02*
X185060000Y-90206000D01*
X185060000Y-90206000D02*
X183240000Y-90206000D01*
X182700000Y-87136000D02*
X182460000Y-86806000D01*
X182940000Y-86806000D01*
X182700000Y-87136000D01*
G36*
X182700000Y-87136000D02*
G01*
X182460000Y-86806000D01*
X182940000Y-86806000D01*
X182700000Y-87136000D01*
G37*
%TO.C,C14*%
X161438000Y-86721836D02*
X161438000Y-86506164D01*
X162158000Y-86721836D02*
X162158000Y-86506164D01*
%TO.C,Y1*%
X157802000Y-83284000D02*
X157802000Y-87404000D01*
X161222000Y-83284000D02*
X157802000Y-83284000D01*
%TO.C,J4*%
X192178000Y-81690000D02*
X190478000Y-81690000D01*
X192178000Y-91030000D02*
X190478000Y-91030000D01*
%TO.C,SW2*%
X180384000Y-82312000D02*
X180384000Y-84312000D01*
X181384000Y-81012000D02*
X181834000Y-80562000D01*
X181384000Y-85612000D02*
X181834000Y-86062000D01*
X181834000Y-80562000D02*
X184434000Y-80562000D01*
X181834000Y-86062000D02*
X184434000Y-86062000D01*
X184884000Y-81012000D02*
X184434000Y-80562000D01*
X184884000Y-85612000D02*
X184434000Y-86062000D01*
X185884000Y-82312000D02*
X185884000Y-84312000D01*
%TO.C,D2*%
D11*
X194614000Y-92382000D02*
G75*
G02*
X194514000Y-92382000I-50000J0D01*
G01*
X194514000Y-92382000D02*
G75*
G02*
X194614000Y-92382000I50000J0D01*
G01*
%TO.C,C10*%
D12*
X178456000Y-83419836D02*
X178456000Y-83204164D01*
X179176000Y-83419836D02*
X179176000Y-83204164D01*
%TO.C,C13*%
X161438000Y-83927836D02*
X161438000Y-83712164D01*
X162158000Y-83927836D02*
X162158000Y-83712164D01*
%TO.C,R6*%
X193140359Y-80898000D02*
X193447641Y-80898000D01*
X193140359Y-80138000D02*
X193447641Y-80138000D01*
%TO.C,R4*%
X156846000Y-85370641D02*
X156846000Y-85063359D01*
X157606000Y-85370641D02*
X157606000Y-85063359D01*
%TO.C,J2*%
X148480000Y-80120000D02*
X148480000Y-78740000D01*
X149860000Y-80120000D02*
X148480000Y-80120000D01*
X151130000Y-77360000D02*
X186800000Y-77360000D01*
X151130000Y-80120000D02*
X151130000Y-77360000D01*
X151130000Y-80120000D02*
X186800000Y-80120000D01*
X186800000Y-80120000D02*
X186800000Y-77360000D01*
%TO.C,R3*%
X178436000Y-85497641D02*
X178436000Y-85190359D01*
X179196000Y-85497641D02*
X179196000Y-85190359D01*
%TO.C,J3*%
X137678000Y-82374000D02*
X143678000Y-82374000D01*
X137678000Y-83234000D02*
X137678000Y-82374000D01*
X137678000Y-84914000D02*
X143678000Y-84914000D01*
X137678000Y-85774000D02*
X137678000Y-84914000D01*
X137678000Y-87454000D02*
X143678000Y-87454000D01*
X137678000Y-88314000D02*
X137678000Y-87454000D01*
X143678000Y-83234000D02*
X137678000Y-83234000D01*
X143678000Y-85774000D02*
X137678000Y-85774000D01*
X143678000Y-88314000D02*
X137678000Y-88314000D01*
X146438000Y-84074000D02*
X143678000Y-84074000D01*
X146438000Y-86614000D02*
X143678000Y-86614000D01*
X146438000Y-89154000D02*
X143678000Y-89154000D01*
X146668000Y-89994000D02*
X146438000Y-89994000D01*
X146668000Y-90854000D02*
X146438000Y-90854000D01*
X146750642Y-82374000D02*
X146438000Y-82374000D01*
X146750642Y-83234000D02*
X146438000Y-83234000D01*
X146750642Y-84914000D02*
X146438000Y-84914000D01*
X146750642Y-85774000D02*
X146438000Y-85774000D01*
X146750642Y-87454000D02*
X146438000Y-87454000D01*
X146750642Y-88314000D02*
X146438000Y-88314000D01*
X149098000Y-90424000D02*
X149098000Y-91694000D01*
X149098000Y-91694000D02*
X147828000Y-91694000D01*
X137678000Y-89994000D02*
X143678000Y-89994000D01*
X143678000Y-90854000D01*
X137678000Y-90854000D01*
X137678000Y-89994000D01*
G36*
X137678000Y-89994000D02*
G01*
X143678000Y-89994000D01*
X143678000Y-90854000D01*
X137678000Y-90854000D01*
X137678000Y-89994000D01*
G37*
X143678000Y-81424000D02*
X146438000Y-81424000D01*
X146438000Y-91804000D01*
X143678000Y-91804000D01*
X143678000Y-81424000D01*
%TO.C,R7*%
X192660000Y-93318359D02*
X192660000Y-93625641D01*
X193420000Y-93318359D02*
X193420000Y-93625641D01*
%TO.C,C6*%
X161692000Y-88538164D02*
X161692000Y-88753836D01*
X162412000Y-88538164D02*
X162412000Y-88753836D01*
%TO.C,C7*%
X158623580Y-87882000D02*
X158342420Y-87882000D01*
X158623580Y-88902000D02*
X158342420Y-88902000D01*
%TD*%
M02*
