M48
; DRILL file KiCad 10.0.5 date 2026-09-02T18:05:47
; FORMAT={-:-/ absolute / metric / decimal}
; #@! TF.CreationDate,2026-09-02T18:05:47-05:00
; #@! TF.GenerationSoftware,Kicad,Pcbnew,10.0.5
; #@! TF.FileFunction,MixedPlating,1,2
FMAT,2
METRIC
; #@! TA.AperFunction,Plated,PTH,ViaDrill
T1C0.300
; #@! TA.AperFunction,Plated,PTH,ComponentDrill
T2C0.600
; #@! TA.AperFunction,Plated,PTH,ComponentDrill
T3C0.800
; #@! TA.AperFunction,Plated,PTH,ComponentDrill
T4C1.000
; #@! TA.AperFunction,Plated,PTH,ComponentDrill
T5C1.500
; #@! TA.AperFunction,NonPlated,NPTH,ComponentDrill
T6C0.650
%
G90
G05
T1
X146.704Y-77.87
X150.981Y-87.017
X157.226Y-90.932
X159.116Y-81.295
X160.036Y-89.142
X160.759Y-80.392
X161.481Y-89.154
X162.052Y-82.296
X162.216Y-85.277
X162.824Y-83.651
X163.322Y-86.36
X164.846Y-82.55
X168.31Y-80.343
X169.61Y-90.835
X169.799Y-91.63
X171.45Y-89.408
X171.704Y-82.55
X173.736Y-83.312
X175.26Y-84.074
X175.436Y-85.739
X176.276Y-82.774
X176.403Y-84.074
X176.53Y-94.6
X177.8Y-83.947
X178.054Y-81.534
X178.395Y-91.839
X178.402Y-88.471
X179.07Y-86.868
X179.125Y-91.512
X179.639Y-95.828
X179.902Y-88.518
X180.096Y-90.362
X180.901Y-89.508
X181.356Y-91.186
X181.736Y-88.646
X182.168Y-85.481
X185.166Y-85.471
X186.5Y-86.756
X187.452Y-90.17
X190.729Y-80.924
X191.262Y-83.96
X191.262Y-85.26
X192.278Y-88.392
X192.532Y-84.582
X193.04Y-94.742
T3
X154.432Y-84.392
X154.432Y-86.392
X154.432Y-88.392
T4
X147.828Y-82.804
X147.828Y-85.344
X147.828Y-87.884
X147.828Y-90.424
X149.86Y-78.74
X149.86Y-93.98
X152.4Y-78.74
X152.4Y-93.98
X154.94Y-78.74
X154.94Y-93.98
X157.48Y-78.74
X157.48Y-93.98
X160.02Y-78.74
X160.02Y-93.98
X162.56Y-78.74
X162.56Y-93.98
X165.1Y-78.74
X165.1Y-93.98
X167.64Y-78.74
X167.64Y-93.98
X170.18Y-78.74
X170.18Y-93.98
X172.72Y-78.74
X172.72Y-93.98
X175.26Y-78.74
X175.26Y-93.98
X177.8Y-78.74
X177.8Y-93.98
X180.34Y-78.74
X180.34Y-93.98
X182.88Y-78.74
X182.88Y-93.98
X185.42Y-78.74
X185.42Y-93.98
T5
X154.432Y-82.292
X154.432Y-90.492
T6
X189.673Y-83.47
X189.673Y-89.25
T2
G00X188.623Y-82.04
M15
G01X189.723Y-82.04
M16
G05
G00X188.623Y-90.68
M15
G01X189.723Y-90.68
M16
G05
G00X192.953Y-82.04
M15
G01X193.753Y-82.04
M16
G05
G00X192.953Y-90.68
M15
G01X193.753Y-90.68
M16
G05
M30
