%TF.GenerationSoftware,KiCad,Pcbnew,10.0.5*%
%TF.CreationDate,2026-09-02T18:05:49-05:00*%
%TF.ProjectId,f411_dev_board,66343131-5f64-4657-965f-626f6172642e,rev?*%
%TF.SameCoordinates,Original*%
%TF.FileFunction,Copper,L1,Top*%
%TF.FilePolarity,Positive*%
%FSLAX46Y46*%
G04 Gerber Fmt 4.6, Leading zero omitted, Abs format (unit mm)*
G04 Created by KiCad (PCBNEW 10.0.5) date 2026-09-02 18:05:49*
%MOMM*%
%LPD*%
G01*
G04 APERTURE LIST*
G04 Aperture macros list*
%AMRoundRect*
0 Rectangle with rounded corners*
0 $1 Rounding radius*
0 $2 $3 $4 $5 $6 $7 $8 $9 X,Y pos of 4 corners*
0 Add a 4 corners polygon primitive as box body*
4,1,4,$2,$3,$4,$5,$6,$7,$8,$9,$2,$3,0*
0 Add four circle primitives for the rounded corners*
1,1,$1+$1,$2,$3*
1,1,$1+$1,$4,$5*
1,1,$1+$1,$6,$7*
1,1,$1+$1,$8,$9*
0 Add four rect primitives between the rounded corners*
20,1,$1+$1,$2,$3,$4,$5,0*
20,1,$1+$1,$4,$5,$6,$7,0*
20,1,$1+$1,$6,$7,$8,$9,0*
20,1,$1+$1,$8,$9,$2,$3,0*%
G04 Aperture macros list end*
%TA.AperFunction,SMDPad,CuDef*%
%ADD10RoundRect,0.147500X-0.172500X0.147500X-0.172500X-0.147500X0.172500X-0.147500X0.172500X0.147500X0*%
%TD*%
%TA.AperFunction,ComponentPad*%
%ADD11O,3.500000X2.200000*%
%TD*%
%TA.AperFunction,ComponentPad*%
%ADD12R,2.500000X1.500000*%
%TD*%
%TA.AperFunction,ComponentPad*%
%ADD13O,2.500000X1.500000*%
%TD*%
%TA.AperFunction,SMDPad,CuDef*%
%ADD14RoundRect,0.062500X-0.375000X-0.062500X0.375000X-0.062500X0.375000X0.062500X-0.375000X0.062500X0*%
%TD*%
%TA.AperFunction,SMDPad,CuDef*%
%ADD15RoundRect,0.062500X-0.062500X-0.375000X0.062500X-0.375000X0.062500X0.375000X-0.062500X0.375000X0*%
%TD*%
%TA.AperFunction,HeatsinkPad*%
%ADD16R,5.600000X5.600000*%
%TD*%
%TA.AperFunction,SMDPad,CuDef*%
%ADD17RoundRect,0.218750X-0.256250X0.218750X-0.256250X-0.218750X0.256250X-0.218750X0.256250X0.218750X0*%
%TD*%
%TA.AperFunction,SMDPad,CuDef*%
%ADD18RoundRect,0.225000X0.225000X0.250000X-0.225000X0.250000X-0.225000X-0.250000X0.225000X-0.250000X0*%
%TD*%
%TA.AperFunction,ComponentPad*%
%ADD19R,1.700000X1.700000*%
%TD*%
%TA.AperFunction,ComponentPad*%
%ADD20C,1.700000*%
%TD*%
%TA.AperFunction,SMDPad,CuDef*%
%ADD21RoundRect,0.150000X-0.512500X-0.150000X0.512500X-0.150000X0.512500X0.150000X-0.512500X0.150000X0*%
%TD*%
%TA.AperFunction,SMDPad,CuDef*%
%ADD22RoundRect,0.140000X0.170000X-0.140000X0.170000X0.140000X-0.170000X0.140000X-0.170000X-0.140000X0*%
%TD*%
%TA.AperFunction,SMDPad,CuDef*%
%ADD23RoundRect,0.250000X-0.350000X0.450000X-0.350000X-0.450000X0.350000X-0.450000X0.350000X0.450000X0*%
%TD*%
%TA.AperFunction,SMDPad,CuDef*%
%ADD24RoundRect,0.150000X0.425000X-0.150000X0.425000X0.150000X-0.425000X0.150000X-0.425000X-0.150000X0*%
%TD*%
%TA.AperFunction,SMDPad,CuDef*%
%ADD25RoundRect,0.075000X0.500000X-0.075000X0.500000X0.075000X-0.500000X0.075000X-0.500000X-0.075000X0*%
%TD*%
%TA.AperFunction,ComponentPad*%
%ADD26O,2.100000X1.000000*%
%TD*%
%TA.AperFunction,ComponentPad*%
%ADD27O,1.800000X1.000000*%
%TD*%
%TA.AperFunction,SMDPad,CuDef*%
%ADD28R,1.000000X0.750000*%
%TD*%
%TA.AperFunction,SMDPad,CuDef*%
%ADD29RoundRect,0.135000X-0.135000X-0.185000X0.135000X-0.185000X0.135000X0.185000X-0.135000X0.185000X0*%
%TD*%
%TA.AperFunction,SMDPad,CuDef*%
%ADD30RoundRect,0.135000X0.185000X-0.135000X0.185000X0.135000X-0.185000X0.135000X-0.185000X-0.135000X0*%
%TD*%
%TA.AperFunction,SMDPad,CuDef*%
%ADD31RoundRect,0.135000X-0.185000X0.135000X-0.185000X-0.135000X0.185000X-0.135000X0.185000X0.135000X0*%
%TD*%
%TA.AperFunction,SMDPad,CuDef*%
%ADD32RoundRect,0.140000X-0.170000X0.140000X-0.170000X-0.140000X0.170000X-0.140000X0.170000X0.140000X0*%
%TD*%
%TA.AperFunction,ViaPad*%
%ADD33C,0.600000*%
%TD*%
%TA.AperFunction,Conductor*%
%ADD34C,0.300000*%
%TD*%
%TA.AperFunction,Conductor*%
%ADD35C,0.500000*%
%TD*%
%TA.AperFunction,Conductor*%
%ADD36C,0.200000*%
%TD*%
G04 APERTURE END LIST*
D10*
%TO.P,D1,1,K_1*%
%TO.N,BUILTIN_LED*%
X194056000Y-78509000D03*
%TO.P,D1,2,A_2*%
%TO.N,/BUILTIN_LED_A*%
X194056000Y-79479000D03*
%TD*%
D11*
%TO.P,SW1,*%
%TO.N,*%
X154432000Y-90492000D03*
X154432000Y-82292000D03*
D12*
%TO.P,SW1,1,A_1*%
%TO.N,+3V3*%
X154432000Y-88392000D03*
D13*
%TO.P,SW1,2,B_2*%
%TO.N,/BOOT0_SW*%
X154432000Y-86392000D03*
%TO.P,SW1,3,C_3*%
%TO.N,GND*%
X154432000Y-84392000D03*
%TD*%
D14*
%TO.P,U1,1,VBAT_1*%
%TO.N,+3V3*%
X164772500Y-83164000D03*
%TO.P,U1,2,PC13_2*%
%TO.N,BUILTIN_LED*%
X164772500Y-83664000D03*
%TO.P,U1,3,PC14_3*%
%TO.N,unconnected-(U1-PC14-Pad3)*%
X164772500Y-84164000D03*
%TO.P,U1,4,PC15_4*%
%TO.N,unconnected-(U1-PC15-Pad4)*%
X164772500Y-84664000D03*
%TO.P,U1,5,PH0_5*%
%TO.N,HSE_IN*%
X164772500Y-85164000D03*
%TO.P,U1,6,PH1_6*%
%TO.N,HSE_OUT*%
X164772500Y-85664000D03*
%TO.P,U1,7,NRST_7*%
%TO.N,RESET*%
X164772500Y-86164000D03*
%TO.P,U1,8,VSSA_8*%
%TO.N,GND*%
X164772500Y-86664000D03*
%TO.P,U1,9,VDDA_9*%
%TO.N,+3.3VA*%
X164772500Y-87164000D03*
%TO.P,U1,10,PA0_10*%
%TO.N,PA0*%
X164772500Y-87664000D03*
%TO.P,U1,11,PA1_11*%
%TO.N,PA1*%
X164772500Y-88164000D03*
%TO.P,U1,12,PA2_12*%
%TO.N,PA2*%
X164772500Y-88664000D03*
D15*
%TO.P,U1,13,PA3_13*%
%TO.N,PA3*%
X165460000Y-89351500D03*
%TO.P,U1,14,PA4_14*%
%TO.N,PA4*%
X165960000Y-89351500D03*
%TO.P,U1,15,PA5_15*%
%TO.N,PA5*%
X166460000Y-89351500D03*
%TO.P,U1,16,PA6_16*%
%TO.N,PA6*%
X166960000Y-89351500D03*
%TO.P,U1,17,PA7_17*%
%TO.N,PA7*%
X167460000Y-89351500D03*
%TO.P,U1,18,PB0_18*%
%TO.N,PB0*%
X167960000Y-89351500D03*
%TO.P,U1,19,PB1_19*%
%TO.N,PB1*%
X168460000Y-89351500D03*
%TO.P,U1,20,PB2_20*%
%TO.N,PB2*%
X168960000Y-89351500D03*
%TO.P,U1,21,PB10_21*%
%TO.N,PB10*%
X169460000Y-89351500D03*
%TO.P,U1,22,VCAP1_22*%
%TO.N,VCAP1*%
X169960000Y-89351500D03*
%TO.P,U1,23,VSS_23*%
%TO.N,GND*%
X170460000Y-89351500D03*
%TO.P,U1,24,VDD_24*%
%TO.N,+3V3*%
X170960000Y-89351500D03*
D14*
%TO.P,U1,25,PB12_25*%
%TO.N,PB12*%
X171647500Y-88664000D03*
%TO.P,U1,26,PB13_26*%
%TO.N,unconnected-(U1-PB13-Pad26)*%
X171647500Y-88164000D03*
%TO.P,U1,27,PB14_27*%
%TO.N,unconnected-(U1-PB14-Pad27)*%
X171647500Y-87664000D03*
%TO.P,U1,28,PB15_28*%
%TO.N,unconnected-(U1-PB15-Pad28)*%
X171647500Y-87164000D03*
%TO.P,U1,29,PA8_29*%
%TO.N,PA8*%
X171647500Y-86664000D03*
%TO.P,U1,30,PA9_30*%
%TO.N,PA9*%
X171647500Y-86164000D03*
%TO.P,U1,31,PA10_31*%
%TO.N,PA10*%
X171647500Y-85664000D03*
%TO.P,U1,32,PA11_32*%
%TO.N,USB_D-*%
X171647500Y-85164000D03*
%TO.P,U1,33,PA12_33*%
%TO.N,USB_D+*%
X171647500Y-84664000D03*
%TO.P,U1,34,PA13_34*%
%TO.N,SWDIO*%
X171647500Y-84164000D03*
%TO.P,U1,35,VSS_35*%
%TO.N,GND*%
X171647500Y-83664000D03*
%TO.P,U1,36,VDD_36*%
%TO.N,+3V3*%
X171647500Y-83164000D03*
D15*
%TO.P,U1,37,PA14_37*%
%TO.N,SWCLK*%
X170960000Y-82476500D03*
%TO.P,U1,38,PA15_38*%
%TO.N,PA15*%
X170460000Y-82476500D03*
%TO.P,U1,39,PB3_39*%
%TO.N,PB3*%
X169960000Y-82476500D03*
%TO.P,U1,40,PB4_40*%
%TO.N,PB4*%
X169460000Y-82476500D03*
%TO.P,U1,41,PB5_41*%
%TO.N,PB5*%
X168960000Y-82476500D03*
%TO.P,U1,42,PB6_42*%
%TO.N,PB6*%
X168460000Y-82476500D03*
%TO.P,U1,43,PB7_43*%
%TO.N,PB7*%
X167960000Y-82476500D03*
%TO.P,U1,44,BOOT0_44*%
%TO.N,BOOT0*%
X167460000Y-82476500D03*
%TO.P,U1,45,PB8_45*%
%TO.N,PB8*%
X166960000Y-82476500D03*
%TO.P,U1,46,PB9_46*%
%TO.N,PB9*%
X166460000Y-82476500D03*
%TO.P,U1,47,VSS_47*%
%TO.N,GND*%
X165960000Y-82476500D03*
%TO.P,U1,48,VDD_48*%
%TO.N,+3V3*%
X165460000Y-82476500D03*
D16*
%TO.P,U1,49,VSS_49*%
%TO.N,GND*%
X168210000Y-85914000D03*
%TD*%
D17*
%TO.P,FB1,1*%
%TO.N,+3.3VA*%
X160782000Y-88366500D03*
%TO.P,FB1,2*%
%TO.N,+3V3*%
X160782000Y-89941500D03*
%TD*%
D18*
%TO.P,C8,1*%
%TO.N,+3V3*%
X159258000Y-89916000D03*
%TO.P,C8,2*%
%TO.N,GND*%
X157708000Y-89916000D03*
%TD*%
D19*
%TO.P,J1,1,Pin_1_1*%
%TO.N,PA0*%
X149860000Y-93980000D03*
D20*
%TO.P,J1,2,Pin_2_2*%
%TO.N,PA1*%
X152400000Y-93980000D03*
%TO.P,J1,3,Pin_3_3*%
%TO.N,PA2*%
X154940000Y-93980000D03*
%TO.P,J1,4,Pin_4_4*%
%TO.N,PA3*%
X157480000Y-93980000D03*
%TO.P,J1,5,Pin_5_5*%
%TO.N,PA4*%
X160020000Y-93980000D03*
%TO.P,J1,6,Pin_6_6*%
%TO.N,PA5*%
X162560000Y-93980000D03*
%TO.P,J1,7,Pin_7_7*%
%TO.N,PA6*%
X165100000Y-93980000D03*
%TO.P,J1,8,Pin_8_8*%
%TO.N,PA7*%
X167640000Y-93980000D03*
%TO.P,J1,9,Pin_9_9*%
%TO.N,PB0*%
X170180000Y-93980000D03*
%TO.P,J1,10,Pin_10_10*%
%TO.N,PB1*%
X172720000Y-93980000D03*
%TO.P,J1,11,Pin_11_11*%
%TO.N,PB2*%
X175260000Y-93980000D03*
%TO.P,J1,12,Pin_12_12*%
%TO.N,PB10*%
X177800000Y-93980000D03*
%TO.P,J1,13,Pin_13_13*%
%TO.N,VBUS*%
X180340000Y-93980000D03*
%TO.P,J1,14,Pin_14_14*%
%TO.N,GND*%
X182880000Y-93980000D03*
%TO.P,J1,15,Pin_15_15*%
%TO.N,+3V3*%
X185420000Y-93980000D03*
%TD*%
D21*
%TO.P,U2,1,I/O1_1*%
%TO.N,USB_D+*%
X183012500Y-87696000D03*
%TO.P,U2,2,GND_2*%
%TO.N,GND*%
X183012500Y-88646000D03*
%TO.P,U2,3,I/O2_3*%
%TO.N,USB_D-*%
X183012500Y-89596000D03*
%TO.P,U2,4,I/O2_4*%
%TO.N,USB_CONN_D-*%
X185287500Y-89596000D03*
%TO.P,U2,5,VBUS_5*%
%TO.N,VBUS*%
X185287500Y-88646000D03*
%TO.P,U2,6,I/O1_6*%
%TO.N,USB_CONN_D+*%
X185287500Y-87696000D03*
%TD*%
D22*
%TO.P,C14,1*%
%TO.N,HSE_OUT*%
X161798000Y-87094000D03*
%TO.P,C14,2*%
%TO.N,GND*%
X161798000Y-86134000D03*
%TD*%
D23*
%TO.P,Y1,1,1_1*%
%TO.N,HSE_IN*%
X158662000Y-84244000D03*
%TO.P,Y1,2,G_2*%
%TO.N,GND*%
X158662000Y-86444000D03*
%TO.P,Y1,3,3_3*%
%TO.N,HSE_OUT*%
X160362000Y-86444000D03*
%TO.P,Y1,4,G_4*%
%TO.N,GND*%
X160362000Y-84244000D03*
%TD*%
D24*
%TO.P,J4,A1,GND_A1*%
%TO.N,GND*%
X188598000Y-89560000D03*
%TO.P,J4,A4,VBUS_A4*%
%TO.N,VBUS*%
X188598000Y-88760000D03*
D25*
%TO.P,J4,A5,CC1_A5*%
%TO.N,/CC1*%
X188598000Y-87610000D03*
%TO.P,J4,A6,D+_A6*%
%TO.N,USB_CONN_D+*%
X188598000Y-86610000D03*
%TO.P,J4,A7,D-_A7*%
%TO.N,USB_CONN_D-*%
X188598000Y-86110000D03*
%TO.P,J4,A8,SBU1_A8*%
%TO.N,unconnected-(J4-SBU1-PadA8)*%
X188598000Y-85110000D03*
D24*
%TO.P,J4,A9,VBUS_A9*%
%TO.N,VBUS*%
X188598000Y-83960000D03*
%TO.P,J4,A12,GND_A12*%
%TO.N,GND*%
X188598000Y-83160000D03*
%TO.P,J4,B1,GND_B1*%
X188598000Y-83160000D03*
%TO.P,J4,B4,VBUS_B4*%
%TO.N,VBUS*%
X188598000Y-83960000D03*
D25*
%TO.P,J4,B5,CC2_B5*%
%TO.N,/CC2*%
X188598000Y-84610000D03*
%TO.P,J4,B6,D+_B6*%
%TO.N,USB_CONN_D+*%
X188598000Y-85610000D03*
%TO.P,J4,B7,D-_B7*%
%TO.N,USB_CONN_D-*%
X188598000Y-87110000D03*
%TO.P,J4,B8,SBU2_B8*%
%TO.N,unconnected-(J4-SBU2-PadB8)*%
X188598000Y-88110000D03*
D24*
%TO.P,J4,B9,VBUS_B9*%
%TO.N,VBUS*%
X188598000Y-88760000D03*
%TO.P,J4,B12,GND_B12*%
%TO.N,GND*%
X188598000Y-89560000D03*
D26*
%TO.P,J4,SH,SHIELD_SH*%
%TO.N,unconnected-(J4-SHIELD-PadSH)*%
X189173000Y-90680000D03*
D27*
%TO.N,unconnected-(J4-SHIELD-PadSH)_2*%
X193353000Y-90680000D03*
D26*
%TO.N,unconnected-(J4-SHIELD-PadSH)_1*%
X189173000Y-82040000D03*
D27*
%TO.N,unconnected-(J4-SHIELD-PadSH)_3*%
X193353000Y-82040000D03*
%TD*%
D28*
%TO.P,SW2,1,1_1*%
%TO.N,GND*%
X180134000Y-81437000D03*
X186134000Y-81437000D03*
%TO.P,SW2,2,2_2*%
%TO.N,RESET*%
X180134000Y-85187000D03*
X186134000Y-85187000D03*
%TD*%
D10*
%TO.P,D2,1,K_1*%
%TO.N,/PWR_LED_K*%
X194564000Y-92987000D03*
%TO.P,D2,2,A_2*%
%TO.N,+3V3*%
X194564000Y-93957000D03*
%TD*%
D22*
%TO.P,C10,1*%
%TO.N,RESET*%
X178816000Y-83792000D03*
%TO.P,C10,2*%
%TO.N,GND*%
X178816000Y-82832000D03*
%TD*%
%TO.P,C13,1*%
%TO.N,HSE_IN*%
X161798000Y-84300000D03*
%TO.P,C13,2*%
%TO.N,GND*%
X161798000Y-83340000D03*
%TD*%
D29*
%TO.P,R6,1*%
%TO.N,/BUILTIN_LED_A*%
X192784000Y-80518000D03*
%TO.P,R6,2*%
%TO.N,+3V3*%
X193804000Y-80518000D03*
%TD*%
D30*
%TO.P,R4,1*%
%TO.N,/BOOT0_SW*%
X157226000Y-85727000D03*
%TO.P,R4,2*%
%TO.N,BOOT0*%
X157226000Y-84707000D03*
%TD*%
D19*
%TO.P,J2,1,Pin_1_1*%
%TO.N,VBUS*%
X149860000Y-78740000D03*
D20*
%TO.P,J2,2,Pin_2_2*%
%TO.N,GND*%
X152400000Y-78740000D03*
%TO.P,J2,3,Pin_3_3*%
%TO.N,+3V3*%
X154940000Y-78740000D03*
%TO.P,J2,4,Pin_4_4*%
%TO.N,PB9*%
X157480000Y-78740000D03*
%TO.P,J2,5,Pin_5_5*%
%TO.N,PB8*%
X160020000Y-78740000D03*
%TO.P,J2,6,Pin_6_6*%
%TO.N,PB7*%
X162560000Y-78740000D03*
%TO.P,J2,7,Pin_7_7*%
%TO.N,PB6*%
X165100000Y-78740000D03*
%TO.P,J2,8,Pin_8_8*%
%TO.N,PB5*%
X167640000Y-78740000D03*
%TO.P,J2,9,Pin_9_9*%
%TO.N,PB4*%
X170180000Y-78740000D03*
%TO.P,J2,10,Pin_10_10*%
%TO.N,PB3*%
X172720000Y-78740000D03*
%TO.P,J2,11,Pin_11_11*%
%TO.N,PA15*%
X175260000Y-78740000D03*
%TO.P,J2,12,Pin_12_12*%
%TO.N,PA8*%
X177800000Y-78740000D03*
%TO.P,J2,13,Pin_13_13*%
%TO.N,PA9*%
X180340000Y-78740000D03*
%TO.P,J2,14,Pin_14_14*%
%TO.N,PA10*%
X182880000Y-78740000D03*
%TO.P,J2,15,Pin_15_15*%
%TO.N,PB12*%
X185420000Y-78740000D03*
%TD*%
D30*
%TO.P,R3,1*%
%TO.N,+3V3*%
X178816000Y-85854000D03*
%TO.P,R3,2*%
%TO.N,RESET*%
X178816000Y-84834000D03*
%TD*%
D19*
%TO.P,J3,1,Pin_1_1*%
%TO.N,SWDIO*%
X147828000Y-90424000D03*
D20*
%TO.P,J3,2,Pin_2_2*%
%TO.N,GND*%
X147828000Y-87884000D03*
%TO.P,J3,3,Pin_3_3*%
%TO.N,SWCLK*%
X147828000Y-85344000D03*
%TO.P,J3,4,Pin_4_4*%
%TO.N,+3V3*%
X147828000Y-82804000D03*
%TD*%
D31*
%TO.P,R7,1*%
%TO.N,/PWR_LED_K*%
X193040000Y-92962000D03*
%TO.P,R7,2*%
%TO.N,GND*%
X193040000Y-93982000D03*
%TD*%
D32*
%TO.P,C6,1*%
%TO.N,+3.3VA*%
X162052000Y-88166000D03*
%TO.P,C6,2*%
%TO.N,GND*%
X162052000Y-89126000D03*
%TD*%
D18*
%TO.P,C7,1*%
%TO.N,+3.3VA*%
X159258000Y-88392000D03*
%TO.P,C7,2*%
%TO.N,GND*%
X157708000Y-88392000D03*
%TD*%
D33*
%TO.N,GND*%
X161480646Y-89154000D03*
%TO.N,PB12*%
X179638729Y-95828461D03*
X176530000Y-94600000D03*
%TO.N,VCAP1*%
X169799000Y-91630000D03*
%TO.N,VBUS*%
X180900743Y-89507800D03*
%TO.N,PA10*%
X179901758Y-88517980D03*
%TO.N,PA9*%
X180095512Y-90361513D03*
%TO.N,PA8*%
X178394672Y-91839055D03*
%TO.N,VBUS*%
X146703827Y-77869827D03*
%TO.N,PA8*%
X186500068Y-86755999D03*
%TO.N,/CC2*%
X192532000Y-84582000D03*
%TO.N,SWDIO*%
X179124839Y-91512161D03*
X178401758Y-88470755D03*
%TO.N,PA10*%
X190728661Y-80924339D03*
%TO.N,PB12*%
X191262000Y-85260000D03*
X191262000Y-83960000D03*
%TO.N,BUILTIN_LED*%
X150980669Y-87017331D03*
X162823852Y-83651103D03*
%TO.N,+3V3*%
X176276000Y-82774000D03*
X171450000Y-89408000D03*
X160035689Y-89142000D03*
X164846000Y-82550000D03*
X176403000Y-84074000D03*
X179070000Y-86868000D03*
X171704000Y-82550000D03*
%TO.N,GND*%
X162215718Y-85277042D03*
X178054000Y-81534000D03*
X181736000Y-88646000D03*
X157226000Y-90932000D03*
X173736000Y-83312000D03*
X162052000Y-82296000D03*
X193040000Y-94742000D03*
X187452000Y-90170000D03*
%TO.N,RESET*%
X185166000Y-85471000D03*
X163322000Y-86360000D03*
X182168331Y-85481450D03*
X177800000Y-83947000D03*
%TO.N,PB10*%
X169610000Y-90835325D03*
%TO.N,SWDIO*%
X175260000Y-84074000D03*
X175436000Y-85739000D03*
%TO.N,PB6*%
X168310000Y-80342620D03*
%TO.N,BOOT0*%
X160758673Y-80392327D03*
X159115880Y-81295120D03*
%TO.N,VBUS*%
X181356000Y-91186000D03*
%TO.N,/CC1*%
X192278000Y-88392000D03*
%TD*%
%TO.N,GND*%
D34*
X161508646Y-89126000D02*
X161480646Y-89154000D01*
X162052000Y-89126000D02*
X161508646Y-89126000D01*
D35*
X161266000Y-83340000D02*
X161798000Y-83340000D01*
X160362000Y-84244000D02*
X161266000Y-83340000D01*
%TO.N,PB12*%
D34*
X179940859Y-95526331D02*
X179638729Y-95828461D01*
X183170726Y-95526331D02*
X179940859Y-95526331D01*
X184220000Y-94477057D02*
X183170726Y-95526331D01*
X184220000Y-93482943D02*
X184220000Y-94477057D01*
X186172943Y-91530000D02*
X184220000Y-93482943D01*
X192928000Y-86926000D02*
X192928000Y-88677082D01*
X190075082Y-91530000D02*
X186172943Y-91530000D01*
X192928000Y-88677082D02*
X190075082Y-91530000D01*
X191262000Y-85260000D02*
X192928000Y-86926000D01*
X176530000Y-93546500D02*
X176530000Y-94600000D01*
X171647500Y-88664000D02*
X176530000Y-93546500D01*
%TO.N,VCAP1*%
X169799000Y-91630000D02*
X170244000Y-91630000D01*
X170244000Y-91630000D02*
X170434000Y-91440000D01*
X170434000Y-90740086D02*
X170434000Y-91440000D01*
X169960000Y-90266086D02*
X170434000Y-90740086D01*
X169960000Y-89351500D02*
X169960000Y-90266086D01*
%TO.N,VBUS*%
D35*
X182937684Y-91186000D02*
X181356000Y-91186000D01*
X184150000Y-89973684D02*
X182937684Y-91186000D01*
X180900743Y-89507800D02*
X180900743Y-90730743D01*
X180900743Y-90730743D02*
X181356000Y-91186000D01*
%TO.N,PA10*%
D34*
X179901758Y-88517980D02*
X179298983Y-89120755D01*
X178110649Y-89120755D02*
X177908447Y-88918553D01*
X178110649Y-89120755D02*
X175495447Y-86505553D01*
X179298983Y-89120755D02*
X178110649Y-89120755D01*
%TO.N,PA9*%
X178427407Y-90361513D02*
X174229894Y-86164000D01*
X180095512Y-90361513D02*
X178427407Y-90361513D01*
X174229894Y-86164000D02*
X171647500Y-86164000D01*
%TO.N,PA8*%
X174022788Y-86664000D02*
X171647500Y-86664000D01*
X178181000Y-90822212D02*
X174022788Y-86664000D01*
X178181000Y-91625383D02*
X178181000Y-90822212D01*
X178394672Y-91839055D02*
X178181000Y-91625383D01*
%TO.N,VBUS*%
D35*
X145528000Y-92896528D02*
X145528000Y-79045654D01*
X145528000Y-79045654D02*
X146703827Y-77869827D01*
X148481472Y-95850000D02*
X145528000Y-92896528D01*
X178556528Y-95850000D02*
X148481472Y-95850000D01*
X180340000Y-94066528D02*
X178556528Y-95850000D01*
X180340000Y-93980000D02*
X180340000Y-94066528D01*
%TO.N,/CC2*%
D34*
X192504000Y-84610000D02*
X192532000Y-84582000D01*
X188598000Y-84610000D02*
X192504000Y-84610000D01*
%TO.N,+3V3*%
D35*
X195334000Y-82048000D02*
X195334000Y-93508661D01*
X193804000Y-80518000D02*
X195334000Y-82048000D01*
X195334000Y-93508661D02*
X194564000Y-94278661D01*
%TO.N,/BUILTIN_LED_A*%
D34*
X192784000Y-80518000D02*
X193823000Y-79479000D01*
X193823000Y-79479000D02*
X194056000Y-79479000D01*
%TO.N,SWDIO*%
X148730000Y-95250000D02*
X147828000Y-94348000D01*
X147828000Y-94348000D02*
X147828000Y-90424000D01*
X178308000Y-95250000D02*
X148730000Y-95250000D01*
X179124839Y-94433161D02*
X178308000Y-95250000D01*
X179124839Y-91512161D02*
X179124839Y-94433161D01*
X175670003Y-85739000D02*
X178401758Y-88470755D01*
X175436000Y-85739000D02*
X175670003Y-85739000D01*
%TO.N,PA10*%
X174437000Y-85664000D02*
X171647500Y-85664000D01*
X175278553Y-86505553D02*
X174437000Y-85664000D01*
X175495447Y-86505553D02*
X175278553Y-86505553D01*
X187344322Y-77540000D02*
X190728661Y-80924339D01*
X184080000Y-77540000D02*
X187344322Y-77540000D01*
X182880000Y-78740000D02*
X184080000Y-77540000D01*
%TO.N,PB12*%
X187625082Y-78740000D02*
X185420000Y-78740000D01*
X191262000Y-82376918D02*
X187625082Y-78740000D01*
X191262000Y-83960000D02*
X191262000Y-82376918D01*
%TO.N,PB10*%
X177800000Y-93980000D02*
X177800000Y-93387000D01*
%TO.N,BUILTIN_LED*%
X192367000Y-76820000D02*
X148672894Y-76820000D01*
X146128000Y-85481057D02*
X147330943Y-86684000D01*
X148672894Y-76820000D02*
X146128000Y-79364894D01*
X150647338Y-86684000D02*
X150980669Y-87017331D01*
X147330943Y-86684000D02*
X150647338Y-86684000D01*
X146128000Y-79364894D02*
X146128000Y-85481057D01*
X194056000Y-78509000D02*
X192367000Y-76820000D01*
X164772500Y-83664000D02*
X162836749Y-83664000D01*
X162836749Y-83664000D02*
X162823852Y-83651103D01*
%TO.N,+3V3*%
X164846000Y-82550000D02*
X164846000Y-83090500D01*
D35*
X194564000Y-93957000D02*
X194564000Y-94278661D01*
X148336000Y-80391000D02*
X147828000Y-80899000D01*
X153416000Y-88392000D02*
X154432000Y-88392000D01*
D34*
X164846000Y-83090500D02*
X164772500Y-83164000D01*
D35*
X178816000Y-86614000D02*
X179070000Y-86868000D01*
X160035689Y-89925811D02*
X160020000Y-89941500D01*
X186932000Y-95492000D02*
X185420000Y-93980000D01*
X147828000Y-82804000D02*
X153416000Y-88392000D01*
X171704000Y-82550000D02*
X171647500Y-82606500D01*
D34*
X170960000Y-89351500D02*
X171393500Y-89351500D01*
D35*
X161023000Y-89941500D02*
X160020000Y-89941500D01*
X178816000Y-85854000D02*
X178816000Y-86614000D01*
X159283500Y-89941500D02*
X159258000Y-89916000D01*
D34*
X164919500Y-82476500D02*
X164846000Y-82550000D01*
X165460000Y-82476500D02*
X164919500Y-82476500D01*
D35*
X160035689Y-89142000D02*
X160035689Y-89925811D01*
D34*
X171393500Y-89351500D02*
X171450000Y-89408000D01*
D35*
X194564000Y-94278661D02*
X193350661Y-95492000D01*
X154940000Y-78740000D02*
X153289000Y-80391000D01*
X176403000Y-84074000D02*
X176403000Y-82901000D01*
X171647500Y-82606500D02*
X171647500Y-83064000D01*
X147828000Y-80899000D02*
X147828000Y-82804000D01*
X160020000Y-89941500D02*
X159283500Y-89941500D01*
X193350661Y-95492000D02*
X186932000Y-95492000D01*
X176403000Y-82901000D02*
X176276000Y-82774000D01*
X153289000Y-80391000D02*
X148336000Y-80391000D01*
%TO.N,GND*%
X161798000Y-83340000D02*
X161798000Y-82550000D01*
X161798000Y-82550000D02*
X162052000Y-82296000D01*
X183012500Y-88646000D02*
X181736000Y-88646000D01*
X161798000Y-86134000D02*
X161798000Y-85694760D01*
X179070000Y-81437000D02*
X178151000Y-81437000D01*
D34*
X170460000Y-88164000D02*
X168210000Y-85914000D01*
D35*
X178151000Y-81437000D02*
X178054000Y-81534000D01*
X157708000Y-89916000D02*
X157708000Y-90450000D01*
X186134000Y-81437000D02*
X187857000Y-83160000D01*
X188062000Y-89560000D02*
X187452000Y-90170000D01*
X157708000Y-87398000D02*
X158662000Y-86444000D01*
D34*
X165960000Y-83664000D02*
X168210000Y-85914000D01*
X167460000Y-86664000D02*
X168210000Y-85914000D01*
D35*
X188598000Y-89560000D02*
X188062000Y-89560000D01*
X193040000Y-93982000D02*
X193040000Y-94742000D01*
D34*
X164772500Y-86664000D02*
X167460000Y-86664000D01*
D35*
X161798000Y-85694760D02*
X162215718Y-85277042D01*
D34*
X171647500Y-83664000D02*
X170460000Y-83664000D01*
D35*
X178816000Y-81691000D02*
X179070000Y-81437000D01*
X180134000Y-81437000D02*
X179070000Y-81437000D01*
X157708000Y-90450000D02*
X157226000Y-90932000D01*
X187857000Y-83160000D02*
X188598000Y-83160000D01*
X157708000Y-89916000D02*
X157708000Y-88392000D01*
X178816000Y-82832000D02*
X178816000Y-81691000D01*
D34*
X173384000Y-83664000D02*
X173736000Y-83312000D01*
D35*
X157708000Y-88392000D02*
X157708000Y-87398000D01*
X180134000Y-81437000D02*
X186134000Y-81437000D01*
D34*
X170460000Y-83664000D02*
X168210000Y-85914000D01*
X170460000Y-89351500D02*
X170460000Y-88164000D01*
X171647500Y-83664000D02*
X173384000Y-83664000D01*
X165960000Y-82476500D02*
X165960000Y-83664000D01*
%TO.N,/BOOT0_SW*%
X154432000Y-86392000D02*
X156561000Y-86392000D01*
X156561000Y-86392000D02*
X157226000Y-85727000D01*
%TO.N,HSE_IN*%
X161798000Y-84300000D02*
X162786000Y-84300000D01*
X163667904Y-84582000D02*
X164249904Y-85164000D01*
X163068000Y-84582000D02*
X163667904Y-84582000D01*
X159712000Y-85294000D02*
X158662000Y-84244000D01*
X161798000Y-84579999D02*
X161083999Y-85294000D01*
X161798000Y-84300000D02*
X161798000Y-84579999D01*
X164249904Y-85164000D02*
X164772500Y-85164000D01*
X162786000Y-84300000D02*
X163068000Y-84582000D01*
X161083999Y-85294000D02*
X159712000Y-85294000D01*
%TO.N,HSE_OUT*%
X162107999Y-87094000D02*
X162560000Y-86641999D01*
X161798000Y-87094000D02*
X161012000Y-87094000D01*
X162560000Y-85852000D02*
X162748000Y-85664000D01*
X162560000Y-86641999D02*
X162560000Y-85852000D01*
X162748000Y-85664000D02*
X164772500Y-85664000D01*
X161012000Y-87094000D02*
X160362000Y-86444000D01*
X161798000Y-87094000D02*
X162107999Y-87094000D01*
%TO.N,RESET*%
X185450000Y-85187000D02*
X185166000Y-85471000D01*
X177800000Y-83947000D02*
X178661000Y-83947000D01*
X186134000Y-85187000D02*
X185450000Y-85187000D01*
X178661000Y-83947000D02*
X178816000Y-83792000D01*
X179781000Y-84834000D02*
X180134000Y-85187000D01*
X178816000Y-83792000D02*
X178816000Y-84834000D01*
X182168331Y-85481450D02*
X180428450Y-85481450D01*
X180428450Y-85481450D02*
X180134000Y-85187000D01*
X164772500Y-86164000D02*
X163518000Y-86164000D01*
X163518000Y-86164000D02*
X163322000Y-86360000D01*
X178816000Y-84834000D02*
X179781000Y-84834000D01*
%TO.N,+3.3VA*%
D35*
X159258000Y-88392000D02*
X160997500Y-88392000D01*
X162052000Y-87998527D02*
X162630711Y-87419816D01*
X161851500Y-88366500D02*
X162052000Y-88166000D01*
X160997500Y-88392000D02*
X161023000Y-88366500D01*
X160782000Y-88366500D02*
X161851500Y-88366500D01*
X162052000Y-88166000D02*
X162052000Y-87998527D01*
D34*
X162745106Y-87164000D02*
X162560000Y-87349106D01*
X164772500Y-87164000D02*
X162745106Y-87164000D01*
%TO.N,PA0*%
X163235055Y-87664000D02*
X162724027Y-88175028D01*
X161417000Y-90805000D02*
X158750000Y-90805000D01*
X157973000Y-91582000D02*
X156352000Y-91582000D01*
X158750000Y-90805000D02*
X157973000Y-91582000D01*
X156352000Y-91582000D02*
X156337000Y-91567000D01*
X162724027Y-88175028D02*
X162724027Y-89497973D01*
X151892000Y-91948000D02*
X149860000Y-93980000D01*
X156337000Y-91567000D02*
X155956000Y-91948000D01*
X155956000Y-91948000D02*
X151892000Y-91948000D01*
X164772500Y-87664000D02*
X163235055Y-87664000D01*
X162724027Y-89497973D02*
X161417000Y-90805000D01*
%TO.N,PA1*%
X163224027Y-88382134D02*
X163442161Y-88164000D01*
X152400000Y-93980000D02*
X153932000Y-92448000D01*
X161616107Y-91313000D02*
X163224027Y-89705079D01*
X158235000Y-92082000D02*
X159004000Y-91313000D01*
X163442161Y-88164000D02*
X164772500Y-88164000D01*
X156163106Y-92448000D02*
X156529106Y-92082000D01*
X153932000Y-92448000D02*
X156163106Y-92448000D01*
X163224027Y-89705079D02*
X163224027Y-88382134D01*
X159004000Y-91313000D02*
X161616107Y-91313000D01*
X156529106Y-92082000D02*
X158235000Y-92082000D01*
%TO.N,PA2*%
X159258000Y-91821000D02*
X158496000Y-92583000D01*
X164772500Y-88863714D02*
X161815214Y-91821000D01*
X164772500Y-88664000D02*
X164772500Y-88863714D01*
X155338212Y-93980000D02*
X154940000Y-93980000D01*
X161815214Y-91821000D02*
X159258000Y-91821000D01*
X158496000Y-92583000D02*
X156735212Y-92583000D01*
X156735212Y-92583000D02*
X155338212Y-93980000D01*
%TO.N,PA3*%
X165403500Y-89408000D02*
X165460000Y-89351500D01*
X157480000Y-93980000D02*
X157806107Y-93980000D01*
X164935320Y-89408000D02*
X165403500Y-89408000D01*
X157806107Y-93980000D02*
X159465106Y-92321000D01*
X162022321Y-92321000D02*
X164935320Y-89408000D01*
X159465106Y-92321000D02*
X162022321Y-92321000D01*
%TO.N,PA4*%
X162229427Y-92821000D02*
X164911428Y-90139000D01*
X160020000Y-93980000D02*
X160020000Y-93599000D01*
X160020000Y-93599000D02*
X160798000Y-92821000D01*
X165960000Y-89874096D02*
X165960000Y-89351500D01*
X160798000Y-92821000D02*
X162229427Y-92821000D01*
X164911428Y-90139000D02*
X165695096Y-90139000D01*
X165695096Y-90139000D02*
X165960000Y-89874096D01*
%TO.N,PA5*%
X165118533Y-90639000D02*
X165902202Y-90639000D01*
X162560000Y-93980000D02*
X162560000Y-93197534D01*
X165902202Y-90639000D02*
X166460000Y-90081202D01*
X162560000Y-93197534D02*
X165118533Y-90639000D01*
X166460000Y-90081202D02*
X166460000Y-89351500D01*
%TO.N,PA6*%
X165325639Y-91139000D02*
X166163000Y-91139000D01*
X165100000Y-91364639D02*
X165325639Y-91139000D01*
X166163000Y-91139000D02*
X166960000Y-90342000D01*
X165100000Y-93980000D02*
X165100000Y-91364639D01*
X166960000Y-90342000D02*
X166960000Y-89351500D01*
%TO.N,PA7*%
X167386000Y-90678000D02*
X167460000Y-90604000D01*
X167460000Y-90604000D02*
X167460000Y-89351500D01*
X167640000Y-93980000D02*
X167386000Y-93726000D01*
X167386000Y-93726000D02*
X167386000Y-90678000D01*
%TO.N,PB0*%
X169672000Y-93472000D02*
X168783000Y-93472000D01*
X168783000Y-93345000D02*
X167960000Y-92522000D01*
X167960000Y-92522000D02*
X167960000Y-89351500D01*
X168783000Y-93472000D02*
X168783000Y-93345000D01*
X170180000Y-93980000D02*
X169672000Y-93472000D01*
%TO.N,PB1*%
X169221000Y-92780000D02*
X171520000Y-92780000D01*
X169164000Y-92837000D02*
X169221000Y-92780000D01*
X168460000Y-89351500D02*
X168460000Y-92133000D01*
X171520000Y-92780000D02*
X172720000Y-93980000D01*
X168460000Y-92133000D02*
X169164000Y-92837000D01*
%TO.N,PB2*%
X169314106Y-92280000D02*
X168960000Y-91925894D01*
X173560000Y-92280000D02*
X169314106Y-92280000D01*
X168960000Y-91925894D02*
X168960000Y-89535000D01*
X175260000Y-93980000D02*
X173560000Y-92280000D01*
%TO.N,PB10*%
X169610000Y-90835325D02*
X169460000Y-90685325D01*
X169460000Y-90685325D02*
X169460000Y-89351500D01*
%TO.N,USB_D-*%
D36*
X175856103Y-85139000D02*
X172328751Y-85139000D01*
X181334480Y-87917980D02*
X178635083Y-87917980D01*
X181487471Y-89246000D02*
X181136000Y-88894529D01*
X181136000Y-88116460D02*
X181334480Y-87917980D01*
X172303751Y-85164000D02*
X171647500Y-85164000D01*
X178635083Y-87917980D02*
X175856103Y-85139000D01*
X181136000Y-88894529D02*
X181136000Y-88116460D01*
X183012500Y-89596000D02*
X182662500Y-89246000D01*
X172328751Y-85139000D02*
X172303751Y-85164000D01*
X182662500Y-89246000D02*
X181487471Y-89246000D01*
%TO.N,USB_D+*%
X181748897Y-87696000D02*
X181520897Y-87468000D01*
X176042471Y-84689000D02*
X172328751Y-84689000D01*
X178821471Y-87468000D02*
X176042471Y-84689000D01*
X172328751Y-84689000D02*
X172303751Y-84664000D01*
X183012500Y-87696000D02*
X181748897Y-87696000D01*
X181520897Y-87468000D02*
X178821471Y-87468000D01*
X172303751Y-84664000D02*
X171647500Y-84664000D01*
%TO.N,SWDIO*%
D34*
X175170000Y-84164000D02*
X171647500Y-84164000D01*
X175260000Y-84074000D02*
X175170000Y-84164000D01*
%TO.N,SWCLK*%
X148730000Y-77470000D02*
X175687057Y-77470000D01*
X146628000Y-79572000D02*
X148730000Y-77470000D01*
X147828000Y-85344000D02*
X146628000Y-84144000D01*
X170960000Y-82039001D02*
X170960000Y-82476500D01*
X146628000Y-84144000D02*
X146628000Y-79572000D01*
X175260000Y-80772000D02*
X172227001Y-80772000D01*
X176460000Y-79572000D02*
X175260000Y-80772000D01*
X172227001Y-80772000D02*
X170960000Y-82039001D01*
X175687057Y-77470000D02*
X176460000Y-78242943D01*
X176460000Y-78242943D02*
X176460000Y-79572000D01*
%TO.N,PA15*%
X175006000Y-80264000D02*
X175260000Y-80010000D01*
X172027895Y-80264000D02*
X175006000Y-80264000D01*
X170460000Y-82476500D02*
X170460000Y-81831895D01*
X175260000Y-80010000D02*
X175260000Y-78740000D01*
X170460000Y-81831895D02*
X172027895Y-80264000D01*
%TO.N,PB3*%
X172720000Y-78740000D02*
X169960000Y-81500000D01*
X169960000Y-81500000D02*
X169960000Y-82476500D01*
%TO.N,PB4*%
X170180000Y-80518000D02*
X170180000Y-78740000D01*
X169460000Y-82476500D02*
X169460000Y-81238000D01*
X169460000Y-81238000D02*
X170180000Y-80518000D01*
%TO.N,PB5*%
X168960000Y-82476500D02*
X168960000Y-80060000D01*
X168960000Y-80060000D02*
X167640000Y-78740000D01*
%TO.N,PB6*%
X168460000Y-80492620D02*
X168310000Y-80342620D01*
X168460000Y-82476500D02*
X168460000Y-80492620D01*
%TO.N,PB7*%
X167660000Y-80518000D02*
X167082000Y-79940000D01*
X167082000Y-79940000D02*
X163760000Y-79940000D01*
X167960000Y-80911859D02*
X167660000Y-80611859D01*
X167960000Y-82476500D02*
X167960000Y-80911859D01*
X163760000Y-79940000D02*
X162560000Y-78740000D01*
X167660000Y-80611859D02*
X167660000Y-80518000D01*
%TO.N,BOOT0*%
X167460000Y-81539692D02*
X167460000Y-82476500D01*
X166360308Y-80440000D02*
X167460000Y-81539692D01*
X160806346Y-80440000D02*
X166360308Y-80440000D01*
X157226000Y-84707000D02*
X157226000Y-83185000D01*
X160758673Y-80392327D02*
X160806346Y-80440000D01*
X157226000Y-83185000D02*
X159115880Y-81295120D01*
%TO.N,PB8*%
X166359202Y-81146000D02*
X166960000Y-81746798D01*
X160020000Y-80572894D02*
X160608106Y-81161000D01*
X160020000Y-78740000D02*
X160020000Y-80572894D01*
X160608106Y-81161000D02*
X160623106Y-81146000D01*
X166960000Y-81746798D02*
X166960000Y-82476500D01*
X160623106Y-81146000D02*
X166359202Y-81146000D01*
%TO.N,PB9*%
X166152096Y-81646000D02*
X161178000Y-81646000D01*
X161163000Y-81661000D02*
X160401000Y-81661000D01*
X166460000Y-81953904D02*
X166152096Y-81646000D01*
X166460000Y-82476500D02*
X166460000Y-81953904D01*
X161178000Y-81646000D02*
X161163000Y-81661000D01*
X160401000Y-81661000D02*
X157480000Y-78740000D01*
%TO.N,VBUS*%
D35*
X184600316Y-90424000D02*
X185974684Y-90424000D01*
X184625001Y-88646000D02*
X184150000Y-88170999D01*
X184150000Y-88170999D02*
X184150000Y-85396000D01*
X184150000Y-85396000D02*
X185586000Y-83960000D01*
X184150000Y-89973684D02*
X184600316Y-90424000D01*
X184150000Y-88170999D02*
X184150000Y-89973684D01*
X185586000Y-83960000D02*
X188598000Y-83960000D01*
X187346264Y-89052420D02*
X187346264Y-89048263D01*
X180340000Y-93980000D02*
X181356000Y-92964000D01*
X185974684Y-90424000D02*
X187346264Y-89052420D01*
X181356000Y-92964000D02*
X181356000Y-91186000D01*
X185287500Y-88646000D02*
X184625001Y-88646000D01*
X187346264Y-89048263D02*
X187634527Y-88760000D01*
X187634527Y-88760000D02*
X188598000Y-88760000D01*
%TO.N,USB_CONN_D-*%
D34*
X187673000Y-86863120D02*
X187673000Y-87872999D01*
X184846000Y-89596000D02*
X185287500Y-89596000D01*
X187706000Y-86110000D02*
X188598000Y-86110000D01*
X188598000Y-87110000D02*
X187919880Y-87110000D01*
X187673000Y-86143000D02*
X187706000Y-86110000D01*
X185949999Y-89596000D02*
X185287500Y-89596000D01*
X187673000Y-86863120D02*
X187673000Y-86143000D01*
X187673000Y-87872999D02*
X185949999Y-89596000D01*
X187919880Y-87110000D02*
X187673000Y-86863120D01*
%TO.N,USB_CONN_D+*%
X188598000Y-86610000D02*
X189276120Y-86610000D01*
X186790000Y-86106000D02*
X185420000Y-86106000D01*
X189472000Y-85610000D02*
X188598000Y-85610000D01*
X185420000Y-86106000D02*
X185287500Y-86238500D01*
X189523000Y-85661000D02*
X189472000Y-85610000D01*
X185287500Y-86238500D02*
X185287500Y-87696000D01*
X188598000Y-85610000D02*
X187286000Y-85610000D01*
X187286000Y-85610000D02*
X186790000Y-86106000D01*
X189523000Y-86363120D02*
X189523000Y-85661000D01*
X189276120Y-86610000D02*
X189523000Y-86363120D01*
%TO.N,/CC1*%
X188598000Y-87610000D02*
X191496000Y-87610000D01*
X191496000Y-87610000D02*
X192278000Y-88392000D01*
%TO.N,/PWR_LED_K*%
D35*
X194539000Y-92962000D02*
X194564000Y-92987000D01*
X193040000Y-92962000D02*
X194539000Y-92962000D01*
%TD*%
%TA.AperFunction,Conductor*%
%TO.N,VBUS*%
G36*
X186425147Y-90068323D02*
G01*
X186472015Y-90120142D01*
X186483427Y-90189073D01*
X186455761Y-90253232D01*
X186443535Y-90265991D01*
X184048806Y-92432651D01*
X183988815Y-92462511D01*
X181338914Y-92967254D01*
X181337313Y-92975513D01*
X181289042Y-93026027D01*
X181266372Y-93036209D01*
X179741212Y-93544596D01*
X179671388Y-93547121D01*
X179611283Y-93511496D01*
X179579980Y-93449031D01*
X179578000Y-93426959D01*
X179578000Y-91973450D01*
X179588026Y-91924605D01*
X179607924Y-91878175D01*
X179614499Y-91865045D01*
X179684416Y-91743945D01*
X179713755Y-91634447D01*
X179719544Y-91617728D01*
X179951525Y-91076440D01*
X179971351Y-91044590D01*
X180005017Y-91005314D01*
X180063592Y-90967225D01*
X180099164Y-90962013D01*
X180174567Y-90962013D01*
X180174569Y-90962013D01*
X180327296Y-90921090D01*
X180464228Y-90842033D01*
X180576032Y-90730229D01*
X180655089Y-90593297D01*
X180696012Y-90440570D01*
X180696012Y-90291921D01*
X180715697Y-90224882D01*
X180768501Y-90179127D01*
X180817371Y-90167949D01*
X182232936Y-90137831D01*
X182277423Y-90148363D01*
X182278347Y-90145724D01*
X182415299Y-90193646D01*
X182445730Y-90196500D01*
X182445734Y-90196500D01*
X183579270Y-90196500D01*
X183609699Y-90193646D01*
X183609701Y-90193646D01*
X183695154Y-90163744D01*
X183737882Y-90148793D01*
X183766191Y-90127899D01*
X183831816Y-90103928D01*
X183837132Y-90103699D01*
X184440156Y-90090869D01*
X184507596Y-90109122D01*
X184516424Y-90115070D01*
X184523297Y-90120142D01*
X184562118Y-90148793D01*
X184616863Y-90167949D01*
X184690299Y-90193646D01*
X184720730Y-90196500D01*
X184720734Y-90196500D01*
X185854270Y-90196500D01*
X185884699Y-90193646D01*
X185884701Y-90193646D01*
X185958137Y-90167949D01*
X186012882Y-90148793D01*
X186108727Y-90078056D01*
X186174352Y-90054087D01*
X186179671Y-90053858D01*
X186357707Y-90050070D01*
X186425147Y-90068323D01*
G37*
%TD.AperFunction*%
%TD*%
M02*
